<svg width="280" height="128" viewBox="0 0 280 128" fill="none" xmlns="http://www.w3.org/2000/svg">
<rect width="280" height="128" fill="#92C7FA"/>
<circle cx="14" cy="14" r="3.59966" fill="#00160F" stroke="#00160F" stroke-width="0.800671"/>
<circle cx="25" cy="14" r="3.59966" fill="#00160F" stroke="#00160F" stroke-width="0.800671"/>
<circle cx="36" cy="14" r="3.59966" fill="#00160F" stroke="#00160F" stroke-width="0.800671"/>
<rect x="70.3846" y="34.7692" width="110" height="63.8462" fill="white" stroke="#00160F" stroke-width="0.769231"/>
<rect x="133.847" y="19" width="73.8462" height="27.6923" fill="#00160F"/>
<rect x="143.077" y="28.2308" width="55.3846" height="3.07692" fill="#F9F6F2"/>
<rect x="143.077" y="34.3846" width="36.9231" height="3.07692" fill="#F9F6F2"/>
<rect x="94.6152" y="59" width="61.5385" height="27.6923" fill="#00160F"/>
<path d="M105.005 86.3077C105.248 76.6195 114.641 68.7452 125.384 68.7452C136.128 68.7452 145.521 76.6195 145.764 86.3077H105.005Z" fill="#F9F6F2" stroke="#00160F" stroke-width="0.769231"/>
<path d="M139.23 46.6923H146.923L143.077 50.5385L139.23 54.3846V46.6923Z" fill="#00160F"/>
<rect x="170.385" y="60.1538" width="39.2308" height="54.6154" fill="white" stroke="#00160F" stroke-width="0.769231"/>
<path d="M180.907 69.1922C181.038 69.143 181.162 69.1183 181.276 69.1183H183.64C183.722 69.1183 183.787 69.1512 183.836 69.2168C183.902 69.266 183.935 69.3317 183.935 69.4137V86.0537C183.935 86.1358 183.902 86.2096 183.836 86.2753C183.787 86.3245 183.722 86.3491 183.64 86.3491H181.375C181.293 86.3491 181.219 86.3245 181.153 86.2753C181.104 86.2096 181.08 86.1358 181.08 86.0537V72.0722C181.08 72.0394 181.063 72.0148 181.03 71.9984C180.997 71.9655 180.965 71.9573 180.932 71.9737L178.47 72.7368C178.437 72.7532 178.396 72.7614 178.347 72.7614C178.282 72.7614 178.224 72.7368 178.175 72.6876C178.142 72.6384 178.126 72.5727 178.126 72.4907L178.052 70.866C178.052 70.7019 178.117 70.5871 178.249 70.5214L180.907 69.1922ZM195.505 77.8568C195.948 78.6937 196.17 79.7112 196.17 80.9091C196.17 81.9101 196.006 82.7881 195.677 83.543C195.284 84.4948 194.66 85.2332 193.807 85.7584C192.97 86.2671 191.96 86.5214 190.779 86.5214C189.548 86.5214 188.498 86.2425 187.628 85.6845C186.758 85.1101 186.135 84.3142 185.757 83.2968C185.495 82.6076 185.364 81.8035 185.364 80.8845V73.3768C185.364 72.4907 185.585 71.7112 186.028 71.0383C186.471 70.3655 187.087 69.8486 187.874 69.4876C188.678 69.1101 189.597 68.9214 190.631 68.9214C191.632 68.9214 192.518 69.1019 193.29 69.463C194.077 69.824 194.685 70.3327 195.111 70.9891C195.554 71.6455 195.776 72.4004 195.776 73.2537V73.7953C195.776 73.8773 195.743 73.9512 195.677 74.0168C195.628 74.066 195.563 74.0907 195.48 74.0907H193.216C193.134 74.0907 193.06 74.066 192.994 74.0168C192.945 73.9512 192.92 73.8773 192.92 73.7953V73.623C192.92 72.9666 192.699 72.4332 192.256 72.023C191.829 71.5963 191.279 71.383 190.607 71.383C189.917 71.383 189.343 71.6045 188.884 72.0476C188.44 72.4742 188.219 73.0322 188.219 73.7214V76.4045C188.219 76.4537 188.235 76.4866 188.268 76.503C188.301 76.5194 188.334 76.5112 188.367 76.4784C189.056 75.8055 190.008 75.4691 191.222 75.4691C192.19 75.4691 193.035 75.6742 193.757 76.0845C194.496 76.4948 195.078 77.0855 195.505 77.8568ZM192.945 82.706C193.191 82.2137 193.314 81.6312 193.314 80.9584C193.314 80.2199 193.175 79.5881 192.896 79.063C192.436 78.2753 191.723 77.8814 190.754 77.8814C189.737 77.8814 189.015 78.2917 188.588 79.1122C188.342 79.6045 188.219 80.2445 188.219 81.0322C188.219 81.705 188.326 82.2548 188.539 82.6814C188.933 83.584 189.671 84.0353 190.754 84.0353C191.788 84.0353 192.518 83.5922 192.945 82.706ZM199.931 78.0291C199.422 78.0291 199.004 77.865 198.675 77.5368C198.347 77.2086 198.183 76.7901 198.183 76.2814C198.183 75.7727 198.347 75.3542 198.675 75.026C199.004 74.6978 199.422 74.5337 199.931 74.5337C200.44 74.5337 200.85 74.6978 201.162 75.026C201.49 75.3542 201.654 75.7727 201.654 76.2814C201.654 76.7901 201.49 77.2086 201.162 77.5368C200.833 77.865 200.423 78.0291 199.931 78.0291ZM199.931 86.1522C199.422 86.1522 199.004 85.9881 198.675 85.6599C198.347 85.3317 198.183 84.9132 198.183 84.4045C198.183 83.8958 198.347 83.4773 198.675 83.1491C199.004 82.8209 199.422 82.6568 199.931 82.6568C200.44 82.6568 200.85 82.8209 201.162 83.1491C201.49 83.4773 201.654 83.8958 201.654 84.4045C201.654 84.9132 201.49 85.3317 201.162 85.6599C200.833 85.9881 200.423 86.1522 199.931 86.1522Z" fill="#00160F"/>
<path d="M188.292 99.7616C188.62 100.549 188.784 101.452 188.784 102.469C188.784 103.388 188.645 104.201 188.366 104.906C187.988 105.94 187.365 106.744 186.495 107.319C185.625 107.877 184.575 108.155 183.344 108.155C182.13 108.155 181.071 107.852 180.169 107.245C179.283 106.621 178.651 105.784 178.273 104.734C178.076 104.225 177.962 103.561 177.929 102.74C177.929 102.543 178.027 102.445 178.224 102.445H180.513C180.71 102.445 180.809 102.543 180.809 102.74C180.842 103.265 180.924 103.684 181.055 103.995C181.203 104.521 181.473 104.939 181.867 105.251C182.277 105.546 182.77 105.694 183.344 105.694C184.427 105.694 185.174 105.202 185.584 104.217C185.797 103.741 185.904 103.126 185.904 102.371C185.904 101.534 185.781 100.845 185.535 100.303C185.108 99.3842 184.37 98.9247 183.32 98.9247C183.041 98.9247 182.663 99.0888 182.187 99.417C182.122 99.4498 182.064 99.4662 182.015 99.4662C181.933 99.4662 181.851 99.417 181.769 99.3186L180.636 97.7432C180.587 97.6611 180.563 97.5955 180.563 97.5462C180.563 97.4642 180.595 97.3904 180.661 97.3247L184.723 93.337C184.755 93.3042 184.764 93.2714 184.747 93.2386C184.731 93.2057 184.698 93.1893 184.649 93.1893H178.495C178.413 93.1893 178.339 93.1647 178.273 93.1155C178.224 93.0498 178.2 92.976 178.2 92.8939V91.0232C178.2 90.9411 178.224 90.8755 178.273 90.8262C178.339 90.7606 178.413 90.7278 178.495 90.7278H188.316C188.398 90.7278 188.464 90.7606 188.513 90.8262C188.579 90.8755 188.612 90.9411 188.612 91.0232V93.1647C188.612 93.3124 188.563 93.4355 188.464 93.5339L184.944 97.0786C184.878 97.1442 184.911 97.1934 185.043 97.2262C186.569 97.4396 187.652 98.2847 188.292 99.7616ZM195.473 108.229C193.75 108.229 192.38 107.745 191.363 106.777C190.362 105.792 189.861 104.471 189.861 102.814V95.8724C189.861 94.2314 190.362 92.935 191.363 91.9832C192.38 91.015 193.75 90.5309 195.473 90.5309C197.196 90.5309 198.567 91.015 199.584 91.9832C200.618 92.935 201.135 94.2314 201.135 95.8724V102.814C201.135 104.471 200.618 105.792 199.584 106.777C198.567 107.745 197.196 108.229 195.473 108.229ZM195.473 105.743C196.327 105.743 197.008 105.497 197.516 105.005C198.025 104.496 198.28 103.815 198.28 102.962V95.7739C198.28 94.9206 198.025 94.2478 197.516 93.7555C197.008 93.2468 196.327 92.9924 195.473 92.9924C194.636 92.9924 193.964 93.2468 193.455 93.7555C192.963 94.2478 192.716 94.9206 192.716 95.7739V102.962C192.716 103.815 192.963 104.496 193.455 105.005C193.964 105.497 194.636 105.743 195.473 105.743Z" fill="#00160F"/>
<circle cx="125.059" cy="62.1515" r="9.28981" fill="#F9F6F2" stroke="#00160F" stroke-width="0.769231"/>
</svg>
