<svg width="247" height="166" viewBox="0 0 247 166" fill="none" xmlns="http://www.w3.org/2000/svg">
<rect width="247" height="166" fill="#FFF0B7"/>
<rect x="96" y="38" width="135" height="48" fill="#00160F"/>
<rect x="96" y="94" width="135" height="48" fill="#00160F"/>
<rect x="96" y="150" width="135" height="16" fill="#00160F"/>
<rect x="16.5" y="38.5" width="47" height="7" fill="white" stroke="#00160F"/>
<rect x="16.5" y="54.5" width="47" height="7" fill="white" stroke="#00160F"/>
<rect x="16.5" y="70.5" width="47" height="7" fill="white" stroke="#00160F"/>
<rect x="16.5" y="86.5" width="47" height="7" fill="white" stroke="#00160F"/>
<rect x="16.5" y="102.5" width="47" height="7" fill="white" stroke="#00160F"/>
<rect x="117" y="48" width="24" height="3" fill="white"/>
<rect x="117" y="104" width="36" height="3" fill="white"/>
<circle cx="21" cy="17" r="5" fill="#00160F"/>
<circle cx="35" cy="17" r="5" fill="#00160F"/>
<circle cx="49" cy="17" r="5" fill="#00160F"/>
<line x1="80.5" y1="38" x2="80.5" y2="166" stroke="#00160F"/>
<circle cx="107.5" cy="49.5" r="5.5" fill="white"/>
<circle cx="107.5" cy="105.5" r="5.5" fill="white"/>
</svg>
