<svg width="247" height="166" viewBox="0 0 247 166" fill="none" xmlns="http://www.w3.org/2000/svg">
<rect width="247" height="166" fill="#92C7FA"/>
<circle cx="21" cy="17" r="5" fill="#00160F"/>
<circle cx="35" cy="17" r="5" fill="#00160F"/>
<circle cx="49" cy="17" r="5" fill="#00160F"/>
<rect x="32.5" y="43.5" width="143" height="83" fill="white" stroke="#00160F"/>
<rect x="115" y="23" width="96" height="36" fill="#00160F"/>
<rect x="127" y="35" width="72" height="4" fill="#F9F6F2"/>
<rect x="127" y="43" width="48" height="4" fill="#F9F6F2"/>
<rect x="64" y="75" width="80" height="36" fill="#00160F"/>
<path d="M77.5063 110.5C77.8221 97.9054 90.0337 87.6687 104 87.6687C117.966 87.6687 130.178 97.9054 130.494 110.5H77.5063Z" fill="#F9F6F2" stroke="#00160F"/>
<path d="M122 59H132L127 64L122 69V59Z" fill="#00160F"/>
<rect x="162.5" y="76.5" width="51" height="71" fill="white" stroke="#00160F"/>
<path d="M176.179 88.6499C176.349 88.5859 176.509 88.5539 176.659 88.5539H179.731C179.837 88.5539 179.923 88.5965 179.987 88.6819C180.072 88.7459 180.115 88.8312 180.115 88.9379V110.57C180.115 110.677 180.072 110.773 179.987 110.858C179.923 110.922 179.837 110.954 179.731 110.954H176.787C176.68 110.954 176.584 110.922 176.499 110.858C176.435 110.773 176.403 110.677 176.403 110.57V92.3939C176.403 92.3512 176.381 92.3192 176.339 92.2979C176.296 92.2552 176.253 92.2445 176.211 92.2659L173.011 93.2579C172.968 93.2792 172.915 93.2899 172.851 93.2899C172.765 93.2899 172.691 93.2579 172.627 93.1939C172.584 93.1299 172.563 93.0445 172.563 92.9379L172.467 90.8259C172.467 90.6125 172.552 90.4632 172.723 90.3779L176.179 88.6499ZM195.156 99.9139C195.732 101.002 196.02 102.325 196.02 103.882C196.02 105.183 195.807 106.325 195.38 107.306C194.868 108.543 194.057 109.503 192.948 110.186C191.86 110.847 190.548 111.178 189.012 111.178C187.412 111.178 186.047 110.815 184.916 110.09C183.785 109.343 182.975 108.309 182.484 106.986C182.143 106.09 181.972 105.045 181.972 103.85V94.0899C181.972 92.9379 182.26 91.9245 182.836 91.0499C183.412 90.1752 184.212 89.5032 185.236 89.0339C186.281 88.5432 187.476 88.2979 188.82 88.2979C190.121 88.2979 191.273 88.5325 192.276 89.0019C193.3 89.4712 194.089 90.1325 194.644 90.9859C195.22 91.8392 195.508 92.8205 195.508 93.9299V94.6339C195.508 94.7405 195.465 94.8365 195.38 94.9219C195.316 94.9859 195.231 95.0179 195.124 95.0179H192.18C192.073 95.0179 191.977 94.9859 191.892 94.9219C191.828 94.8365 191.796 94.7405 191.796 94.6339V94.4099C191.796 93.5565 191.508 92.8632 190.932 92.3299C190.377 91.7752 189.663 91.4979 188.788 91.4979C187.892 91.4979 187.145 91.7859 186.548 92.3619C185.972 92.9165 185.684 93.6419 185.684 94.5379V98.0259C185.684 98.0899 185.705 98.1325 185.748 98.1539C185.791 98.1752 185.833 98.1645 185.876 98.1219C186.772 97.2472 188.009 96.8099 189.588 96.8099C190.847 96.8099 191.945 97.0765 192.884 97.6099C193.844 98.1432 194.601 98.9112 195.156 99.9139ZM191.828 106.218C192.148 105.578 192.308 104.821 192.308 103.946C192.308 102.986 192.127 102.165 191.764 101.482C191.167 100.458 190.239 99.9459 188.98 99.9459C187.657 99.9459 186.719 100.479 186.164 101.546C185.844 102.186 185.684 103.018 185.684 104.042C185.684 104.917 185.823 105.631 186.1 106.186C186.612 107.359 187.572 107.946 188.98 107.946C190.324 107.946 191.273 107.37 191.828 106.218ZM200.909 100.138C200.248 100.138 199.704 99.9245 199.277 99.4979C198.851 99.0712 198.637 98.5272 198.637 97.8659C198.637 97.2045 198.851 96.6605 199.277 96.2339C199.704 95.8072 200.248 95.5939 200.909 95.5939C201.571 95.5939 202.104 95.8072 202.509 96.2339C202.936 96.6605 203.149 97.2045 203.149 97.8659C203.149 98.5272 202.936 99.0712 202.509 99.4979C202.083 99.9245 201.549 100.138 200.909 100.138ZM200.909 110.698C200.248 110.698 199.704 110.485 199.277 110.058C198.851 109.631 198.637 109.087 198.637 108.426C198.637 107.765 198.851 107.221 199.277 106.794C199.704 106.367 200.248 106.154 200.909 106.154C201.571 106.154 202.104 106.367 202.509 106.794C202.936 107.221 203.149 107.765 203.149 108.426C203.149 109.087 202.936 109.631 202.509 110.058C202.083 110.485 201.549 110.698 200.909 110.698Z" fill="#00160F"/>
<path d="M185.779 128.39C186.205 129.414 186.419 130.587 186.419 131.91C186.419 133.105 186.237 134.161 185.875 135.078C185.384 136.422 184.573 137.467 183.443 138.214C182.312 138.939 180.947 139.302 179.347 139.302C177.768 139.302 176.392 138.907 175.219 138.118C174.067 137.307 173.245 136.219 172.755 134.854C172.499 134.193 172.349 133.329 172.307 132.262C172.307 132.006 172.435 131.878 172.691 131.878H175.667C175.923 131.878 176.051 132.006 176.051 132.262C176.093 132.945 176.2 133.489 176.371 133.894C176.563 134.577 176.915 135.121 177.427 135.526C177.96 135.91 178.6 136.102 179.347 136.102C180.755 136.102 181.725 135.462 182.259 134.182C182.536 133.563 182.675 132.763 182.675 131.782C182.675 130.694 182.515 129.798 182.195 129.094C181.64 127.899 180.68 127.302 179.315 127.302C178.952 127.302 178.461 127.515 177.843 127.942C177.757 127.985 177.683 128.006 177.619 128.006C177.512 128.006 177.405 127.942 177.299 127.814L175.827 125.766C175.763 125.659 175.731 125.574 175.731 125.51C175.731 125.403 175.773 125.307 175.859 125.222L181.139 120.038C181.181 119.995 181.192 119.953 181.171 119.91C181.149 119.867 181.107 119.846 181.043 119.846H173.043C172.936 119.846 172.84 119.814 172.755 119.75C172.691 119.665 172.659 119.569 172.659 119.462V117.03C172.659 116.923 172.691 116.838 172.755 116.774C172.84 116.689 172.936 116.646 173.043 116.646H185.811C185.917 116.646 186.003 116.689 186.067 116.774C186.152 116.838 186.195 116.923 186.195 117.03V119.814C186.195 120.006 186.131 120.166 186.003 120.294L181.427 124.902C181.341 124.987 181.384 125.051 181.555 125.094C183.539 125.371 184.947 126.47 185.779 128.39ZM195.115 139.398C192.875 139.398 191.093 138.769 189.771 137.51C188.469 136.23 187.819 134.513 187.819 132.358V123.334C187.819 121.201 188.469 119.515 189.771 118.278C191.093 117.019 192.875 116.39 195.115 116.39C197.355 116.39 199.136 117.019 200.459 118.278C201.803 119.515 202.475 121.201 202.475 123.334V132.358C202.475 134.513 201.803 136.23 200.459 137.51C199.136 138.769 197.355 139.398 195.115 139.398ZM195.115 136.166C196.224 136.166 197.109 135.846 197.771 135.206C198.432 134.545 198.763 133.659 198.763 132.55V123.206C198.763 122.097 198.432 121.222 197.771 120.582C197.109 119.921 196.224 119.59 195.115 119.59C194.027 119.59 193.152 119.921 192.491 120.582C191.851 121.222 191.531 122.097 191.531 123.206V132.55C191.531 133.659 191.851 134.545 192.491 135.206C193.152 135.846 194.027 136.166 195.115 136.166Z" fill="#00160F"/>
<circle cx="103.577" cy="79.0969" r="12.0768" fill="#F9F6F2" stroke="#00160F"/>
</svg>
