<svg width="30" height="30" viewBox="0 0 30 30" fill="none" xmlns="http://www.w3.org/2000/svg">
<path d="M23.7958 9.42787V10.6769H18.3214V9.42787H23.7958ZM19.5428 18.9958C19.9463 19.3551 20.524 19.5347 21.2668 19.5347C21.8078 19.5347 22.2754 19.415 22.6697 19.1583C23.064 18.9102 23.2933 18.6365 23.385 18.3541H25.76C25.3932 19.4492 24.7971 20.2362 24.0177 20.7068C23.2383 21.1858 22.2938 21.4168 21.1934 21.4168C20.4323 21.4168 19.7446 21.3056 19.1118 21.0746C18.4975 20.8436 17.9748 20.5186 17.5346 20.0994C17.1128 19.6802 16.7827 19.1754 16.5443 18.5851C16.3151 17.9948 16.205 17.3447 16.205 16.6431C16.205 15.9502 16.3242 15.3257 16.5718 14.7354C16.8194 14.1365 17.1678 13.6403 17.5988 13.204C18.0573 12.7677 18.58 12.4341 19.1944 12.1774C19.8088 11.9208 20.4782 11.8096 21.2301 11.8096C22.0645 11.8096 22.7798 11.9465 23.4125 12.2544C24.0269 12.5453 24.5312 12.9559 24.9347 13.4521C25.3382 13.9569 25.6224 14.5301 25.7966 15.1802C25.9709 15.8219 26.0259 16.4977 25.9892 17.2163H18.9376C18.9376 17.9349 19.1944 18.6193 19.5887 18.9872L19.5428 18.9958ZM22.6211 14.1956C22.3002 13.8705 21.7592 13.6908 21.0989 13.6908C20.6771 13.6908 20.3195 13.7507 20.0352 13.8961C19.751 14.0245 19.5309 14.1956 19.3567 14.4009C19.1825 14.6062 19.0632 14.8115 18.9899 15.0425C18.9257 15.2649 18.8799 15.4703 18.8707 15.6499H23.2355C23.1713 15.0083 22.9329 14.5378 22.6211 14.2041V14.1956ZM10.3638 8.5835C11.0057 8.5835 11.5926 8.63483 12.1245 8.74604C12.6563 8.85726 13.1056 9.02836 13.4816 9.26789C13.8575 9.50743 14.1602 9.82397 14.3619 10.2261C14.5728 10.6281 14.6737 11.1243 14.6737 11.7061C14.6737 12.3391 14.5178 12.8695 14.2152 13.2973C13.9034 13.725 13.4449 14.0672 12.8305 14.341C13.665 14.5634 14.2794 14.957 14.692 15.513C15.0955 16.0777 15.2972 16.7535 15.2972 17.532C15.2972 18.1736 15.178 18.7212 14.9212 19.1831C14.6645 19.6536 14.3069 20.0386 13.8575 20.338C13.4174 20.6375 12.8947 20.8513 12.3262 20.9968C11.7668 21.1337 11.18 21.2107 10.5748 21.2107H4V8.59205H10.3638V8.5835ZM9.97872 13.672C10.5014 13.672 10.9415 13.5608 11.29 13.3212C11.6293 13.0903 11.7943 12.7053 11.7943 12.1749C11.7943 11.884 11.7302 11.6359 11.6293 11.4477C11.5101 11.2595 11.3542 11.1141 11.1708 11.0114C10.9782 10.9087 10.7582 10.8317 10.5106 10.789C10.263 10.7462 9.99706 10.7291 9.7403 10.7291H6.96185V13.672H9.97872ZM6.97102 15.5781V19.0428H10.1438V19.0343C10.4372 19.0343 10.7123 19.0086 10.9782 18.9487C11.2442 18.8974 11.4734 18.8118 11.6751 18.6921C11.8677 18.5809 12.0328 18.4183 12.152 18.1959C12.2712 17.9906 12.3262 17.7082 12.3262 17.3746C12.3262 16.733 12.1245 16.271 11.7393 15.9887C11.345 15.7149 10.8315 15.5781 10.1896 15.5781H6.97102Z" fill="#00160F"/>
</svg>
