<svg width="304" height="172" viewBox="0 0 304 172" fill="none" xmlns="http://www.w3.org/2000/svg">
<rect width="304" height="172" fill="#F9F6F2"/>
<g clip-path="url(#clip0_535_405)">
<rect x="65.1445" y="13.442" width="53.0597" height="84.1637" fill="#F9F6F2"/>
<path d="M93.0895 59.787H81.7257V80.442H70.9694V27.7682H96.806C100.499 27.8397 103.334 28.2923 105.311 29.1262C107.312 29.96 109.004 31.1869 110.385 32.8069C111.529 34.141 112.434 35.6181 113.101 37.2381C113.768 38.8581 114.102 40.7044 114.102 42.777C114.102 45.2785 113.471 47.7442 112.208 50.1742C110.945 52.5804 108.861 54.2838 105.954 55.2844C108.384 56.2611 110.099 57.6548 111.1 59.4654C112.124 61.2522 112.637 63.9919 112.637 67.6845V71.2223C112.637 73.6285 112.732 75.2604 112.923 76.118C113.208 77.476 113.876 78.4766 114.924 79.1198V80.442H102.809C102.476 79.2747 102.238 78.3336 102.095 77.6189C101.809 76.1419 101.654 74.6291 101.63 73.0805L101.559 68.1848C101.511 64.8257 100.892 62.5863 99.7005 61.4666C98.5332 60.3469 96.3295 59.787 93.0895 59.787ZM99.772 50.21C101.964 49.2094 103.06 47.232 103.06 44.2779C103.06 41.0856 102 38.9414 99.8792 37.8456C98.688 37.2262 96.9013 36.9165 94.5189 36.9165H81.7257V51.0676H94.1973C96.6749 51.0676 98.5332 50.7817 99.772 50.21Z" fill="#C63636"/>
<rect x="13" y="13.442" width="53.0597" height="84.1637" fill="#F9F6F2"/>
<path d="M49.4142 69.6142H30.01L26.365 80.442H14.8582L33.655 27.7682H46.0909L64.7447 80.442H52.8091L49.4142 69.6142ZM46.341 60.5375L39.7657 39.811L32.976 60.5375H46.341Z" fill="#C63636"/>
<rect x="117.29" y="13.442" width="44.8263" height="84.1637" fill="#F9F6F2"/>
<path d="M161.137 27.7682V37.0951H145.378V80.442H134.3V37.0951H118.469V27.7682H161.137Z" fill="#C63636"/>
</g>
<rect x="13.5099" y="26.302" width="148.096" height="55.6992" stroke="#C63636" stroke-width="1.0198"/>
<g clip-path="url(#clip1_535_405)">
<rect x="157.085" y="81.1389" width="44.8263" height="84.1637" fill="#F9F6F2"/>
<path d="M200.003 104.792H173.595V116.906H196.715V126.054H173.595V148.139H162.66V95.5366H200.003V104.792Z" fill="#C63636"/>
<rect x="13" y="81.1389" width="44.8263" height="84.1637" fill="#F9F6F2"/>
<path d="M56.8472 95.4651V104.792H41.0879V148.139H30.01V104.792H14.1793V95.4651H56.8472Z" fill="#C63636"/>
<rect x="200.996" y="81.1389" width="44.8263" height="84.1637" fill="#F9F6F2"/>
<path d="M244.843 95.4651V104.792H229.084V148.139H218.006V104.792H202.175V95.4651H244.843Z" fill="#C63636"/>
<rect x="56.9111" y="81.1389" width="53.0597" height="84.1637" fill="#F9F6F2"/>
<path d="M93.8971 148.139V124.625H73.3136V148.139H62.4144V95.4651H73.3136V115.548H93.8971V95.4651H104.832V148.139H93.8971Z" fill="#C63636"/>
<rect x="109.057" y="81.1389" width="48.943" height="84.1637" fill="#F9F6F2"/>
<path d="M151.296 125.125H125.709V138.669H154.869V148.139H114.953V95.4651H153.583V104.792H125.709V115.977H151.296V125.125Z" fill="#C63636"/>
</g>
<rect x="13.5099" y="93.9989" width="231.803" height="55.6992" stroke="#C63636" stroke-width="1.0198"/>
<line x1="176.296" y1="25.9995" x2="185.444" y2="25.9995" stroke="#00160F" stroke-width="0.5"/>
<line x1="157.273" y1="82.2611" x2="197.173" y2="82.2611" stroke="#00160F" stroke-width="0.5"/>
<line x1="162.116" y1="82.2824" x2="185.276" y2="82.2824" stroke="#00160F" stroke-width="0.457411" stroke-dasharray="0.91 0.91"/>
<line x1="162.116" y1="25.9995" x2="275.554" y2="25.9995" stroke="#00160F" stroke-width="0.5" stroke-dasharray="0.91 0.91"/>
<line x1="162.116" y1="93.239" x2="275.554" y2="93.239" stroke="#00160F" stroke-width="0.5" stroke-dasharray="0.91 0.91"/>
<line x1="185.694" y1="25.7921" x2="185.694" y2="82.5111" stroke="#00160F" stroke-width="0.5"/>
<line x1="275.804" y1="25.7921" x2="275.804" y2="93.489" stroke="#00160F" stroke-width="0.5"/>
<line x1="196.946" y1="82" x2="196.946" y2="93" stroke="#00160F" stroke-width="0.5"/>
<line x1="176.296" y1="82.2734" x2="185.444" y2="82.2734" stroke="#00160F" stroke-width="0.475507"/>
<line x1="157.273" y1="93.239" x2="197.173" y2="93.239" stroke="#00160F" stroke-width="0.5"/>
<path d="M189.894 60.2052H190.984V57.3252H191.044C191.344 57.9452 191.844 58.3252 192.604 58.3252C193.814 58.3252 194.594 57.3952 194.594 55.6252C194.594 53.8552 193.814 52.9252 192.604 52.9252C191.844 52.9252 191.344 53.3052 191.044 53.9252H190.984V53.0452H189.894V60.2052ZM192.154 57.4352C191.524 57.4352 190.984 57.1152 190.984 56.4852V54.7652C190.984 54.1352 191.524 53.8152 192.154 53.8152C192.974 53.8152 193.444 54.3652 193.444 55.2052V56.0452C193.444 56.8852 192.974 57.4352 192.154 57.4352ZM197.642 58.3252C199.162 58.3252 200.092 57.2752 200.092 55.6252C200.092 53.9752 199.162 52.9252 197.642 52.9252C196.122 52.9252 195.192 53.9752 195.192 55.6252C195.192 57.2752 196.122 58.3252 197.642 58.3252ZM197.642 57.4652C196.852 57.4652 196.332 56.9752 196.332 56.0152V55.2352C196.332 54.2752 196.852 53.7852 197.642 53.7852C198.432 53.7852 198.952 54.2752 198.952 55.2352V56.0152C198.952 56.9752 198.432 57.4652 197.642 57.4652ZM203.501 52.1052C204.041 52.1052 204.241 51.8452 204.241 51.5152V51.3052C204.241 50.9752 204.041 50.7152 203.491 50.7152C202.951 50.7152 202.751 50.9752 202.751 51.3052V51.5152C202.751 51.8452 202.951 52.1052 203.501 52.1052ZM201.191 58.2052H205.691V57.3252H204.041V53.0452H201.191V53.9252H202.951V57.3252H201.191V58.2052ZM207.65 58.2052V54.7052C207.65 54.1052 208.21 53.8152 208.77 53.8152C209.47 53.8152 209.84 54.2252 209.84 55.0452V58.2052H210.93V54.8852C210.93 53.6352 210.23 52.9252 209.19 52.9252C208.34 52.9252 207.92 53.3852 207.7 53.9252H207.65V53.0452H206.56V58.2052H207.65ZM216.538 58.2052V57.3252H214.338V53.9252H216.538V53.0452H214.338V51.2252H213.318V52.5152C213.318 52.9152 213.168 53.0452 212.788 53.0452H211.658V53.9252H213.248V56.8952C213.248 57.6652 213.668 58.2052 214.568 58.2052H216.538ZM225.346 58.3252C226.756 58.3252 227.616 57.6952 227.616 56.6552C227.616 55.5952 226.716 55.3152 225.896 55.1952L225.076 55.0652C224.646 55.0052 224.286 54.8852 224.286 54.4452C224.286 53.9952 224.666 53.7552 225.376 53.7552C226.186 53.7552 226.656 54.0652 226.926 54.3752L227.536 53.7352C227.066 53.2252 226.376 52.9252 225.416 52.9252C224.096 52.9252 223.216 53.4852 223.216 54.5352C223.216 55.5952 224.126 55.8852 224.936 56.0052L225.756 56.1352C226.196 56.1952 226.546 56.3152 226.546 56.7552C226.546 57.2652 226.066 57.4952 225.366 57.4952C224.596 57.4952 224.046 57.2252 223.596 56.7352L222.926 57.3352C223.416 57.9352 224.236 58.3252 225.346 58.3252ZM231.194 52.1052C231.734 52.1052 231.934 51.8452 231.934 51.5152V51.3052C231.934 50.9752 231.734 50.7152 231.184 50.7152C230.644 50.7152 230.444 50.9752 230.444 51.3052V51.5152C230.444 51.8452 230.644 52.1052 231.194 52.1052ZM228.884 58.2052H233.384V57.3252H231.734V53.0452H228.884V53.9252H230.644V57.3252H228.884V58.2052ZM238.643 58.2052V57.3252H235.403L238.543 54.0052V53.0452H234.293V53.9252H237.323L234.183 57.2452V58.2052H238.643ZM242.062 58.3252C243.122 58.3252 243.842 57.8552 244.192 57.2552L243.512 56.6552C243.222 57.1352 242.742 57.4452 242.082 57.4452C241.192 57.4452 240.652 56.8752 240.652 56.0652V55.8952H244.352V55.4852C244.352 53.9652 243.432 52.9252 241.982 52.9252C240.512 52.9252 239.552 53.9752 239.552 55.6352C239.552 57.2752 240.482 58.3252 242.062 58.3252ZM241.982 53.7552C242.742 53.7552 243.242 54.2852 243.242 55.0952V55.1952H240.652V55.1252C240.652 54.3252 241.202 53.7552 241.982 53.7552Z" fill="#00160F"/>
<path d="M280.696 31.172L281.636 31.172L281.636 27.992L287.676 27.992L287.676 26.872L280.696 26.872L280.696 31.172ZM280.576 34.4407C280.576 35.5007 281.046 36.2207 281.646 36.5707L282.246 35.8907C281.766 35.6007 281.456 35.1207 281.456 34.4607C281.456 33.5707 282.026 33.0307 282.836 33.0307L283.006 33.0307L283.006 36.7307L283.416 36.7307C284.936 36.7307 285.976 35.8107 285.976 34.3607C285.976 32.8907 284.926 31.9307 283.266 31.9307C281.626 31.9307 280.576 32.8607 280.576 34.4407ZM285.146 34.3607C285.146 35.1207 284.616 35.6207 283.806 35.6207L283.706 35.6207L283.706 33.0307L283.776 33.0307C284.576 33.0307 285.146 33.5807 285.146 34.3607ZM280.696 42.4594L281.556 42.4594L281.556 41.8094L284.146 41.8094C285.326 41.8094 285.976 41.0094 285.976 39.7094C285.976 38.6194 285.506 37.9194 284.946 37.6294L284.416 38.2794C284.846 38.5594 285.126 38.9494 285.126 39.6094C285.126 40.3494 284.766 40.7194 284.076 40.7194L283.676 40.7194L283.676 39.7294C283.676 38.1994 283.136 37.4694 282.136 37.4694C281.166 37.4694 280.576 38.1494 280.576 39.1994C280.576 40.0094 280.946 40.5494 281.566 40.7494L281.566 40.7994C281.046 40.8594 280.696 41.1694 280.696 41.7894L280.696 42.4594ZM281.376 39.5094C281.376 38.9294 281.616 38.5694 282.076 38.5694L282.276 38.5694C282.736 38.5694 282.986 38.9494 282.986 39.7494L282.986 40.7194L282.236 40.7194C281.726 40.7194 281.376 40.2094 281.376 39.5094ZM280.696 46.5281L280.696 47.6181L288.096 47.6181L288.096 46.5281L284.976 46.5281L284.976 46.4681C285.596 46.1681 285.976 45.6681 285.976 44.9081C285.976 43.6981 285.046 42.9181 283.276 42.9181C281.506 42.9181 280.576 43.6981 280.576 44.9081C280.576 45.6681 280.956 46.1681 281.576 46.4681L281.576 46.5281L280.696 46.5281ZM281.466 45.3581C281.466 44.5381 282.016 44.0681 282.856 44.0681L283.696 44.0681C284.536 44.0681 285.086 44.5381 285.086 45.3581C285.086 45.9881 284.766 46.5281 284.136 46.5281L282.416 46.5281C281.786 46.5281 281.466 45.9881 281.466 45.3581ZM286.796 51.2668C286.796 51.8068 287.056 52.0068 287.386 52.0068L287.596 52.0068C287.926 52.0068 288.186 51.8068 288.186 51.2568C288.186 50.7168 287.926 50.5168 287.596 50.5168L287.386 50.5168C287.056 50.5168 286.796 50.7168 286.796 51.2668ZM280.696 48.9568L280.696 53.4568L281.576 53.4568L281.576 51.8068L285.856 51.8068L285.856 48.9568L284.976 48.9568L284.976 50.7168L281.576 50.7168L281.576 48.9568L280.696 48.9568ZM280.696 55.4155L284.196 55.4155C284.796 55.4155 285.086 55.9755 285.086 56.5355C285.086 57.2355 284.676 57.6055 283.856 57.6055L280.696 57.6055L280.696 58.6955L284.016 58.6955C285.266 58.6955 285.976 57.9955 285.976 56.9555C285.976 56.1055 285.516 55.6855 284.976 55.4655L284.976 55.4155L285.856 55.4155L285.856 54.3255L280.696 54.3255L280.696 55.4155ZM280.136 64.7241C280.986 64.7241 281.566 64.1541 281.566 62.7641L281.566 61.6041C281.566 61.1541 281.606 60.8041 281.926 60.8041C282.206 60.8041 282.366 61.1041 282.426 61.3441C282.386 61.5441 282.366 61.7541 282.366 61.9841C282.366 63.2541 283.066 64.0841 284.166 64.0841C284.786 64.0841 285.266 63.8341 285.576 63.3841L285.816 63.3841L285.816 64.5841L286.676 64.5841L286.676 63.6441C286.676 63.1841 286.376 62.9541 285.976 62.9541L285.806 62.9541C285.916 62.6741 285.976 62.3441 285.976 61.9841C285.976 60.7141 285.266 59.8841 284.166 59.8841C283.426 59.8841 282.876 60.2541 282.586 60.8741L282.536 60.8741C282.406 60.3341 282.176 59.9441 281.666 59.9441C281.276 59.9441 281.046 60.1641 280.916 60.5141L280.816 60.5141C280.666 59.9441 280.376 59.6141 279.816 59.6141C279.046 59.6141 278.576 60.2341 278.576 62.0141C278.576 63.8341 279.076 64.7241 280.136 64.7241ZM280.066 63.7041C279.596 63.7041 279.346 63.2541 279.346 62.4341L279.346 61.6241C279.346 60.8641 279.666 60.5641 280.056 60.5641C280.326 60.5641 280.516 60.6941 280.636 60.9441L280.636 62.7341C280.636 63.4641 280.416 63.7041 280.066 63.7041ZM283.116 61.9841C283.116 61.2841 283.486 60.9541 284.036 60.9541L284.306 60.9541C284.856 60.9541 285.226 61.2841 285.226 61.9841C285.226 62.6841 284.856 63.0141 284.306 63.0141L284.036 63.0141C283.486 63.0141 283.116 62.6841 283.116 61.9841ZM279.316 66.3628L288.296 69.7328L288.296 68.7628L279.316 65.3928L279.316 66.3628ZM280.696 75.4815L281.636 75.4815L281.636 72.3015L287.676 72.3015L287.676 71.1815L280.696 71.1815L280.696 75.4815ZM286.796 78.9602C286.796 79.5002 287.056 79.7002 287.386 79.7002L287.596 79.7002C287.926 79.7002 288.186 79.5002 288.186 78.9502C288.186 78.4102 287.926 78.2102 287.596 78.2102L287.386 78.2102C287.056 78.2102 286.796 78.4102 286.796 78.9602ZM280.696 76.6502L280.696 81.1502L281.576 81.1502L281.576 79.5002L285.856 79.5002L285.856 76.6502L284.976 76.6502L284.976 78.4102L281.576 78.4102L281.576 76.6502L280.696 76.6502ZM280.696 83.1089L284.196 83.1089C284.796 83.1089 285.086 83.6689 285.086 84.2289C285.086 84.9289 284.676 85.2989 283.856 85.2989L280.696 85.2989L280.696 86.3889L284.016 86.3889C285.266 86.3889 285.976 85.6889 285.976 84.6489C285.976 83.7989 285.516 83.3789 284.976 83.1589L284.976 83.1089L285.856 83.1089L285.856 82.0189L280.696 82.0189L280.696 83.1089ZM280.576 89.8275C280.576 90.8875 281.046 91.6075 281.646 91.9575L282.246 91.2775C281.766 90.9875 281.456 90.5075 281.456 89.8475C281.456 88.9575 282.026 88.4175 282.836 88.4175L283.006 88.4175L283.006 92.1175L283.416 92.1175C284.936 92.1175 285.976 91.1975 285.976 89.7475C285.976 88.2775 284.926 87.3175 283.266 87.3175C281.626 87.3175 280.576 88.2475 280.576 89.8275ZM285.146 89.7475C285.146 90.5075 284.616 91.0075 283.806 91.0075L283.706 91.0075L283.706 88.4175L283.776 88.4175C284.576 88.4175 285.146 88.9675 285.146 89.7475ZM280.696 98.6349L280.696 99.7249L284.196 99.7249C284.796 99.7249 285.086 100.285 285.086 100.845C285.086 101.545 284.676 101.915 283.856 101.915L280.696 101.915L280.696 103.005L284.016 103.005C285.266 103.005 285.976 102.305 285.976 101.265C285.976 100.415 285.516 99.9949 284.976 99.7749L284.976 99.7249L288.096 99.7249L288.096 98.6349L280.696 98.6349ZM280.576 106.444C280.576 107.504 281.046 108.224 281.646 108.574L282.246 107.894C281.766 107.604 281.456 107.124 281.456 106.464C281.456 105.574 282.026 105.034 282.836 105.034L283.006 105.034L283.006 108.734L283.416 108.734C284.936 108.734 285.976 107.814 285.976 106.364C285.976 104.894 284.926 103.934 283.266 103.934C281.626 103.934 280.576 104.864 280.576 106.444ZM285.146 106.364C285.146 107.124 284.616 107.624 283.806 107.624L283.706 107.624L283.706 105.034L283.776 105.034C284.576 105.034 285.146 105.584 285.146 106.364ZM286.796 112.192C286.796 112.732 287.056 112.932 287.386 112.932L287.596 112.932C287.926 112.932 288.186 112.732 288.186 112.182C288.186 111.642 287.926 111.442 287.596 111.442L287.386 111.442C287.056 111.442 286.796 111.642 286.796 112.192ZM280.696 109.882L280.696 114.382L281.576 114.382L281.576 112.732L285.856 112.732L285.856 109.882L284.976 109.882L284.976 111.642L281.576 111.642L281.576 109.882L280.696 109.882ZM280.136 120.111C280.986 120.111 281.566 119.541 281.566 118.151L281.566 116.991C281.566 116.541 281.606 116.191 281.926 116.191C282.206 116.191 282.366 116.491 282.426 116.731C282.386 116.931 282.366 117.141 282.366 117.371C282.366 118.641 283.066 119.471 284.166 119.471C284.786 119.471 285.266 119.221 285.576 118.771L285.816 118.771L285.816 119.971L286.676 119.971L286.676 119.031C286.676 118.571 286.376 118.341 285.976 118.341L285.806 118.341C285.916 118.061 285.976 117.731 285.976 117.371C285.976 116.101 285.266 115.271 284.166 115.271C283.426 115.271 282.876 115.641 282.586 116.261L282.536 116.261C282.406 115.721 282.176 115.331 281.666 115.331C281.276 115.331 281.046 115.551 280.916 115.901L280.816 115.901C280.666 115.331 280.376 115.001 279.816 115.001C279.046 115.001 278.576 115.621 278.576 117.401C278.576 119.221 279.076 120.111 280.136 120.111ZM280.066 119.091C279.596 119.091 279.346 118.641 279.346 117.821L279.346 117.011C279.346 116.251 279.666 115.951 280.056 115.951C280.326 115.951 280.516 116.081 280.636 116.331L280.636 118.121C280.636 118.851 280.416 119.091 280.066 119.091ZM283.116 117.371C283.116 116.671 283.486 116.341 284.036 116.341L284.306 116.341C284.856 116.341 285.226 116.671 285.226 117.371C285.226 118.071 284.856 118.401 284.306 118.401L284.036 118.401C283.486 118.401 283.116 118.071 283.116 117.371ZM280.696 120.79L280.696 121.88L284.196 121.88C284.796 121.88 285.086 122.44 285.086 123C285.086 123.7 284.676 124.07 283.856 124.07L280.696 124.07L280.696 125.16L284.016 125.16C285.266 125.16 285.976 124.46 285.976 123.42C285.976 122.57 285.516 122.15 284.976 121.93L284.976 121.88L288.096 121.88L288.096 120.79L280.696 120.79ZM280.696 130.768L281.576 130.768L281.576 128.568L284.976 128.568L284.976 130.768L285.856 130.768L285.856 128.568L287.676 128.568L287.676 127.548L286.386 127.548C285.986 127.548 285.856 127.398 285.856 127.018L285.856 125.888L284.976 125.888L284.976 127.478L282.006 127.478C281.236 127.478 280.696 127.898 280.696 128.798L280.696 130.768Z" fill="#00160F"/>
<path d="M199.002 90.6815H203.512V89.8015H201.802V83.2815H199.002V84.1615H200.712V89.8015H199.002V90.6815ZM206.901 90.8015C207.961 90.8015 208.681 90.3315 209.031 89.7315L208.351 89.1315C208.061 89.6115 207.581 89.9215 206.921 89.9215C206.031 89.9215 205.491 89.3515 205.491 88.5415V88.3715H209.191V87.9615C209.191 86.4415 208.271 85.4015 206.821 85.4015C205.351 85.4015 204.391 86.4515 204.391 88.1115C204.391 89.7515 205.321 90.8015 206.901 90.8015ZM206.821 86.2315C207.581 86.2315 208.081 86.7615 208.081 87.5715V87.6715H205.491V87.6015C205.491 86.8015 206.041 86.2315 206.821 86.2315ZM214.919 90.6815V89.8215H214.269V87.2315C214.269 86.0515 213.469 85.4015 212.169 85.4015C211.079 85.4015 210.379 85.8715 210.089 86.4315L210.739 86.9615C211.019 86.5315 211.409 86.2515 212.069 86.2515C212.809 86.2515 213.179 86.6115 213.179 87.3015V87.7015H212.189C210.659 87.7015 209.929 88.2415 209.929 89.2415C209.929 90.2115 210.609 90.8015 211.659 90.8015C212.469 90.8015 213.009 90.4315 213.209 89.8115H213.259C213.319 90.3315 213.629 90.6815 214.249 90.6815H214.919ZM211.969 90.0015C211.389 90.0015 211.029 89.7615 211.029 89.3015V89.1015C211.029 88.6415 211.409 88.3915 212.209 88.3915H213.179V89.1415C213.179 89.6515 212.669 90.0015 211.969 90.0015ZM218.988 90.6815H220.078V83.2815H218.988V86.4015H218.928C218.628 85.7815 218.128 85.4015 217.368 85.4015C216.158 85.4015 215.378 86.3315 215.378 88.1015C215.378 89.8715 216.158 90.8015 217.368 90.8015C218.128 90.8015 218.628 90.4215 218.928 89.8015H218.988V90.6815ZM217.818 89.9115C216.998 89.9115 216.528 89.3615 216.528 88.5215V87.6815C216.528 86.8415 216.998 86.2915 217.818 86.2915C218.448 86.2915 218.988 86.6115 218.988 87.2415V88.9615C218.988 89.5915 218.448 89.9115 217.818 89.9115ZM228.955 90.8015C230.365 90.8015 231.225 90.1715 231.225 89.1315C231.225 88.0715 230.325 87.7915 229.505 87.6715L228.685 87.5415C228.255 87.4815 227.895 87.3615 227.895 86.9215C227.895 86.4715 228.275 86.2315 228.985 86.2315C229.795 86.2315 230.265 86.5415 230.535 86.8515L231.145 86.2115C230.675 85.7015 229.985 85.4015 229.025 85.4015C227.705 85.4015 226.825 85.9615 226.825 87.0115C226.825 88.0715 227.735 88.3615 228.545 88.4815L229.365 88.6115C229.805 88.6715 230.155 88.7915 230.155 89.2315C230.155 89.7415 229.675 89.9715 228.975 89.9715C228.205 89.9715 227.655 89.7015 227.205 89.2115L226.535 89.8115C227.025 90.4115 227.845 90.8015 228.955 90.8015ZM236.764 90.6815V89.8015H234.564V86.4015H236.764V85.5215H234.564V83.7015H233.544V84.9915C233.544 85.3915 233.394 85.5215 233.014 85.5215H231.884V86.4015H233.474V89.3715C233.474 90.1415 233.894 90.6815 234.794 90.6815H236.764ZM237.783 90.6815H241.713V89.8015H240.243V87.8715C240.243 87.1515 240.713 86.5615 241.603 86.5615H242.623V85.5215H242.003C240.953 85.5215 240.503 86.1715 240.303 86.8915H240.243V85.5215H237.783V86.4015H239.153V89.8015H237.783V90.6815ZM245.881 84.5815C246.421 84.5815 246.621 84.3215 246.621 83.9915V83.7815C246.621 83.4515 246.421 83.1915 245.871 83.1915C245.331 83.1915 245.131 83.4515 245.131 83.7815V83.9915C245.131 84.3215 245.331 84.5815 245.881 84.5815ZM243.571 90.6815H248.071V89.8015H246.421V85.5215H243.571V86.4015H245.331V89.8015H243.571V90.6815ZM248.89 92.6815H249.98V89.8015H250.04C250.34 90.4215 250.84 90.8015 251.6 90.8015C252.81 90.8015 253.59 89.8715 253.59 88.1015C253.59 86.3315 252.81 85.4015 251.6 85.4015C250.84 85.4015 250.34 85.7815 250.04 86.4015H249.98V85.5215H248.89V92.6815ZM251.15 89.9115C250.52 89.9115 249.98 89.5915 249.98 88.9615V87.2415C249.98 86.6115 250.52 86.2915 251.15 86.2915C251.97 86.2915 252.44 86.8415 252.44 87.6815V88.5215C252.44 89.3615 251.97 89.9115 251.15 89.9115Z" fill="#00160F"/>
<rect x="161.543" y="82.4574" width="11.0852" height="148.085" transform="rotate(90 161.543 82.4574)" fill="#00160F" stroke="#00160F" stroke-width="0.914823"/>
<defs>
<clipPath id="clip0_535_405">
<rect x="13" y="25.7921" width="149.116" height="56.719" fill="white"/>
</clipPath>
<clipPath id="clip1_535_405">
<rect x="13" y="93.489" width="232.822" height="56.719" fill="white"/>
</clipPath>
</defs>
</svg>
