<svg width="304" height="172" viewBox="0 0 304 172" fill="none" xmlns="http://www.w3.org/2000/svg">
<g clip-path="url(#clip0_535_1347)">
<rect width="304" height="172" fill="#F9F6F2"/>
<rect width="299.603" height="171.972" transform="translate(1 2)" fill="#F9F6F2"/>
<path d="M157.5 57.5H104L109 61.5L113 83L118 122H163V117L144 108.5V76L157.5 57.5Z" fill="#C63636"/>
<mask id="mask0_535_1347" style="mask-type:alpha" maskUnits="userSpaceOnUse" x="107" y="57" width="64" height="66">
<path d="M158.476 58H110.526L107.738 65.8057L118.332 73.6115L119.447 92.0107V122.118H162.378L169.627 114.87L153.458 112.64L145.652 97.5862L147.324 78.0719L158.476 58Z" fill="#D9D9D9" stroke="black" stroke-width="1.12489"/>
</mask>
<g mask="url(#mask0_535_1347)">
<line x1="109.064" y1="119.483" x2="166.797" y2="61.7508" stroke="#C63636" stroke-width="0.569142"/>
<line x1="134.596" y1="145.016" x2="192.328" y2="87.2833" stroke="#C63636" stroke-width="0.569142"/>
<line x1="121.83" y1="132.249" x2="179.562" y2="74.517" stroke="#C63636" stroke-width="0.569142"/>
<line x1="147.363" y1="157.782" x2="205.096" y2="100.05" stroke="#C63636" stroke-width="0.569142"/>
<line x1="115.447" y1="125.866" x2="173.18" y2="68.1339" stroke="#C63636" stroke-width="0.569142"/>
<line x1="140.98" y1="151.399" x2="198.713" y2="93.6664" stroke="#C63636" stroke-width="0.569142"/>
<line x1="128.213" y1="138.632" x2="185.945" y2="80.9002" stroke="#C63636" stroke-width="0.569142"/>
<line x1="153.746" y1="164.165" x2="211.478" y2="106.433" stroke="#C63636" stroke-width="0.569142"/>
<line x1="112.256" y1="122.675" x2="169.988" y2="64.9424" stroke="#C63636" stroke-width="0.569142"/>
<line x1="137.787" y1="148.207" x2="195.519" y2="90.4748" stroke="#C63636" stroke-width="0.569142"/>
<line x1="125.021" y1="135.441" x2="182.754" y2="77.7086" stroke="#C63636" stroke-width="0.569142"/>
<line x1="150.555" y1="160.973" x2="208.287" y2="103.241" stroke="#C63636" stroke-width="0.569142"/>
<line x1="118.639" y1="129.058" x2="176.371" y2="71.3255" stroke="#C63636" stroke-width="0.569142"/>
<line x1="144.172" y1="154.59" x2="201.904" y2="96.8579" stroke="#C63636" stroke-width="0.569142"/>
<line x1="131.404" y1="141.824" x2="189.137" y2="84.0917" stroke="#C63636" stroke-width="0.569142"/>
<line x1="156.937" y1="167.356" x2="214.67" y2="109.624" stroke="#C63636" stroke-width="0.569142"/>
<line x1="110.66" y1="121.079" x2="168.392" y2="63.3466" stroke="#C63636" stroke-width="0.569142"/>
<line x1="136.191" y1="146.611" x2="193.924" y2="88.879" stroke="#C63636" stroke-width="0.569142"/>
<line x1="123.426" y1="133.845" x2="181.158" y2="76.1128" stroke="#C63636" stroke-width="0.569142"/>
<line x1="148.959" y1="159.378" x2="206.691" y2="101.645" stroke="#C63636" stroke-width="0.569142"/>
<line x1="117.043" y1="127.462" x2="174.775" y2="69.7297" stroke="#C63636" stroke-width="0.569142"/>
<line x1="142.576" y1="152.994" x2="200.308" y2="95.2622" stroke="#C63636" stroke-width="0.569142"/>
<line x1="129.809" y1="140.228" x2="187.541" y2="82.4959" stroke="#C63636" stroke-width="0.569142"/>
<line x1="155.342" y1="165.761" x2="213.074" y2="108.028" stroke="#C63636" stroke-width="0.569142"/>
<line x1="113.852" y1="124.27" x2="171.584" y2="66.5382" stroke="#C63636" stroke-width="0.569142"/>
<line x1="139.383" y1="149.803" x2="197.115" y2="92.0706" stroke="#C63636" stroke-width="0.569142"/>
<line x1="126.617" y1="137.037" x2="184.349" y2="79.3044" stroke="#C63636" stroke-width="0.569142"/>
<line x1="152.15" y1="162.569" x2="209.883" y2="104.837" stroke="#C63636" stroke-width="0.569142"/>
<line x1="120.234" y1="130.654" x2="177.967" y2="72.9213" stroke="#C63636" stroke-width="0.569142"/>
<line x1="145.768" y1="156.186" x2="203.5" y2="98.4537" stroke="#C63636" stroke-width="0.569142"/>
<line x1="133" y1="143.42" x2="190.732" y2="85.6875" stroke="#C63636" stroke-width="0.569142"/>
<line x1="158.533" y1="168.952" x2="216.265" y2="111.22" stroke="#C63636" stroke-width="0.569142"/>
<line x1="83.5312" y1="93.9507" x2="141.264" y2="36.2184" stroke="#C63636" stroke-width="0.569142"/>
<line x1="96.2968" y1="106.717" x2="154.029" y2="48.9846" stroke="#C63636" stroke-width="0.569142"/>
<line x1="89.914" y1="100.334" x2="147.646" y2="42.6015" stroke="#C63636" stroke-width="0.569142"/>
<line x1="102.682" y1="113.1" x2="160.414" y2="55.3677" stroke="#C63636" stroke-width="0.569142"/>
<line x1="86.7226" y1="97.1422" x2="144.455" y2="39.4099" stroke="#C63636" stroke-width="0.569142"/>
<line x1="99.4902" y1="109.908" x2="157.222" y2="52.1762" stroke="#C63636" stroke-width="0.569142"/>
<line x1="93.1054" y1="103.525" x2="150.838" y2="45.793" stroke="#C63636" stroke-width="0.569142"/>
<line x1="80.3398" y1="90.7591" x2="138.072" y2="33.0268" stroke="#C63636" stroke-width="0.569142"/>
<line x1="105.873" y1="116.292" x2="163.605" y2="58.5593" stroke="#C63636" stroke-width="0.569142"/>
<line x1="85.1269" y1="95.5465" x2="142.859" y2="37.8142" stroke="#C63636" stroke-width="0.569142"/>
<line x1="97.8925" y1="108.313" x2="155.625" y2="50.5804" stroke="#C63636" stroke-width="0.569142"/>
<line x1="91.5097" y1="101.93" x2="149.242" y2="44.1973" stroke="#C63636" stroke-width="0.569142"/>
<line x1="104.277" y1="114.696" x2="162.01" y2="56.9635" stroke="#C63636" stroke-width="0.569142"/>
<line x1="88.3183" y1="98.738" x2="146.051" y2="41.0057" stroke="#C63636" stroke-width="0.569142"/>
<line x1="101.086" y1="111.504" x2="158.818" y2="53.7719" stroke="#C63636" stroke-width="0.569142"/>
<line x1="94.7011" y1="105.121" x2="152.433" y2="47.3888" stroke="#C63636" stroke-width="0.569142"/>
<line x1="81.9355" y1="92.3549" x2="139.668" y2="34.6226" stroke="#C63636" stroke-width="0.569142"/>
<line x1="107.469" y1="117.887" x2="165.201" y2="60.155" stroke="#C63636" stroke-width="0.569142"/>
</g>
<path d="M35.3009 122.567H52.6392V57.1656H35.3009V122.567ZM35.3009 46.9665H52.6392V31.413H35.3009V46.9665ZM80.7672 57.1656H63.8113V122.567H81.1496V85.4678C81.1496 76.5437 86.7591 70.4243 94.4084 70.4243C101.675 70.4243 105.755 75.3963 105.755 82.4081V122.567H123.093V79.8584C123.093 65.5798 114.041 55.3807 100.528 55.3807C91.6036 55.3807 85.6117 59.0779 81.1496 66.0897H80.7672V57.1656ZM164.76 124.479C185.03 124.479 198.926 109.436 198.926 89.9299C198.926 70.4243 185.03 55.3807 164.76 55.3807C144.489 55.3807 130.593 70.4243 130.593 89.9299C130.593 109.436 144.489 124.479 164.76 124.479ZM164.76 111.22C154.051 111.22 148.186 102.679 148.186 89.9299C148.186 77.1811 154.051 68.512 164.76 68.512C175.341 68.512 181.333 77.1811 181.333 89.9299C181.333 102.679 175.341 111.22 164.76 111.22ZM197.292 122.567H216.288L230.439 100.894H230.694L242.805 122.567H263.458L240.128 87.7626L260.398 57.1656H242.423L231.459 75.9063H231.204L219.602 57.1656H199.842L221.132 87.8901L197.292 122.567Z" fill="#00160F"/>
<path d="M273 121.519L273 58" stroke="#C63636" stroke-width="1.19841" stroke-linecap="round" stroke-dasharray="0 2.4"/>
<line x1="288.657" y1="57.3434" x2="19.3434" y2="57.3433" stroke="#C63636" stroke-width="0.68674" stroke-linecap="round"/>
<line x1="288.657" y1="122.343" x2="19.3434" y2="122.343" stroke="#C63636" stroke-width="0.68674" stroke-linecap="round"/>
<path d="M173.575 150.463C175.522 150.463 176.391 149 176.391 146.492C176.391 143.984 175.522 142.521 173.575 142.521C171.628 142.521 170.759 143.984 170.759 146.492C170.759 149 171.628 150.463 173.575 150.463ZM173.575 149.44C172.475 149.44 172.068 148.549 172.068 147.141V145.843C172.068 144.435 172.475 143.544 173.575 143.544C174.675 143.544 175.082 144.435 175.082 145.843V147.13C175.082 148.549 174.675 149.44 173.575 149.44ZM180.608 150.331L182.643 144.655H181.444L180.663 147.053L179.926 149.33H179.86L179.123 147.053L178.342 144.655H177.099L179.134 150.331H180.608ZM186.289 150.463C187.455 150.463 188.247 149.946 188.632 149.286L187.884 148.626C187.565 149.154 187.037 149.495 186.311 149.495C185.332 149.495 184.738 148.868 184.738 147.977V147.79H188.808V147.339C188.808 145.667 187.796 144.523 186.201 144.523C184.584 144.523 183.528 145.678 183.528 147.504C183.528 149.308 184.551 150.463 186.289 150.463ZM186.201 145.436C187.037 145.436 187.587 146.019 187.587 146.91V147.02H184.738V146.943C184.738 146.063 185.343 145.436 186.201 145.436ZM190 150.331H194.323V149.363H192.706V147.24C192.706 146.448 193.223 145.799 194.202 145.799H195.324V144.655H194.642C193.487 144.655 192.992 145.37 192.772 146.162H192.706V144.655H190V145.623H191.507V149.363H190V150.331ZM198.771 150.463C200.322 150.463 201.268 149.77 201.268 148.626C201.268 147.46 200.278 147.152 199.376 147.02L198.474 146.877C198.001 146.811 197.605 146.679 197.605 146.195C197.605 145.7 198.023 145.436 198.804 145.436C199.695 145.436 200.212 145.777 200.509 146.118L201.18 145.414C200.663 144.853 199.904 144.523 198.848 144.523C197.396 144.523 196.428 145.139 196.428 146.294C196.428 147.46 197.429 147.779 198.32 147.911L199.222 148.054C199.706 148.12 200.091 148.252 200.091 148.736C200.091 149.297 199.563 149.55 198.793 149.55C197.946 149.55 197.341 149.253 196.846 148.714L196.109 149.374C196.648 150.034 197.55 150.463 198.771 150.463ZM202.68 150.331H203.879V146.481C203.879 145.821 204.495 145.502 205.111 145.502C205.881 145.502 206.288 145.953 206.288 146.855V150.331H207.487V146.679C207.487 145.304 206.717 144.523 205.573 144.523C204.638 144.523 204.176 145.029 203.934 145.623H203.879V142.191H202.68V150.331ZM211.352 150.463C213.024 150.463 214.047 149.308 214.047 147.493C214.047 145.678 213.024 144.523 211.352 144.523C209.68 144.523 208.657 145.678 208.657 147.493C208.657 149.308 209.68 150.463 211.352 150.463ZM211.352 149.517C210.483 149.517 209.911 148.978 209.911 147.922V147.064C209.911 146.008 210.483 145.469 211.352 145.469C212.221 145.469 212.793 146.008 212.793 147.064V147.922C212.793 148.978 212.221 149.517 211.352 149.517ZM217.648 150.463C219.32 150.463 220.343 149.308 220.343 147.493C220.343 145.678 219.32 144.523 217.648 144.523C215.976 144.523 214.953 145.678 214.953 147.493C214.953 149.308 215.976 150.463 217.648 150.463ZM217.648 149.517C216.779 149.517 216.207 148.978 216.207 147.922V147.064C216.207 146.008 216.779 145.469 217.648 145.469C218.517 145.469 219.089 146.008 219.089 147.064V147.922C219.089 148.978 218.517 149.517 217.648 149.517ZM226.452 150.331V149.363H224.032V145.623H226.452V144.655H224.032V142.653H222.91V144.072C222.91 144.512 222.745 144.655 222.327 144.655H221.084V145.623H222.833V148.89C222.833 149.737 223.295 150.331 224.285 150.331H226.452Z" fill="#C63636"/>
<path d="M108.8 37.773C110.747 37.773 111.616 36.31 111.616 33.802C111.616 31.294 110.747 29.831 108.8 29.831C106.853 29.831 105.984 31.294 105.984 33.802C105.984 36.31 106.853 37.773 108.8 37.773ZM108.8 36.75C107.7 36.75 107.293 35.859 107.293 34.451V33.153C107.293 31.745 107.7 30.854 108.8 30.854C109.9 30.854 110.307 31.745 110.307 33.153V34.44C110.307 35.859 109.9 36.75 108.8 36.75ZM115.833 37.641L117.868 31.965H116.669L115.888 34.363L115.151 36.64H115.085L114.348 34.363L113.567 31.965H112.324L114.359 37.641H115.833ZM121.513 37.773C122.679 37.773 123.471 37.256 123.856 36.596L123.108 35.936C122.789 36.464 122.261 36.805 121.535 36.805C120.556 36.805 119.962 36.178 119.962 35.287V35.1H124.032V34.649C124.032 32.977 123.02 31.833 121.425 31.833C119.808 31.833 118.752 32.988 118.752 34.814C118.752 36.618 119.775 37.773 121.513 37.773ZM121.425 32.746C122.261 32.746 122.811 33.329 122.811 34.22V34.33H119.962V34.253C119.962 33.373 120.567 32.746 121.425 32.746ZM125.224 37.641H129.547V36.673H127.93V34.55C127.93 33.758 128.447 33.109 129.426 33.109H130.548V31.965H129.866C128.711 31.965 128.216 32.68 127.996 33.472H127.93V31.965H125.224V32.933H126.731V36.673H125.224V37.641ZM133.995 37.773C135.546 37.773 136.492 37.08 136.492 35.936C136.492 34.77 135.502 34.462 134.6 34.33L133.698 34.187C133.225 34.121 132.829 33.989 132.829 33.505C132.829 33.01 133.247 32.746 134.028 32.746C134.919 32.746 135.436 33.087 135.733 33.428L136.404 32.724C135.887 32.163 135.128 31.833 134.072 31.833C132.62 31.833 131.652 32.449 131.652 33.604C131.652 34.77 132.653 35.089 133.544 35.221L134.446 35.364C134.93 35.43 135.315 35.562 135.315 36.046C135.315 36.607 134.787 36.86 134.017 36.86C133.17 36.86 132.565 36.563 132.07 36.024L131.333 36.684C131.872 37.344 132.774 37.773 133.995 37.773ZM137.905 37.641H139.104V33.791C139.104 33.131 139.72 32.812 140.336 32.812C141.106 32.812 141.513 33.263 141.513 34.165V37.641H142.712V33.989C142.712 32.614 141.942 31.833 140.798 31.833C139.863 31.833 139.401 32.339 139.159 32.933H139.104V29.501H137.905V37.641ZM146.577 37.773C148.249 37.773 149.272 36.618 149.272 34.803C149.272 32.988 148.249 31.833 146.577 31.833C144.905 31.833 143.882 32.988 143.882 34.803C143.882 36.618 144.905 37.773 146.577 37.773ZM146.577 36.827C145.708 36.827 145.136 36.288 145.136 35.232V34.374C145.136 33.318 145.708 32.779 146.577 32.779C147.446 32.779 148.018 33.318 148.018 34.374V35.232C148.018 36.288 147.446 36.827 146.577 36.827ZM152.873 37.773C154.545 37.773 155.568 36.618 155.568 34.803C155.568 32.988 154.545 31.833 152.873 31.833C151.201 31.833 150.178 32.988 150.178 34.803C150.178 36.618 151.201 37.773 152.873 37.773ZM152.873 36.827C152.004 36.827 151.432 36.288 151.432 35.232V34.374C151.432 33.318 152.004 32.779 152.873 32.779C153.742 32.779 154.314 33.318 154.314 34.374V35.232C154.314 36.288 153.742 36.827 152.873 36.827ZM161.677 37.641V36.673H159.257V32.933H161.677V31.965H159.257V29.963H158.135V31.382C158.135 31.822 157.97 31.965 157.552 31.965H156.309V32.933H158.058V36.2C158.058 37.047 158.52 37.641 159.51 37.641H161.677Z" fill="#C63636"/>
<path d="M165.716 150.576L165.716 151.145L166.854 151.145L166.854 150.576L165.716 150.576ZM166.688 130.822C166.465 130.6 166.105 130.6 165.883 130.822L162.261 134.444C162.038 134.667 162.038 135.027 162.261 135.249C162.483 135.471 162.843 135.471 163.066 135.249L166.285 132.03L169.505 135.249C169.727 135.471 170.087 135.471 170.31 135.249C170.532 135.027 170.532 134.667 170.31 134.444L166.688 130.822ZM166.854 150.576L166.854 131.225L165.716 131.225L165.716 150.576L166.854 150.576Z" fill="#C63636"/>
<path d="M166.854 28.7793L166.854 28.2102L165.716 28.2102L165.716 28.7793L166.854 28.7793ZM165.883 54.224C166.105 54.4462 166.465 54.4462 166.688 54.224L170.31 50.602C170.532 50.3797 170.532 50.0194 170.31 49.7971C170.087 49.5748 169.727 49.5748 169.505 49.7971L166.285 53.0166L163.066 49.7971C162.843 49.5748 162.483 49.5748 162.261 49.7971C162.038 50.0194 162.038 50.3797 162.261 50.602L165.883 54.224ZM165.716 28.7793L165.716 53.8215L166.854 53.8215L166.854 28.7793L165.716 28.7793Z" fill="#C63636"/>
<path d="M100.835 28.7793L100.835 28.2102L99.6965 28.2102L99.6965 28.7793L100.835 28.7793ZM99.8632 53.0857C100.085 53.308 100.446 53.308 100.668 53.0857L104.29 49.4637C104.512 49.2414 104.512 48.8811 104.29 48.6588C104.068 48.4365 103.707 48.4365 103.485 48.6588L100.266 51.8784L97.0461 48.6588C96.8238 48.4365 96.4634 48.4365 96.2412 48.6588C96.0189 48.8811 96.0189 49.2414 96.2412 49.4637L99.8632 53.0857ZM99.6965 28.7793L99.6965 52.6832L100.835 52.6832L100.835 28.7793L99.6965 28.7793Z" fill="#C63636"/>
<path d="M281.938 65.07L285.678 67.292L285.678 65.983L284.303 65.169L282.884 64.377L282.884 64.322L284.303 63.53L285.678 62.749L285.678 61.352L281.938 63.563L278 61.209L278 62.518L279.518 63.42L280.97 64.256L280.97 64.322L279.518 65.136L278 66.005L278 67.402L281.938 65.07ZM280.75 72.2935L281.949 72.2935L281.949 68.9715L280.75 68.9715L280.75 72.2935ZM278 80.9215L278 82.1205L281.85 82.1205C282.51 82.1205 282.829 82.7365 282.829 83.3525C282.829 84.1225 282.378 84.5295 281.476 84.5295L278 84.5295L278 85.7285L281.652 85.7285C283.027 85.7285 283.808 84.9585 283.808 83.8145C283.808 82.8795 283.302 82.4175 282.708 82.1755L282.708 82.1205L286.14 82.1205L286.14 80.9215L278 80.9215ZM277.868 89.751C277.868 90.917 278.385 91.709 279.045 92.094L279.705 91.346C279.177 91.027 278.836 90.499 278.836 89.773C278.836 88.794 279.463 88.2 280.354 88.2L280.541 88.2L280.541 92.27L280.992 92.27C282.664 92.27 283.808 91.258 283.808 89.663C283.808 88.046 282.653 86.99 280.827 86.99C279.023 86.99 277.868 88.013 277.868 89.751ZM282.895 89.663C282.895 90.499 282.312 91.049 281.421 91.049L281.311 91.049L281.311 88.2L281.388 88.2C282.268 88.2 282.895 88.805 282.895 89.663ZM284.71 96.3145C284.71 96.9085 284.996 97.1285 285.359 97.1285L285.59 97.1285C285.953 97.1285 286.239 96.9085 286.239 96.3035C286.239 95.7095 285.953 95.4895 285.59 95.4895L285.359 95.4895C284.996 95.4895 284.71 95.7095 284.71 96.3145ZM278 93.7735L278 98.7235L278.968 98.7235L278.968 96.9085L283.676 96.9085L283.676 93.7735L282.708 93.7735L282.708 95.7095L278.968 95.7095L278.968 93.7735L278 93.7735ZM277.384 105.265C278.319 105.265 278.957 104.638 278.957 103.109L278.957 101.833C278.957 101.338 279.001 100.953 279.353 100.953C279.661 100.953 279.837 101.283 279.903 101.547C279.859 101.767 279.837 101.998 279.837 102.251C279.837 103.648 280.607 104.561 281.817 104.561C282.499 104.561 283.027 104.286 283.368 103.791L283.632 103.791L283.632 105.111L284.578 105.111L284.578 104.077C284.578 103.571 284.248 103.318 283.808 103.318L283.621 103.318C283.742 103.01 283.808 102.647 283.808 102.251C283.808 100.854 283.027 99.941 281.817 99.941C281.003 99.941 280.398 100.348 280.079 101.03L280.024 101.03C279.881 100.436 279.628 100.007 279.067 100.007C278.638 100.007 278.385 100.249 278.242 100.634L278.132 100.634C277.967 100.007 277.648 99.644 277.032 99.644C276.185 99.644 275.668 100.326 275.668 102.284C275.668 104.286 276.218 105.265 277.384 105.265ZM277.307 104.143C276.79 104.143 276.515 103.648 276.515 102.746L276.515 101.855C276.515 101.019 276.867 100.689 277.296 100.689C277.593 100.689 277.802 100.832 277.934 101.107L277.934 103.076C277.934 103.879 277.692 104.143 277.307 104.143ZM280.662 102.251C280.662 101.481 281.069 101.118 281.674 101.118L281.971 101.118C282.576 101.118 282.983 101.481 282.983 102.251C282.983 103.021 282.576 103.384 281.971 103.384L281.674 103.384C281.069 103.384 280.662 103.021 280.662 102.251ZM278 106.251L278 107.45L281.85 107.45C282.51 107.45 282.829 108.066 282.829 108.682C282.829 109.452 282.378 109.859 281.476 109.859L278 109.859L278 111.058L281.652 111.058C283.027 111.058 283.808 110.288 283.808 109.144C283.808 108.209 283.302 107.747 282.708 107.505L282.708 107.45L286.14 107.45L286.14 106.251L278 106.251ZM278 117.468L278.968 117.468L278.968 115.048L282.708 115.048L282.708 117.468L283.676 117.468L283.676 115.048L285.678 115.048L285.678 113.926L284.259 113.926C283.819 113.926 283.676 113.761 283.676 113.343L283.676 112.1L282.708 112.1L282.708 113.849L279.441 113.849C278.594 113.849 278 114.311 278 115.301L278 117.468Z" fill="#C63636"/>
</g>
<defs>
<clipPath id="clip0_535_1347">
<rect width="304" height="172" fill="white"/>
</clipPath>
</defs>
</svg>
