<svg width="16" height="16" viewBox="0 0 16 16" fill="none" xmlns="http://www.w3.org/2000/svg">
<rect width="16" height="16" fill="#00160F"/>
<path d="M13.1596 5.72386C13.1018 5.64738 13.044 5.57253 12.987 5.49605C12.8475 5.31217 12.7042 5.12179 12.5586 4.93873C12.5106 4.88351 12.4444 4.84975 12.3737 4.84435C12.2612 4.83947 12.1494 4.83947 12.0331 4.83947H11.4722V3.37499C11.4729 3.36877 11.4729 3.36249 11.4722 3.35627C11.4721 3.34843 11.4705 3.34069 11.4675 3.33355C11.4644 3.3264 11.46 3.32001 11.4545 3.31478L10.0206 2.01302C10.0114 2.00463 9.99962 2.00002 9.98745 2H7.78848C7.71951 2 7.65121 2.01436 7.5875 2.04225C7.52379 2.07015 7.46592 2.11103 7.41718 2.16257C7.36845 2.2141 7.32982 2.27528 7.30349 2.3426C7.27717 2.40991 7.26367 2.48205 7.26377 2.55488V4.84354H3.32427L3.3181 4.8891C3.28343 5.14783 3.29113 5.17793 3.43213 5.36262L3.54077 5.50418C3.70335 5.71816 3.87285 5.93946 4.03543 6.15506C4.05987 6.19161 4.0927 6.221 4.13084 6.24049C4.16897 6.25999 4.21117 6.26894 4.25347 6.26653H5.32214H5.37068H6.85233V7.51134H6.76296C6.6312 7.51134 6.49945 7.51134 6.36693 7.51134C6.03947 7.51134 5.70045 7.51134 5.36529 7.51134C5.2016 7.50986 5.03804 7.52156 4.87603 7.54632C4.39756 7.62768 4.10092 7.90105 3.9969 8.34691C3.96267 8.48894 3.94482 8.63482 3.94374 8.78137C3.94374 9.26546 3.94374 9.75769 3.94374 10.2345V10.9187C3.93798 11.0931 3.96727 11.2668 4.02969 11.4283C4.09211 11.5899 4.18623 11.7356 4.30587 11.856C4.574 12.1212 4.86832 12.3905 5.18114 12.6598C5.39533 12.8389 5.66323 12.931 5.93622 12.9193C6.09803 12.9193 6.26214 12.9193 6.42086 12.9193C6.57958 12.9193 6.74292 12.9193 6.90396 12.9193C6.99873 12.9193 7.09427 12.9193 7.18981 12.9193C7.498 12.9193 7.8062 12.9193 8.11979 12.8949C8.64449 12.86 8.98197 12.5378 9.06749 11.9886C9.09198 11.8026 9.10152 11.6148 9.096 11.4272V11.389C9.09333 11.3105 9.06247 11.236 9.0097 11.1807C8.88642 11.0562 8.76006 10.9325 8.63679 10.8121C8.45418 10.6339 8.26541 10.4493 8.08589 10.2605C7.95721 10.1263 7.82931 10.1287 7.6729 10.1458H7.62745V10.1946C7.62745 10.2922 7.62745 10.389 7.62745 10.4859C7.62745 10.7031 7.62745 10.9293 7.62745 11.1498C7.62745 11.345 7.56195 11.4109 7.37395 11.4109C6.82845 11.4109 5.7359 11.4109 5.48009 11.4109V9.79186C5.48009 9.60636 5.48009 9.41517 5.48009 9.22641C5.48009 9.09298 5.53865 9.03115 5.66809 9.02057C5.70739 9.0165 5.74514 9.0165 5.7906 9.0165H8.39023V6.27792H9.94276V7.24529C9.94276 8.71628 9.94276 10.2361 9.94276 11.7315C9.93928 11.7755 9.94586 11.8198 9.96195 11.8605C9.97804 11.9013 10.0032 11.9374 10.0352 11.9658C10.338 12.2432 10.6809 12.5565 11.0006 12.8722C11.0395 12.9138 11.086 12.9466 11.1372 12.9685C11.1885 12.9905 11.2435 13.0012 11.2988 12.9999C11.3436 12.999 11.3882 12.9941 11.4321 12.9853L11.473 12.9771V6.26409H13.279L13.2851 6.21771C13.3167 5.9419 13.3121 5.92481 13.1596 5.72386ZM9.93737 4.82889H8.79474C8.79362 4.81074 8.79362 4.79253 8.79474 4.77438V4.58807C8.79474 4.30331 8.79474 4.0096 8.79474 3.71995C8.79474 3.48808 8.84867 3.43113 9.06595 3.42868C9.28323 3.42624 9.50821 3.42868 9.72318 3.42868H9.88652C9.90397 3.42753 9.92146 3.42753 9.93891 3.42868L9.93737 4.82889Z" fill="white"/>
</svg>
