<svg width="30" height="30" viewBox="0 0 30 30" fill="none" xmlns="http://www.w3.org/2000/svg">
<mask id="path-1-inside-1_575_1331" fill="white">
<path d="M20.2145 11.8724C21.1265 11.2758 21.7325 10.3199 21.8787 9.24936C22.025 8.17975 21.6972 7.09938 20.9785 6.28536C20.259 5.47133 19.2201 5.00331 18.1265 5H11.7972C10.7037 5.00332 9.66472 5.47133 8.94521 6.28536C8.22655 7.09938 7.89872 8.17979 8.04498 9.24936C8.19123 10.3198 8.79727 11.2757 9.70927 11.8724C8.64849 12.567 8.01053 13.7403 8.01053 14.9966C8.01053 16.2529 8.64849 17.4263 9.70927 18.1208C8.59218 18.8469 7.94412 20.099 8.00379 21.4183C8.06347 22.7369 8.82165 23.9275 9.99925 24.5533C11.1769 25.1781 12.6016 25.1458 13.749 24.467C14.8963 23.789 15.5973 22.5643 15.5948 21.244V17.8078C16.3051 18.3978 17.1986 18.728 18.1266 18.7455C19.2202 18.7421 20.2591 18.2741 20.9786 17.4601C21.6974 16.6461 22.0251 15.5657 21.8789 14.4953C21.7326 13.4257 21.1265 12.4699 20.2145 11.8724ZM15.5948 6.24967H18.1266C19.5244 6.24967 20.6575 7.36823 20.6575 8.74909C20.6575 10.129 19.5245 11.2477 18.1266 11.2477H15.5948V6.24967ZM9.2663 8.74909C9.2663 7.36831 10.3994 6.24967 11.7973 6.24967H14.3291V11.2483L11.7973 11.2475C10.3994 11.2475 9.2663 10.1291 9.2663 8.74909ZM9.2663 14.9966C9.2663 13.6166 10.3994 12.4972 11.7973 12.4972H14.3291V17.4958H11.7973C10.3994 17.4958 9.2663 16.3766 9.2663 14.9966ZM14.3297 21.2441C14.3297 22.2556 13.7119 23.1668 12.7663 23.5534C11.8198 23.9401 10.7313 23.726 10.0077 23.0115C9.28312 22.2971 9.06711 21.2216 9.4588 20.2883C9.8505 19.3539 10.7734 18.7456 11.7972 18.7456H14.329L14.3297 21.2441ZM18.1264 17.496C17.1026 17.496 16.1788 16.8869 15.7872 15.9534C15.3955 15.0191 15.6123 13.9445 16.336 13.2292C17.0598 12.5148 18.1491 12.3007 19.0947 12.6874C20.0411 13.0749 20.6572 13.986 20.6572 14.9967C20.6572 15.6597 20.3908 16.2953 19.9159 16.7641C19.4418 17.2321 18.7972 17.496 18.1264 17.496Z"/>
</mask>
<path d="M20.2145 11.8724C21.1265 11.2758 21.7325 10.3199 21.8787 9.24936C22.025 8.17975 21.6972 7.09938 20.9785 6.28536C20.259 5.47133 19.2201 5.00331 18.1265 5H11.7972C10.7037 5.00332 9.66472 5.47133 8.94521 6.28536C8.22655 7.09938 7.89872 8.17979 8.04498 9.24936C8.19123 10.3198 8.79727 11.2757 9.70927 11.8724C8.64849 12.567 8.01053 13.7403 8.01053 14.9966C8.01053 16.2529 8.64849 17.4263 9.70927 18.1208C8.59218 18.8469 7.94412 20.099 8.00379 21.4183C8.06347 22.7369 8.82165 23.9275 9.99925 24.5533C11.1769 25.1781 12.6016 25.1458 13.749 24.467C14.8963 23.789 15.5973 22.5643 15.5948 21.244V17.8078C16.3051 18.3978 17.1986 18.728 18.1266 18.7455C19.2202 18.7421 20.2591 18.2741 20.9786 17.4601C21.6974 16.6461 22.0251 15.5657 21.8789 14.4953C21.7326 13.4257 21.1265 12.4699 20.2145 11.8724ZM15.5948 6.24967H18.1266C19.5244 6.24967 20.6575 7.36823 20.6575 8.74909C20.6575 10.129 19.5245 11.2477 18.1266 11.2477H15.5948V6.24967ZM9.2663 8.74909C9.2663 7.36831 10.3994 6.24967 11.7973 6.24967H14.3291V11.2483L11.7973 11.2475C10.3994 11.2475 9.2663 10.1291 9.2663 8.74909ZM9.2663 14.9966C9.2663 13.6166 10.3994 12.4972 11.7973 12.4972H14.3291V17.4958H11.7973C10.3994 17.4958 9.2663 16.3766 9.2663 14.9966ZM14.3297 21.2441C14.3297 22.2556 13.7119 23.1668 12.7663 23.5534C11.8198 23.9401 10.7313 23.726 10.0077 23.0115C9.28312 22.2971 9.06711 21.2216 9.4588 20.2883C9.8505 19.3539 10.7734 18.7456 11.7972 18.7456H14.329L14.3297 21.2441ZM18.1264 17.496C17.1026 17.496 16.1788 16.8869 15.7872 15.9534C15.3955 15.0191 15.6123 13.9445 16.336 13.2292C17.0598 12.5148 18.1491 12.3007 19.0947 12.6874C20.0411 13.0749 20.6572 13.986 20.6572 14.9967C20.6572 15.6597 20.3908 16.2953 19.9159 16.7641C19.4418 17.2321 18.7972 17.496 18.1264 17.496Z" fill="#00160F"/>
<path d="M13.9188 13.2186L13.918 13.2194L22.3348 21.7726L22.3357 21.7717L13.9188 13.2186ZM20.2145 11.8724L13.6451 1.83034L-1.6941 11.865L13.6383 21.9101L20.2145 11.8724ZM21.8787 9.24936L9.98937 7.62371L9.98919 7.62503L21.8787 9.24936ZM20.9785 6.28536L29.9738 -1.65723L29.97 -1.66156L20.9785 6.28536ZM18.1265 5L18.1629 -6.99994L18.1447 -7H18.1265V5ZM11.7972 5V-7H11.779L11.7608 -6.99994L11.7972 5ZM8.94521 6.28536L-0.0459595 -1.6619L-0.0505724 -1.65667L8.94521 6.28536ZM8.04498 9.24936L19.9345 7.62486L19.9343 7.62356L8.04498 9.24936ZM9.70927 11.8724L16.2826 21.9119L31.6217 11.8687L16.2792 1.83068L9.70927 11.8724ZM9.70927 18.1208L16.2492 28.182L31.6731 18.1563L16.2817 8.0807L9.70927 18.1208ZM8.00379 21.4183L-3.98395 21.9605L-3.98394 21.9608L8.00379 21.4183ZM9.99925 24.5533L4.36833 35.1501L4.37457 35.1534L9.99925 24.5533ZM13.749 24.467L7.6441 14.136L7.63905 14.139L13.749 24.467ZM15.5948 21.244H3.59484V21.2554L3.59486 21.2668L15.5948 21.244ZM15.5948 17.8078L23.2626 8.57706L3.59484 -7.76052V17.8078H15.5948ZM18.1266 18.7455L17.9004 30.7434L18.032 30.7459L18.1637 30.7454L18.1266 18.7455ZM20.9786 17.4601L29.9698 25.4074L29.974 25.4026L20.9786 17.4601ZM21.8789 14.4953L33.7684 12.8708L33.7683 12.8696L21.8789 14.4953ZM15.5948 6.24967V-5.75033H3.59477V6.24967H15.5948ZM15.5948 11.2477H3.59477V23.2477H15.5948V11.2477ZM14.3291 6.24967H26.3291V-5.75033H14.3291V6.24967ZM14.3291 11.2483L14.3252 23.2483L26.3291 23.2522V11.2483H14.3291ZM11.7973 11.2475L11.8012 -0.752524H11.7973V11.2475ZM14.3291 12.4972H26.3291V0.497163H14.3291V12.4972ZM14.3291 17.4958V29.4958H26.3291V17.4958H14.3291ZM14.3297 21.2441H26.3297L26.3297 21.2406L14.3297 21.2441ZM12.7663 23.5534L17.3055 34.6617L17.3077 34.6608L12.7663 23.5534ZM10.0077 23.0115L18.4388 14.4724L18.4327 14.4664L10.0077 23.0115ZM9.4588 20.2883L20.524 24.9318L20.5257 24.9276L9.4588 20.2883ZM14.329 18.7456L26.329 18.7421L26.3254 6.74563H14.329V18.7456ZM15.7872 15.9534L4.72025 20.5928L4.72168 20.5962L15.7872 15.9534ZM16.336 13.2292L7.90552 4.68956L7.90096 4.69406L16.336 13.2292ZM19.0947 12.6874L23.6416 1.58216L23.637 1.58028L19.0947 12.6874ZM19.9159 16.7641L28.3463 25.304L28.3464 25.3039L19.9159 16.7641ZM26.7839 21.9145C30.5804 19.4308 33.1476 15.4169 33.7683 10.8737L9.98919 7.62503C10.3174 5.2228 11.6726 3.12073 13.6451 1.83034L26.7839 21.9145ZM33.7681 10.875C34.3898 6.3283 32.9906 1.75938 29.9738 -1.65723L11.9832 14.228C10.4039 12.4394 9.66019 10.0312 9.98937 7.62371L33.7681 10.875ZM29.97 -1.66156C26.9623 -5.06456 22.6548 -6.98633 18.1629 -6.99994L18.0902 16.9999C15.7855 16.993 13.5558 16.0072 11.987 14.2323L29.97 -1.66156ZM18.1265 -7H11.7972V17H18.1265V-7ZM11.7608 -6.99994C7.26897 -6.98631 2.96165 -5.06457 -0.0459576 -1.6619L17.9364 14.2326C16.3678 16.0072 14.1384 16.9929 11.8336 16.9999L11.7608 -6.99994ZM-0.0505724 -1.65667C-3.0664 1.75929 -4.4662 6.32787 -3.84438 10.8752L19.9343 7.62356C20.2636 10.0317 19.5195 12.4395 17.941 14.2274L-0.0505724 -1.65667ZM-3.84456 10.8739C-3.22377 15.4173 -0.656325 19.4308 3.13937 21.9141L16.2792 1.83068C18.2509 3.12068 19.6062 5.22225 19.9345 7.62486L-3.84456 10.8739ZM3.13598 1.8329C-1.27334 4.71987 -3.98947 9.64783 -3.98947 14.9966H20.0105C20.0105 17.8327 18.5703 20.414 16.2826 21.9119L3.13598 1.8329ZM-3.98947 14.9966C-3.98947 20.3448 -1.27377 25.2735 3.13681 28.1608L16.2817 8.0807C18.5708 9.57914 20.0105 12.161 20.0105 14.9966H-3.98947ZM3.16932 8.05949C-1.47184 11.0763 -4.23818 16.3396 -3.98395 21.9605L19.9915 20.876C20.1264 23.8584 18.6562 26.6174 16.2492 28.182L3.16932 8.05949ZM-3.98394 21.9608C-3.72981 27.5759 -0.506614 32.5596 4.36833 35.1501L15.6302 13.9564C18.1499 15.2954 19.8567 17.8978 19.9915 20.8757L-3.98394 21.9608ZM4.37457 35.1534C9.23996 37.7351 15.1102 37.6043 19.8589 34.7951L7.63905 14.139C10.0931 12.6872 13.1138 12.6212 15.6239 13.9531L4.37457 35.1534ZM19.8539 34.798C24.6228 31.98 27.6055 26.8386 27.5948 21.2212L3.59486 21.2668C3.58919 18.2899 5.16991 15.598 7.6441 14.136L19.8539 34.798ZM27.5948 21.244V17.8078H3.59484V21.244H27.5948ZM7.92709 27.0384C10.7512 29.3843 14.2747 30.675 17.9004 30.7434L18.3529 6.74763C20.1225 6.781 21.859 7.41117 23.2626 8.57706L7.92709 27.0384ZM18.1637 30.7454C22.6549 30.7316 26.9621 28.8102 29.9698 25.4074L11.9874 9.51289C13.5562 7.73807 15.7855 6.75267 18.0896 6.74556L18.1637 30.7454ZM29.974 25.4026C32.9917 21.9849 34.3894 17.4161 33.7684 12.8708L9.98934 16.1197C9.66082 13.7153 10.4031 11.3073 11.9833 9.51761L29.974 25.4026ZM33.7683 12.8696C33.1467 8.32401 30.5776 4.31578 26.7906 1.83477L13.6383 21.9101C11.6754 20.6241 10.3185 18.5273 9.9895 16.1209L33.7683 12.8696ZM15.5948 18.2497H18.1266V-5.75033H15.5948V18.2497ZM18.1266 18.2497C13.0404 18.2497 8.6575 14.1382 8.6575 8.74909H32.6575C32.6575 0.598283 26.0084 -5.75033 18.1266 -5.75033V18.2497ZM8.6575 8.74909C8.6575 3.35688 13.0427 -0.752337 18.1266 -0.752337V23.2477C26.0062 23.2477 32.6575 16.9012 32.6575 8.74909H8.6575ZM18.1266 -0.752337H15.5948V23.2477H18.1266V-0.752337ZM27.5948 11.2477V6.24967H3.59477V11.2477H27.5948ZM21.2663 8.74909C21.2663 14.1381 16.8835 18.2497 11.7973 18.2497V-5.75033C3.91521 -5.75033 -2.7337 0.598533 -2.7337 8.74909H21.2663ZM11.7973 18.2497H14.3291V-5.75033H11.7973V18.2497ZM2.32907 6.24967V11.2483H26.3291V6.24967H2.32907ZM14.333 -0.751699L11.8012 -0.752524L11.7934 23.2475L14.3252 23.2483L14.333 -0.751699ZM11.7973 -0.752524C16.8793 -0.752524 21.2663 3.35509 21.2663 8.74909H-2.7337C-2.7337 16.9031 3.91956 23.2475 11.7973 23.2475V-0.752524ZM21.2663 14.9966C21.2663 20.3838 16.8862 24.4972 11.7973 24.4972V0.497163C3.91257 0.497163 -2.7337 6.84946 -2.7337 14.9966H21.2663ZM11.7973 24.4972H14.3291V0.497163H11.7973V24.4972ZM2.32907 12.4972V17.4958H26.3291V12.4972H2.32907ZM14.3291 5.4958H11.7973V29.4958H14.3291V5.4958ZM11.7973 5.4958C16.8844 5.4958 21.2663 9.60766 21.2663 14.9966H-2.7337C-2.7337 23.1456 3.91445 29.4958 11.7973 29.4958V5.4958ZM2.32972 21.2441C2.32972 17.3051 4.73115 13.8744 8.22488 12.4459L17.3077 34.6608C22.6927 32.4591 26.3297 27.2062 26.3297 21.2441H2.32972ZM8.22707 12.445C11.7016 11.0252 15.7226 11.7906 18.4388 14.4724L1.57656 31.5506C5.74004 35.6614 11.9381 36.855 17.3055 34.6617L8.22707 12.445ZM18.4327 14.4664C21.1852 17.1802 22.0386 21.3224 20.524 24.9318L-1.60636 15.6447C-3.90442 21.1208 -2.61899 27.414 1.58269 31.5566L18.4327 14.4664ZM20.5257 24.9276C19.0194 28.5209 15.5335 30.7456 11.7972 30.7456V6.74563C6.01334 6.74563 0.681633 10.1869 -1.6081 15.6489L20.5257 24.9276ZM11.7972 30.7456H14.329V6.74563H11.7972V30.7456ZM2.32899 18.7492L2.32972 21.2477L26.3297 21.2406L26.329 18.7421L2.32899 18.7492ZM18.1264 5.49599C21.8628 5.49599 25.346 7.71968 26.8526 11.3107L4.72168 20.5962C7.0117 26.0542 12.3424 29.496 18.1264 29.496V5.49599ZM26.8541 11.3141C28.369 14.9277 27.5072 19.0604 24.7711 21.7644L7.90096 4.69406C3.71742 8.82853 2.422 15.1104 4.72025 20.5928L26.8541 11.3141ZM24.7666 21.7689C22.0512 24.4496 18.0302 25.2168 14.5524 23.7945L23.637 1.58028C18.268 -0.615386 12.0683 0.579968 7.90552 4.68956L24.7666 21.7689ZM14.5478 23.7926C11.0524 22.3615 8.65725 18.9287 8.65725 14.9967H32.6572C32.6572 9.0433 29.0298 3.78831 23.6416 1.58216L14.5478 23.7926ZM8.65725 14.9967C8.65725 12.4297 9.69106 9.9958 11.4854 8.22441L28.3464 25.3039C31.0905 22.5948 32.6572 18.8897 32.6572 14.9967H8.65725ZM11.4855 8.22432C13.2718 6.46088 15.6619 5.49599 18.1264 5.49599V29.496C21.9324 29.496 25.6118 28.0034 28.3463 25.304L11.4855 8.22432Z" fill="#00160F" mask="url(#path-1-inside-1_575_1331)"/>
</svg>
