<svg width="28" height="28" viewBox="0 0 28 28" fill="none" xmlns="http://www.w3.org/2000/svg">
<path d="M14.0006 0H13.9994C6.26774 0 0 6.26774 0 13.9994V14.0006C0 21.7323 6.26774 28 13.9994 28H14.0006C21.7323 28 28 21.7323 28 14.0006V13.9994C28 6.26774 21.7323 0 14.0006 0Z" fill="#E9D3CA"/>
<path d="M24.6893 9.78624C24.5622 9.62633 24.435 9.46983 24.3096 9.30992C24.0028 8.92545 23.6875 8.52738 23.3671 8.14462C23.2616 8.02916 23.116 7.95857 22.9603 7.94728C22.7128 7.93707 22.4671 7.93708 22.2111 7.93708H20.9771V4.87497C20.9787 4.86198 20.9787 4.84884 20.9771 4.83585C20.977 4.81945 20.9735 4.80327 20.9667 4.78832C20.96 4.77338 20.9503 4.76001 20.9381 4.74909L17.7836 2.02722C17.7633 2.00969 17.7374 2.00003 17.7107 2H12.8729C12.7212 2 12.571 2.03002 12.4308 2.08835C12.2906 2.14667 12.1633 2.23216 12.0561 2.33992C11.9489 2.44767 11.8639 2.57559 11.806 2.71634C11.7481 2.85709 11.7184 3.00792 11.7186 3.1602V7.94558H3.05167L3.0381 8.04084C2.96183 8.58182 2.97878 8.64476 3.28898 9.03092L3.52798 9.32693C3.88564 9.77434 4.25856 10.2371 4.61622 10.6879C4.67 10.7643 4.74222 10.8257 4.82612 10.8665C4.91002 10.9072 5.00285 10.926 5.09593 10.9209H7.447H7.55378H10.8134V13.5237H10.6168C10.3269 13.5237 10.0371 13.5237 9.74552 13.5237C9.02511 13.5237 8.27928 13.5237 7.54192 13.5237C7.1818 13.5206 6.82197 13.5451 6.46555 13.5969C5.41291 13.767 4.7603 14.3386 4.53147 15.2708C4.45616 15.5678 4.41689 15.8728 4.41451 16.1792C4.41451 17.1914 4.41451 18.2206 4.41451 19.2175V20.6482C4.40183 21.0128 4.46628 21.376 4.6036 21.7137C4.74092 22.0515 4.948 22.3563 5.21119 22.6079C5.80108 23.1625 6.4486 23.7256 7.1368 24.2887C7.608 24.6632 8.19739 24.8558 8.79797 24.8314C9.15394 24.8314 9.51499 24.8314 9.86417 24.8314C10.2134 24.8314 10.5727 24.8314 10.927 24.8314C11.1355 24.8314 11.3457 24.8314 11.5559 24.8314C12.2339 24.8314 12.9119 24.8314 13.6018 24.7803C14.7562 24.7072 15.4986 24.0335 15.6868 22.8852C15.7406 22.4964 15.7616 22.1038 15.7495 21.7114V21.6315C15.7436 21.4674 15.6757 21.3117 15.5596 21.196C15.2884 20.9357 15.0104 20.6771 14.7392 20.4253C14.3375 20.0528 13.9222 19.6666 13.5272 19.272C13.2442 18.9913 12.9628 18.9964 12.6187 19.0321H12.5187V19.1342C12.5187 19.3383 12.5187 19.5407 12.5187 19.7432C12.5187 20.1974 12.5187 20.6703 12.5187 21.1313C12.5187 21.5396 12.3746 21.6774 11.961 21.6774C10.7609 21.6774 8.35725 21.6774 7.79449 21.6774V18.2921C7.79449 17.9042 7.79449 17.5044 7.79449 17.1098C7.79449 16.8308 7.92331 16.7015 8.20808 16.6794C8.29453 16.6709 8.37759 16.6709 8.4776 16.6709H14.1968V10.9447H17.6124V12.9674C17.6124 16.0431 17.6124 19.2209 17.6124 22.3477C17.6047 22.4397 17.6192 22.5323 17.6546 22.6175C17.69 22.7028 17.7453 22.7783 17.8158 22.8376C18.4819 23.4177 19.2362 24.0726 19.9397 24.7327C20.0251 24.8197 20.1274 24.8883 20.2402 24.9342C20.353 24.9802 20.474 25.0025 20.5957 24.9998C20.6941 24.998 20.7922 24.9877 20.8889 24.9692L20.9788 24.9522V10.9158H24.952L24.9656 10.8189C25.0351 10.2422 25.0249 10.2064 24.6893 9.78624ZM17.6005 7.91496H15.0867C15.0842 7.87701 15.0842 7.83893 15.0867 7.80098V7.41141C15.0867 6.81601 15.0867 6.20188 15.0867 5.59627C15.0867 5.11144 15.2054 4.99235 15.6834 4.98725C16.1614 4.98215 16.6563 4.98725 17.1293 4.98725H17.4886C17.527 4.98484 17.5655 4.98484 17.6039 4.98725L17.6005 7.91496Z" fill="#001F10"/>
</svg>
