<svg width="657" height="104" viewBox="0 0 657 104" fill="none" xmlns="http://www.w3.org/2000/svg">
<path d="M40.2247 10V75.2089C40.2247 78.5138 40.9329 80.8744 42.3493 82.2907C43.8601 83.7071 46.079 84.4153 49.0062 84.4153C51.0835 84.4153 52.8776 84.2264 54.3884 83.8487C55.8992 83.471 57.3155 82.8573 58.6375 82.0075L60.4787 98.7206C58.2126 100.326 55.1438 101.553 51.2724 102.403C47.401 103.347 43.624 103.819 39.9415 103.819C33.8983 103.819 28.7522 103.017 24.5031 101.412C20.3484 99.8064 17.138 97.257 14.8718 93.7633C12.7001 90.2696 11.6142 85.5956 11.6142 79.7413V10H40.2247ZM59.4873 31.5849V51.2724H0V31.5849H59.4873Z" fill="#00160F"/>
<path d="M94.2933 10V75.2089C94.2933 78.5138 95.0015 80.8744 96.4178 82.2907C97.9286 83.7071 100.148 84.4153 103.075 84.4153C105.152 84.4153 106.946 84.2264 108.457 83.8487C109.968 83.471 111.384 82.8573 112.706 82.0075L114.547 98.7206C112.281 100.326 109.212 101.553 105.341 102.403C101.47 103.347 97.6925 103.819 94.01 103.819C87.9668 103.819 82.8207 103.017 78.5716 101.412C74.417 99.8064 71.2065 97.257 68.9404 93.7633C66.7686 90.2696 65.6827 85.5956 65.6827 79.7413V10H94.2933ZM113.556 31.5849V51.2724H54.0685V31.5849H113.556Z" fill="#00160F"/>
<path d="M147.362 10V75.2089C147.362 78.5138 148.07 80.8744 149.486 82.2907C150.997 83.7071 153.216 84.4153 156.143 84.4153C158.221 84.4153 160.015 84.2264 161.525 83.8487C163.036 83.471 164.453 82.8573 165.775 82.0075L167.616 98.7206C165.35 100.326 162.281 101.553 158.409 102.403C154.538 103.347 150.761 103.819 147.079 103.819C141.035 103.819 135.889 103.017 131.64 101.412C127.486 99.8064 124.275 97.257 122.009 93.7633C119.837 90.2696 118.751 85.5956 118.751 79.7413V10H147.362ZM166.624 31.5849V51.2724H107.137V31.5849H166.624Z" fill="#00160F"/>
<path d="M171.013 102.403V31.5849H196.649L197.499 48.1564C199.104 42.5853 201.606 38.1946 205.005 34.9842C208.499 31.7738 213.031 30.1685 218.603 30.1685C220.585 30.1685 222.191 30.3574 223.418 30.7351C224.646 31.0184 225.543 31.3961 226.109 31.8682L223.56 55.0965C222.616 54.7189 221.388 54.3884 219.877 54.1051C218.366 53.8218 216.62 53.6802 214.637 53.6802C211.804 53.6802 209.255 54.1995 206.988 55.2382C204.722 56.2769 202.928 57.8349 201.606 59.9122C200.284 61.8951 199.623 64.4446 199.623 67.5606V102.403H171.013Z" fill="#00160F"/>
<path d="M243.418 25.3529C237.753 25.3529 233.645 24.3615 231.096 22.3786C228.641 20.3956 227.413 17.1852 227.413 12.7473C227.413 8.21491 228.641 4.95727 231.096 2.97437C233.645 0.991455 237.753 0 243.418 0C249.084 0 253.144 0.991455 255.599 2.97437C258.148 4.95727 259.423 8.21491 259.423 12.7473C259.423 17.1852 258.148 20.3956 255.599 22.3786C253.144 24.3615 249.084 25.3529 243.418 25.3529ZM257.724 31.5849V102.403H229.113V31.5849H257.724Z" fill="#00160F"/>
<path d="M264.849 102.403V31.5849H290.627L291.902 58.9207L288.927 55.8047C289.683 50.3281 291.241 45.7013 293.601 41.9244C295.962 38.053 298.983 35.1258 302.666 33.1429C306.443 31.16 310.786 30.1685 315.696 30.1685C320.512 30.1685 324.62 31.1128 328.019 33.0013C331.513 34.7953 334.204 37.5336 336.092 41.2162C337.981 44.8043 338.925 49.2422 338.925 54.53V102.403H310.314V61.8951C310.314 57.9293 309.653 55.2382 308.331 53.8218C307.104 52.311 305.31 51.5556 302.949 51.5556C301.155 51.5556 299.503 52.0278 297.992 52.972C296.576 53.8218 295.442 55.2382 294.593 57.2211C293.837 59.204 293.46 61.8007 293.46 65.0111V102.403H264.849Z" fill="#00160F"/>
<path d="M429.377 31.5849L394.109 69.8267L389.01 70.6766L369.889 93.0551L369.465 64.7278L398.217 31.5849H429.377ZM374.563 2.40782V102.403H345.953V2.40782H374.563ZM398.783 51.6973L430.935 102.403H399.491L380.937 68.552L398.783 51.6973Z" fill="#00160F"/>
<path d="M455.331 103.819C450.516 103.819 446.314 103.017 442.726 101.412C439.232 99.712 436.494 97.0681 434.511 93.48C432.622 89.7975 431.678 85.029 431.678 79.1747V31.5849H460.289V72.5178C460.289 76.1059 460.95 78.6554 462.272 80.1662C463.594 81.677 465.529 82.4324 468.079 82.4324C469.401 82.4324 470.628 82.1963 471.761 81.7242C472.894 81.1576 473.839 80.355 474.594 79.3164C475.444 78.2777 476.058 76.9086 476.435 75.2089C476.907 73.5093 477.143 71.5264 477.143 69.2602V31.5849H505.754V102.403H480.118L479.41 88.2395C477.238 93.4328 474.122 97.3514 470.062 99.9953C466.001 102.545 461.091 103.819 455.331 103.819Z" fill="#00160F"/>
<path d="M544.229 103.819C537.241 103.819 530.631 102.781 524.399 100.703C518.167 98.6261 512.833 95.5573 508.395 91.4971L519.867 76.342C522.417 78.8915 525.674 81.1104 529.64 82.9989C533.7 84.8874 537.949 85.8316 542.387 85.8316C544.654 85.8316 546.542 85.5484 548.053 84.9818C549.658 84.4153 550.461 83.4238 550.461 82.0075C550.461 81.0632 550.036 80.3078 549.186 79.7413C548.43 79.0803 546.778 78.5138 544.229 78.0416L536.863 76.6253C527.232 74.7368 520.386 71.9985 516.326 68.4104C512.36 64.7278 510.378 59.9122 510.378 53.9635C510.378 50.0921 511.558 46.3623 513.918 42.7742C516.373 39.0916 520.198 36.0701 525.391 33.7095C530.679 31.3488 537.477 30.1685 545.787 30.1685C553.057 30.1685 559.525 31.16 565.191 33.1429C570.951 35.0314 575.53 37.7697 578.93 41.3578L567.74 56.088C565.191 53.633 561.98 51.6973 558.109 50.2809C554.238 48.8646 550.555 48.1564 547.061 48.1564C545.267 48.1564 543.756 48.298 542.529 48.5813C541.301 48.8646 540.357 49.2895 539.696 49.856C539.13 50.3281 538.846 50.9891 538.846 51.8389C538.846 52.7832 539.366 53.633 540.404 54.3884C541.538 55.0493 543.568 55.6631 546.495 56.2296L557.826 58.2126C565.285 59.5345 570.715 61.9895 574.114 65.5776C577.513 69.1658 579.213 73.5565 579.213 78.7498C579.213 83.3766 577.985 87.5785 575.53 91.3555C573.075 95.1324 569.251 98.154 564.058 100.42C558.959 102.686 552.349 103.819 544.229 103.819Z" fill="#00160F"/>
<path d="M582.136 102.403V2.40782H610.746V45.3236C612.729 40.4136 615.609 36.6838 619.386 34.1344C623.257 31.4905 627.79 30.1685 632.983 30.1685C637.799 30.1685 641.906 31.1128 645.305 33.0013C648.799 34.7953 651.49 37.5336 653.379 41.2162C655.267 44.8043 656.211 49.2422 656.211 54.53V102.403H627.601V62.1784C627.601 58.1181 626.94 55.3326 625.618 53.8218C624.39 52.311 622.644 51.5556 620.377 51.5556C618.489 51.5556 616.789 52.0278 615.278 52.972C613.862 53.9162 612.729 55.427 611.879 57.5044C611.124 59.4873 610.746 62.0367 610.746 65.1527V102.403H582.136Z" fill="#00160F"/>
</svg>
