<svg width="24" height="16" viewBox="0 0 24 16" fill="none" xmlns="http://www.w3.org/2000/svg">
<g clip-path="url(#clip0_329_88)">
<path d="M24 0H0V16H24V0Z" fill="#FF9933"/>
<path d="M24 5.33337H0V10.6667H24V5.33337Z" fill="white"/>
<path d="M24 10.6669H0V16.0002H24V10.6669Z" fill="#128807"/>
<path d="M12 10.1332C13.1782 10.1332 14.1334 9.17812 14.1334 7.99991C14.1334 6.8217 13.1782 5.86658 12 5.86658C10.8218 5.86658 9.8667 6.8217 9.8667 7.99991C9.8667 9.17812 10.8218 10.1332 12 10.1332Z" fill="#000088"/>
<path d="M12.0005 9.86663C13.0314 9.86663 13.8671 9.0309 13.8671 7.99997C13.8671 6.96904 13.0314 6.1333 12.0005 6.1333C10.9695 6.1333 10.1338 6.96904 10.1338 7.99997C10.1338 9.0309 10.9695 9.86663 12.0005 9.86663Z" fill="white"/>
<path d="M12.0003 8.37325C12.2065 8.37325 12.3736 8.20611 12.3736 7.99992C12.3736 7.79373 12.2065 7.62659 12.0003 7.62659C11.7941 7.62659 11.627 7.79373 11.627 7.99992C11.627 8.20611 11.7941 8.37325 12.0003 8.37325Z" fill="#000088"/>
<path d="M13.8392 8.33617C13.8903 8.3429 13.9372 8.30692 13.9439 8.25582C13.9506 8.20471 13.9146 8.15783 13.8635 8.1511C13.8124 8.14437 13.7655 8.18035 13.7588 8.23145C13.7521 8.28256 13.7881 8.32944 13.8392 8.33617Z" fill="#000088"/>
<path d="M12.0005 9.86647L12.0645 8.74647L12.0005 8.21313L11.9365 8.74647L12.0005 9.86647Z" fill="#000088"/>
<path d="M13.6891 8.80022C13.7367 8.81994 13.7913 8.79733 13.8111 8.7497C13.8308 8.70208 13.8082 8.64748 13.7605 8.62776C13.7129 8.60803 13.6583 8.63065 13.6386 8.67827C13.6189 8.72589 13.6415 8.78049 13.6891 8.80022Z" fill="#000088"/>
<path d="M11.5177 9.80289L11.8694 8.73762L11.9456 8.2059L11.7458 8.70449L11.5177 9.80289Z" fill="#000088"/>
<path d="M13.4243 9.21065C13.4652 9.24203 13.5238 9.23431 13.5551 9.19342C13.5865 9.15252 13.5788 9.09393 13.5379 9.06256C13.497 9.03118 13.4384 9.03889 13.407 9.07978C13.3757 9.12068 13.3834 9.17927 13.4243 9.21065Z" fill="#000088"/>
<path d="M11.0671 9.61666L11.6826 8.67871L11.8938 8.18483L11.5717 8.61471L11.0671 9.61666Z" fill="#000088"/>
<path d="M13.062 9.5379C13.0934 9.5788 13.152 9.58651 13.1929 9.55513C13.2338 9.52375 13.2415 9.46516 13.2101 9.42427C13.1788 9.38337 13.1202 9.37566 13.0793 9.40704C13.0384 9.43842 13.0307 9.49701 13.062 9.5379Z" fill="#000088"/>
<path d="M10.6799 9.32017L11.5171 8.57347L11.849 8.15109L11.4266 8.48296L10.6799 9.32017Z" fill="#000088"/>
<path d="M12.6279 9.7602C12.6476 9.80782 12.7022 9.83044 12.7499 9.81071C12.7975 9.79099 12.8201 9.73639 12.8004 9.68877C12.7806 9.64114 12.726 9.61853 12.6784 9.63826C12.6308 9.65798 12.6082 9.71258 12.6279 9.7602Z" fill="#000088"/>
<path d="M10.3834 8.93312L11.3853 8.42854L11.8152 8.10645L11.3213 8.31769L10.3834 8.93312Z" fill="#000088"/>
<path d="M12.1508 9.86287C12.1576 9.91398 12.2045 9.94995 12.2556 9.94322C12.3067 9.9365 12.3426 9.88961 12.3359 9.83851C12.3292 9.7874 12.2823 9.75143 12.2312 9.75815C12.1801 9.76488 12.1441 9.81177 12.1508 9.86287Z" fill="#000088"/>
<path d="M10.1969 8.48314L11.2953 8.25508L11.7939 8.05523L11.2622 8.13145L10.1969 8.48314Z" fill="#000088"/>
<path d="M11.6641 9.83868C11.6573 9.88978 11.6933 9.93667 11.7444 9.9434C11.7955 9.95012 11.8424 9.91415 11.8491 9.86304C11.8559 9.81194 11.8199 9.76505 11.7688 9.75833C11.7177 9.7516 11.6708 9.78757 11.6641 9.83868Z" fill="#000088"/>
<path d="M10.1338 8.00004L11.2538 8.06404L11.7871 8.00004L11.2538 7.93604L10.1338 8.00004Z" fill="#000088"/>
<path d="M11.1995 9.68899C11.1798 9.73661 11.2024 9.79121 11.2501 9.81093C11.2977 9.83066 11.3523 9.80805 11.372 9.76042C11.3917 9.7128 11.3691 9.6582 11.3215 9.63848C11.2739 9.61875 11.2193 9.64137 11.1995 9.68899Z" fill="#000088"/>
<path d="M10.197 7.51696L11.2623 7.86866L11.794 7.94488L11.2954 7.74502L10.197 7.51696Z" fill="#000088"/>
<path d="M10.7897 9.42403C10.7583 9.46493 10.7661 9.52352 10.8069 9.5549C10.8478 9.58628 10.9064 9.57856 10.9378 9.53767C10.9692 9.49677 10.9615 9.43818 10.9206 9.40681C10.8797 9.37543 10.8211 9.38314 10.7897 9.42403Z" fill="#000088"/>
<path d="M10.3838 7.06653L11.3218 7.68195L11.8157 7.89319L11.3858 7.5711L10.3838 7.06653Z" fill="#000088"/>
<path d="M10.4632 9.06266C10.4223 9.09404 10.4146 9.15263 10.446 9.19352C10.4773 9.23441 10.5359 9.24213 10.5768 9.21075C10.6177 9.17937 10.6254 9.12078 10.5941 9.07988C10.5627 9.03899 10.5041 9.03128 10.4632 9.06266Z" fill="#000088"/>
<path d="M10.6807 6.68025L11.4274 7.51746L11.8498 7.84933L11.5179 7.42695L10.6807 6.68025Z" fill="#000088"/>
<path d="M10.2383 8.62901C10.1907 8.64873 10.1681 8.70333 10.1878 8.75095C10.2075 8.79858 10.2621 8.82119 10.3098 8.80146C10.3574 8.78174 10.38 8.72714 10.3603 8.67952C10.3406 8.6319 10.286 8.60928 10.2383 8.62901Z" fill="#000088"/>
<path d="M11.0652 6.3846L11.5697 7.38654L11.8918 7.81642L11.6806 7.32254L11.0652 6.3846Z" fill="#000088"/>
<path d="M10.138 8.15084C10.0869 8.15757 10.0509 8.20445 10.0576 8.25556C10.0644 8.30667 10.1112 8.34264 10.1623 8.33591C10.2135 8.32918 10.2494 8.2823 10.2427 8.2312C10.236 8.18009 10.1891 8.14412 10.138 8.15084Z" fill="#000088"/>
<path d="M11.5176 6.19691L11.7456 7.29531L11.9455 7.79391L11.8693 7.26218L11.5176 6.19691Z" fill="#000088"/>
<path d="M10.1618 7.66395C10.1107 7.65723 10.0638 7.6932 10.0571 7.74431C10.0504 7.79541 10.0863 7.8423 10.1374 7.84902C10.1886 7.85575 10.2354 7.81978 10.2422 7.76867C10.2489 7.71757 10.2129 7.67068 10.1618 7.66395Z" fill="#000088"/>
<path d="M12.0005 6.13341L11.9365 7.25341L12.0005 7.78674L12.0645 7.25341L12.0005 6.13341Z" fill="#000088"/>
<path d="M10.3114 7.19942C10.2638 7.17969 10.2092 7.20231 10.1894 7.24993C10.1697 7.29755 10.1923 7.35215 10.2399 7.37188C10.2876 7.3916 10.3422 7.36899 10.3619 7.32136C10.3816 7.27374 10.359 7.21914 10.3114 7.19942Z" fill="#000088"/>
<path d="M12.4838 6.19711L12.1321 7.26238L12.0559 7.7941L12.2557 7.29551L12.4838 6.19711Z" fill="#000088"/>
<path d="M10.5762 6.78972C10.5353 6.75834 10.4767 6.76605 10.4453 6.80695C10.414 6.84784 10.4217 6.90643 10.4626 6.93781C10.5035 6.96919 10.5621 6.96148 10.5934 6.92058C10.6248 6.87969 10.6171 6.8211 10.5762 6.78972Z" fill="#000088"/>
<path d="M12.9334 6.38358L12.3179 7.32153L12.1067 7.81541L12.4288 7.38553L12.9334 6.38358Z" fill="#000088"/>
<path d="M10.9399 6.46222C10.9085 6.42133 10.8499 6.41361 10.809 6.44499C10.7681 6.47637 10.7604 6.53496 10.7918 6.57586C10.8232 6.61675 10.8818 6.62446 10.9227 6.59308C10.9636 6.56171 10.9713 6.50312 10.9399 6.46222Z" fill="#000088"/>
<path d="M13.3226 6.67995L12.4853 7.42665L12.1535 7.84903L12.5759 7.51716L13.3226 6.67995Z" fill="#000088"/>
<path d="M11.3721 6.23992C11.3524 6.1923 11.2978 6.16968 11.2501 6.18941C11.2025 6.20913 11.1799 6.26373 11.1996 6.31135C11.2194 6.35898 11.274 6.38159 11.3216 6.36187C11.3692 6.34214 11.3918 6.28754 11.3721 6.23992Z" fill="#000088"/>
<path d="M13.6166 7.06664L12.6147 7.57121L12.1848 7.8933L12.6787 7.68206L13.6166 7.06664Z" fill="#000088"/>
<path d="M11.8487 6.13737C11.8419 6.08627 11.7951 6.05029 11.744 6.05702C11.6928 6.06375 11.6569 6.11063 11.6636 6.16174C11.6703 6.21284 11.7172 6.24882 11.7683 6.24209C11.8194 6.23536 11.8554 6.18848 11.8487 6.13737Z" fill="#000088"/>
<path d="M13.8026 7.51735L12.7042 7.7454L12.2056 7.94526L12.7373 7.86904L13.8026 7.51735Z" fill="#000088"/>
<path d="M12.3359 6.16157C12.3427 6.11046 12.3067 6.06358 12.2556 6.05685C12.2045 6.05012 12.1576 6.0861 12.1509 6.1372C12.1441 6.18831 12.1801 6.23519 12.2312 6.24192C12.2823 6.24865 12.3292 6.21267 12.3359 6.16157Z" fill="#000088"/>
<path d="M13.8662 7.99996L12.7462 7.93596L12.2129 7.99996L12.7462 8.06396L13.8662 7.99996Z" fill="#000088"/>
<path d="M12.7995 6.31138C12.8192 6.26375 12.7966 6.20916 12.749 6.18943C12.7013 6.16971 12.6468 6.19232 12.627 6.23994C12.6073 6.28757 12.6299 6.34216 12.6775 6.36189C12.7252 6.38162 12.7798 6.359 12.7995 6.31138Z" fill="#000088"/>
<path d="M13.8025 8.48328L12.7373 8.13159L12.2055 8.05537L12.7041 8.25522L13.8025 8.48328Z" fill="#000088"/>
<path d="M13.2108 6.57597C13.2421 6.53507 13.2344 6.47648 13.1935 6.4451C13.1526 6.41372 13.0941 6.42144 13.0627 6.46233C13.0313 6.50323 13.039 6.56182 13.0799 6.59319C13.1208 6.62457 13.1794 6.61686 13.2108 6.57597Z" fill="#000088"/>
<path d="M13.6167 8.93323L12.6787 8.3178L12.1848 8.10656L12.6147 8.42865L13.6167 8.93323Z" fill="#000088"/>
<path d="M13.5378 6.93759C13.5787 6.90621 13.5864 6.84762 13.555 6.80672C13.5236 6.76583 13.465 6.75812 13.4241 6.7895C13.3832 6.82088 13.3755 6.87947 13.4069 6.92036C13.4383 6.96125 13.4969 6.96897 13.5378 6.93759Z" fill="#000088"/>
<path d="M13.3203 9.32L12.5736 8.48278L12.1512 8.15091L12.4831 8.57329L13.3203 9.32Z" fill="#000088"/>
<path d="M13.7612 7.37185C13.8088 7.35212 13.8314 7.29752 13.8117 7.2499C13.792 7.20228 13.7374 7.17966 13.6897 7.19939C13.6421 7.21912 13.6195 7.27371 13.6392 7.32134C13.659 7.36896 13.7136 7.39157 13.7612 7.37185Z" fill="#000088"/>
<path d="M12.9343 9.6165L12.4298 8.61456L12.1077 8.18467L12.3189 8.67856L12.9343 9.6165Z" fill="#000088"/>
<path d="M13.8625 7.84879C13.9136 7.84206 13.9496 7.79518 13.9429 7.74407C13.9361 7.69297 13.8892 7.65699 13.8381 7.66372C13.787 7.67045 13.7511 7.71733 13.7578 7.76844C13.7645 7.81954 13.8114 7.85552 13.8625 7.84879Z" fill="#000088"/>
<path d="M12.4829 9.80321L12.2548 8.70481L12.055 8.20621L12.1312 8.73794L12.4829 9.80321Z" fill="#000088"/>
</g>
<defs>
<clipPath id="clip0_329_88">
<rect width="24" height="16" rx="1.33333" fill="white"/>
</clipPath>
</defs>
</svg>
