<svg width="30" height="30" viewBox="0 0 30 30" fill="none" xmlns="http://www.w3.org/2000/svg">
<path d="M19.0419 5.00012H10.9581C7.67279 5.00012 5 7.67292 5 10.9582V19.042C5 22.3273 7.67279 25.0001 10.9581 25.0001H19.0419C22.3272 25.0001 25 22.3273 25 19.042V10.9582C25 7.67292 22.3272 5.00012 19.0419 5.00012ZM22.988 19.042C22.988 21.2214 21.2213 22.9881 19.0419 22.9881H10.9581C8.77875 22.9881 7.012 21.2214 7.012 19.042V10.9582C7.012 8.77884 8.77875 7.01212 10.9581 7.01212H19.0419C21.2213 7.01212 22.988 8.77884 22.988 10.9582V19.042Z" fill="#00160F"/>
<path d="M14.9989 9.82703C12.1466 9.82703 9.82617 12.1475 9.82617 14.9997C9.82617 17.8519 12.1466 20.1724 14.9989 20.1724C17.8511 20.1724 20.1716 17.8519 20.1716 14.9997C20.1716 12.1475 17.8511 9.82703 14.9989 9.82703ZM14.9989 18.1604C13.2533 18.1604 11.8382 16.7454 11.8382 14.9997C11.8382 13.2541 13.2533 11.839 14.9989 11.839C16.7445 11.839 18.1596 13.2541 18.1596 14.9997C18.1596 16.7453 16.7445 18.1604 14.9989 18.1604Z" fill="#00160F"/>
<path d="M20.1828 11.1059C20.8674 11.1059 21.4223 10.551 21.4223 9.86644C21.4223 9.18189 20.8674 8.62695 20.1828 8.62695C19.4983 8.62695 18.9434 9.18189 18.9434 9.86644C18.9434 10.551 19.4983 11.1059 20.1828 11.1059Z" fill="#00160F"/>
</svg>
