<svg width="30" height="30" viewBox="0 0 30 30" fill="none" xmlns="http://www.w3.org/2000/svg">
<path d="M10.0292 24.0001H6.29733V11.9823H10.0292V24.0001ZM8.16123 10.343C6.96791 10.343 6 9.3546 6 8.16126C6 6.96763 6.96762 6 8.16123 6C9.35485 6 10.3225 6.96763 10.3225 8.16126C10.3225 9.3546 9.35415 10.343 8.16123 10.343ZM23.9962 24.0001H20.2724V18.1499C20.2724 16.7557 20.2443 14.9677 18.3322 14.9677C16.3919 14.9677 16.0946 16.4825 16.0946 18.0495V24.0001H12.3668V11.9823H15.9459V13.6217H15.9982C16.4964 12.6775 17.7134 11.681 19.5291 11.681C23.3059 11.681 24.0002 14.1681 24.0002 17.3986V24.0001H23.9962Z" fill="#00160F"/>
</svg>
