<svg width="30" height="30" viewBox="0 0 30 30" fill="none" xmlns="http://www.w3.org/2000/svg">
<path d="M16.1751 15.0002C16.1751 17.8754 13.8601 20.2061 11.0046 20.2061C8.14912 20.2061 5.83398 17.8748 5.83398 15.0002C5.83398 12.1255 8.14895 9.79407 11.0046 9.79407C13.8603 9.79407 16.1751 12.125 16.1751 15.0002ZM21.8473 15.0002C21.8473 17.7065 20.6898 19.9014 19.2619 19.9014C17.8341 19.9014 16.6766 17.7065 16.6766 15.0002C16.6766 12.2938 17.8339 10.099 19.2618 10.099C20.6896 10.099 21.8471 12.2931 21.8471 15.0002H21.8473ZM24.1673 15.0002C24.1673 17.4244 23.7603 19.3909 23.2581 19.3909C22.7558 19.3909 22.349 17.4249 22.349 15.0002C22.349 12.5754 22.756 10.6095 23.2581 10.6095C23.7601 10.6095 24.1673 12.5753 24.1673 15.0002Z" fill="#00160F"/>
</svg>
