<svg width="16" height="16" viewBox="0 0 16 16" fill="none" xmlns="http://www.w3.org/2000/svg">
<g clip-path="url(#clip0_654_1489)">
<path fill-rule="evenodd" clip-rule="evenodd" d="M2.99834 2.84739C3.49342 3.24962 3.67915 3.21894 4.60886 3.1569L13.3735 2.63062C13.5594 2.63062 13.4048 2.44518 13.3428 2.41436L11.8872 1.36206C11.6083 1.14552 11.2367 0.89754 10.5245 0.959574L2.03769 1.57857C1.72818 1.60926 1.66636 1.76402 1.78962 1.88806L2.99834 2.84739ZM3.52455 4.88999V14.1119C3.52455 14.6075 3.77222 14.7929 4.32965 14.7623L13.962 14.2049C14.5197 14.1743 14.5818 13.8334 14.5818 13.4307V4.2707C14.5818 3.86875 14.4272 3.65199 14.0858 3.68293L4.01992 4.2707C3.64843 4.30193 3.52452 4.48775 3.52452 4.88999H3.52455ZM13.0336 5.38467C13.0953 5.66346 13.0336 5.94201 12.7542 5.97335L12.2901 6.06582V12.874C11.8872 13.0906 11.5156 13.2144 11.206 13.2144C10.7102 13.2144 10.5861 13.0596 10.2147 12.5956L7.17895 7.82985V12.4409L8.1396 12.6576C8.1396 12.6576 8.1396 13.2144 7.36455 13.2144L5.22795 13.3384C5.16588 13.2144 5.22795 12.9052 5.44468 12.8433L6.00224 12.6887V6.59207L5.2281 6.53003C5.16601 6.25124 5.32064 5.84925 5.75457 5.81806L8.04665 5.66355L11.206 10.4914V6.22055L10.4005 6.12811C10.3386 5.78728 10.5861 5.5398 10.8958 5.50911L13.0336 5.38467ZM1.32513 0.743064L10.1528 0.0929694C11.2368 -4.12017e-06 11.5157 0.0622809 12.1971 0.557211L15.015 2.53778C15.4799 2.87836 15.6349 2.97108 15.6349 3.34235V14.2049C15.6349 14.8857 15.3869 15.2883 14.5199 15.3499L4.26831 15.969C3.61743 16 3.30766 15.9072 2.9668 15.4737L0.891667 12.7813C0.519867 12.2857 0.365234 11.915 0.365234 11.4812V1.8258C0.365234 1.26909 0.61331 0.804692 1.32513 0.743064Z" fill="#00160F"/>
</g>
<defs>
<clipPath id="clip0_654_1489">
<rect width="16" height="16" fill="white"/>
</clipPath>
</defs>
</svg>
