<svg width="290" height="422" viewBox="0 0 290 422" fill="none" xmlns="http://www.w3.org/2000/svg">
<path fill-rule="evenodd" clip-rule="evenodd" d="M1 15C8.73199 15 15 8.73199 15 1H275C275 8.73199 281.268 15 289 15V407C281.268 407 275 413.268 275 421H15C15 413.268 8.73199 407 1 407V15Z" fill="#FFE227"/>
<path d="M15 1V0.5H14.5V1H15ZM1 15V14.5H0.5V15H1ZM275 1H275.5V0.5H275V1ZM289 15H289.5V14.5H289V15ZM289 407V407.5H289.5V407H289ZM275 421V421.5H275.5V421H275ZM15 421H14.5V421.5H15V421ZM1 407H0.5V407.5H1V407ZM14.5 1C14.5 8.45584 8.45584 14.5 1 14.5V15.5C9.00813 15.5 15.5 9.00813 15.5 1H14.5ZM15 1.5H275V0.5H15V1.5ZM274.5 1C274.5 9.00813 280.992 15.5 289 15.5V14.5C281.544 14.5 275.5 8.45584 275.5 1H274.5ZM288.5 15V407H289.5V15H288.5ZM289 406.5C280.992 406.5 274.5 412.992 274.5 421H275.5C275.5 413.544 281.544 407.5 289 407.5V406.5ZM275 420.5H15V421.5H275V420.5ZM15.5 421C15.5 412.992 9.00813 406.5 1 406.5V407.5C8.45584 407.5 14.5 413.544 14.5 421H15.5ZM1.5 407V15H0.5V407H1.5Z" fill="#001F10"/>
<path d="M178.689 41.38C178.689 41.1373 178.759 40.9467 178.897 40.808C179.036 40.6693 179.227 40.6 179.469 40.6H187.685C187.928 40.6 188.119 40.6693 188.257 40.808C188.396 40.9467 188.465 41.1373 188.465 41.38V76.22C188.465 76.4627 188.396 76.6533 188.257 76.792C188.119 76.9307 187.928 77 187.685 77H179.833C179.417 77 179.105 76.8267 178.897 76.48L168.289 58.8C168.22 58.696 168.151 58.6613 168.081 58.696C168.012 58.696 167.977 58.7653 167.977 58.904L168.081 76.22C168.081 76.4627 168.012 76.6533 167.873 76.792C167.735 76.9307 167.544 77 167.301 77H159.085C158.843 77 158.652 76.9307 158.513 76.792C158.375 76.6533 158.305 76.4627 158.305 76.22V41.38C158.305 41.1373 158.375 40.9467 158.513 40.808C158.652 40.6693 158.843 40.6 159.085 40.6H166.937C167.353 40.6 167.665 40.7733 167.873 41.12L178.429 58.8C178.499 58.904 178.568 58.956 178.637 58.956C178.707 58.9213 178.741 58.8347 178.741 58.696L178.689 41.38ZM216.168 61.556C216.272 62.3187 216.324 63.0987 216.324 63.896C216.324 64.4507 216.307 64.884 216.272 65.196C216.272 65.6813 216.012 65.924 215.492 65.924H199.892C199.753 65.924 199.684 65.9933 199.684 66.132C199.684 66.444 199.823 66.808 200.1 67.224C200.447 67.8133 201.053 68.316 201.92 68.732C202.821 69.1133 203.827 69.304 204.936 69.304C205.872 69.304 206.739 69.1653 207.536 68.888C208.333 68.6107 209.009 68.212 209.564 67.692C209.737 67.5533 209.911 67.484 210.084 67.484C210.327 67.484 210.517 67.588 210.656 67.796L214.608 72.84C214.747 73.0133 214.816 73.204 214.816 73.412C214.816 73.62 214.729 73.7933 214.556 73.932C213.343 75.1107 211.835 75.9947 210.032 76.584C208.229 77.1387 206.288 77.416 204.208 77.416C200.984 77.416 198.228 76.74 195.94 75.388C193.652 74.036 191.988 72.112 190.948 69.616C190.185 67.8133 189.804 65.872 189.804 63.792C189.804 61.608 190.116 59.6667 190.74 57.968C191.676 55.3333 193.219 53.2707 195.368 51.78C197.517 50.2893 200.048 49.544 202.96 49.544C205.179 49.544 207.224 50.064 209.096 51.104C211.003 52.144 212.563 53.5827 213.776 55.42C215.024 57.2227 215.821 59.268 216.168 61.556ZM202.908 57.916C201.487 57.916 200.499 58.6093 199.944 59.996L199.736 60.568C199.701 60.672 199.719 60.7587 199.788 60.828C199.857 60.8627 199.927 60.88 199.996 60.88H205.924C206.063 60.88 206.132 60.8107 206.132 60.672C206.132 60.5333 206.08 60.308 205.976 59.996C205.803 59.3373 205.439 58.8347 204.884 58.488C204.364 58.1067 203.705 57.916 202.908 57.916ZM242.859 61.556C242.963 62.3187 243.015 63.0987 243.015 63.896C243.015 64.4507 242.998 64.884 242.963 65.196C242.963 65.6813 242.703 65.924 242.183 65.924H226.583C226.445 65.924 226.375 65.9933 226.375 66.132C226.375 66.444 226.514 66.808 226.791 67.224C227.138 67.8133 227.745 68.316 228.611 68.732C229.513 69.1133 230.518 69.304 231.627 69.304C232.563 69.304 233.43 69.1653 234.227 68.888C235.025 68.6107 235.701 68.212 236.255 67.692C236.429 67.5533 236.602 67.484 236.775 67.484C237.018 67.484 237.209 67.588 237.347 67.796L241.299 72.84C241.438 73.0133 241.507 73.204 241.507 73.412C241.507 73.62 241.421 73.7933 241.247 73.932C240.034 75.1107 238.526 75.9947 236.723 76.584C234.921 77.1387 232.979 77.416 230.899 77.416C227.675 77.416 224.919 76.74 222.631 75.388C220.343 74.036 218.679 72.112 217.639 69.616C216.877 67.8133 216.495 65.872 216.495 63.792C216.495 61.608 216.807 59.6667 217.431 57.968C218.367 55.3333 219.91 53.2707 222.059 51.78C224.209 50.2893 226.739 49.544 229.651 49.544C231.87 49.544 233.915 50.064 235.787 51.104C237.694 52.144 239.254 53.5827 240.467 55.42C241.715 57.2227 242.513 59.268 242.859 61.556ZM229.599 57.916C228.178 57.916 227.19 58.6093 226.635 59.996L226.427 60.568C226.393 60.672 226.41 60.7587 226.479 60.828C226.549 60.8627 226.618 60.88 226.687 60.88H232.615C232.754 60.88 232.823 60.8107 232.823 60.672C232.823 60.5333 232.771 60.308 232.667 59.996C232.494 59.3373 232.13 58.8347 231.575 58.488C231.055 58.1067 230.397 57.916 229.599 57.916ZM260.347 41.38C260.347 41.1373 260.416 40.9467 260.555 40.808C260.693 40.6693 260.884 40.6 261.127 40.6H269.343C269.585 40.6 269.776 40.6693 269.915 40.808C270.053 40.9467 270.123 41.1373 270.123 41.38V76.22C270.123 76.4627 270.053 76.6533 269.915 76.792C269.776 76.9307 269.585 77 269.343 77H261.127C260.884 77 260.693 76.9307 260.555 76.792C260.416 76.6533 260.347 76.4627 260.347 76.22V74.66C260.347 74.556 260.312 74.4867 260.243 74.452C260.173 74.4173 260.104 74.452 260.035 74.556C258.752 76.4627 256.741 77.416 254.003 77.416C251.68 77.416 249.583 76.688 247.711 75.232C245.873 73.7413 244.573 71.7307 243.811 69.2C243.291 67.4667 243.031 65.5253 243.031 63.376C243.031 60.88 243.412 58.6613 244.175 56.72C245.007 54.6053 246.307 52.8893 248.075 51.572C249.843 50.22 251.957 49.544 254.419 49.544C256.949 49.544 258.821 50.3413 260.035 51.936C260.104 52.0053 260.173 52.04 260.243 52.04C260.312 52.0053 260.347 51.936 260.347 51.832V41.38ZM259.567 67.276C260.087 66.2707 260.347 65.0227 260.347 63.532C260.347 61.868 260.069 60.5333 259.515 59.528C258.891 58.4533 257.989 57.916 256.811 57.916C255.563 57.916 254.644 58.488 254.055 59.632C253.535 60.6027 253.275 61.9027 253.275 63.532C253.275 65.092 253.535 66.3573 254.055 67.328C254.679 68.472 255.597 69.044 256.811 69.044C258.024 69.044 258.943 68.4547 259.567 67.276ZM54.1999 91.544C56.9386 91.544 59.0706 92.3933 60.5959 94.092C62.1212 95.7907 62.8839 98.1827 62.8839 101.268V118.22C62.8839 118.463 62.8146 118.653 62.6759 118.792C62.5372 118.931 62.3466 119 62.1039 119H53.8879C53.6452 119 53.4546 118.931 53.3159 118.792C53.1772 118.653 53.1079 118.463 53.1079 118.22V103.4C53.1079 102.36 52.8479 101.528 52.3279 100.904C51.8426 100.245 51.2012 99.916 50.4039 99.916C49.5719 99.916 48.8959 100.245 48.3759 100.904C47.8559 101.528 47.5959 102.36 47.5959 103.4V118.22C47.5959 118.463 47.5266 118.653 47.3879 118.792C47.2492 118.931 47.0586 119 46.8159 119H38.5999C38.3572 119 38.1666 118.931 38.0279 118.792C37.8892 118.653 37.8199 118.463 37.8199 118.22V103.4C37.8199 102.36 37.5426 101.528 36.9879 100.904C36.4679 100.245 35.7746 99.916 34.9079 99.916C34.1452 99.916 33.5039 100.159 32.9839 100.644C32.4986 101.095 32.1866 101.719 32.0479 102.516C32.0132 102.585 31.9959 102.689 31.9959 102.828V118.22C31.9959 118.463 31.9266 118.653 31.7879 118.792C31.6492 118.931 31.4586 119 31.2159 119H22.9999C22.7572 119 22.5666 118.931 22.4279 118.792C22.2892 118.653 22.2199 118.463 22.2199 118.22V92.74C22.2199 92.4973 22.2892 92.3067 22.4279 92.168C22.5666 92.0293 22.7572 91.96 22.9999 91.96H31.2159C31.4586 91.96 31.6492 92.0293 31.7879 92.168C31.9266 92.3067 31.9959 92.4973 31.9959 92.74V95.34C31.9959 95.4787 32.0306 95.548 32.0999 95.548C32.1692 95.548 32.2386 95.496 32.3079 95.392C33.6252 92.8267 35.8439 91.544 38.9639 91.544C40.7319 91.544 42.2746 91.96 43.5919 92.792C44.9439 93.5893 45.9666 94.7507 46.6599 96.276C46.7639 96.4493 46.8679 96.432 46.9719 96.224C47.6652 94.664 48.6186 93.5027 49.8319 92.74C51.0799 91.9427 52.5359 91.544 54.1999 91.544ZM90.0937 103.556C90.1977 104.319 90.2497 105.099 90.2497 105.896C90.2497 106.451 90.2324 106.884 90.1977 107.196C90.1977 107.681 89.9377 107.924 89.4177 107.924H73.8177C73.679 107.924 73.6097 107.993 73.6097 108.132C73.6097 108.444 73.7484 108.808 74.0257 109.224C74.3724 109.813 74.979 110.316 75.8457 110.732C76.747 111.113 77.7524 111.304 78.8617 111.304C79.7977 111.304 80.6644 111.165 81.4617 110.888C82.259 110.611 82.935 110.212 83.4897 109.692C83.663 109.553 83.8364 109.484 84.0097 109.484C84.2524 109.484 84.443 109.588 84.5817 109.796L88.5337 114.84C88.6724 115.013 88.7417 115.204 88.7417 115.412C88.7417 115.62 88.655 115.793 88.4817 115.932C87.2684 117.111 85.7604 117.995 83.9577 118.584C82.155 119.139 80.2137 119.416 78.1337 119.416C74.9097 119.416 72.1537 118.74 69.8657 117.388C67.5777 116.036 65.9137 114.112 64.8737 111.616C64.111 109.813 63.7297 107.872 63.7297 105.792C63.7297 103.608 64.0417 101.667 64.6657 99.968C65.6017 97.3333 67.1444 95.2707 69.2937 93.78C71.443 92.2893 73.9737 91.544 76.8857 91.544C79.1044 91.544 81.1497 92.064 83.0217 93.104C84.9284 94.144 86.4884 95.5827 87.7017 97.42C88.9497 99.2227 89.747 101.268 90.0937 103.556ZM76.8337 99.916C75.4124 99.916 74.4244 100.609 73.8697 101.996L73.6617 102.568C73.627 102.672 73.6444 102.759 73.7137 102.828C73.783 102.863 73.8524 102.88 73.9217 102.88H79.8497C79.9884 102.88 80.0577 102.811 80.0577 102.672C80.0577 102.533 80.0057 102.308 79.9017 101.996C79.7284 101.337 79.3644 100.835 78.8097 100.488C78.2897 100.107 77.631 99.916 76.8337 99.916ZM107.061 91.544C108.794 91.544 110.354 91.9253 111.741 92.688C113.128 93.4507 114.22 94.5773 115.017 96.068C115.849 97.524 116.265 99.2573 116.265 101.268V118.22C116.265 118.463 116.196 118.653 116.057 118.792C115.918 118.931 115.728 119 115.485 119H107.269C107.026 119 106.836 118.931 106.697 118.792C106.558 118.653 106.489 118.463 106.489 118.22V103.4C106.489 102.36 106.212 101.528 105.657 100.904C105.137 100.245 104.444 99.916 103.577 99.916C102.676 99.916 101.948 100.245 101.393 100.904C100.873 101.528 100.613 102.36 100.613 103.4V118.22C100.613 118.463 100.544 118.653 100.405 118.792C100.266 118.931 100.076 119 99.8331 119H91.6171C91.3744 119 91.1838 118.931 91.0451 118.792C90.9064 118.653 90.8371 118.463 90.8371 118.22V92.74C90.8371 92.4973 90.9064 92.3067 91.0451 92.168C91.1838 92.0293 91.3744 91.96 91.6171 91.96H99.8331C100.076 91.96 100.266 92.0293 100.405 92.168C100.544 92.3067 100.613 92.4973 100.613 92.74V94.612C100.613 94.7507 100.648 94.8373 100.717 94.872C100.786 94.9067 100.838 94.872 100.873 94.768C102.19 92.6187 104.253 91.544 107.061 91.544ZM135.209 98.98C135.209 99.2227 135.139 99.4133 135.001 99.552C134.862 99.6907 134.671 99.76 134.429 99.76H130.113C129.939 99.76 129.853 99.8467 129.853 100.02V108.184C129.853 109.917 130.477 110.784 131.725 110.784H133.649C133.891 110.784 134.082 110.853 134.221 110.992C134.359 111.131 134.429 111.321 134.429 111.564V118.22C134.429 118.705 134.169 118.983 133.649 119.052C132.297 119.156 130.997 119.208 129.749 119.208C126.594 119.208 124.271 118.723 122.781 117.752C121.29 116.781 120.527 114.944 120.493 112.24V100.02C120.493 99.8467 120.406 99.76 120.233 99.76H117.425C117.182 99.76 116.991 99.6907 116.853 99.552C116.714 99.4133 116.645 99.2227 116.645 98.98V92.74C116.645 92.4973 116.714 92.3067 116.853 92.168C116.991 92.0293 117.182 91.96 117.425 91.96H120.233C120.406 91.96 120.493 91.8733 120.493 91.7V85.46C120.493 85.2173 120.562 85.0267 120.701 84.888C120.839 84.7493 121.03 84.68 121.273 84.68H129.073C129.315 84.68 129.506 84.7493 129.645 84.888C129.783 85.0267 129.853 85.2173 129.853 85.46V91.7C129.853 91.8733 129.939 91.96 130.113 91.96H134.429C134.671 91.96 134.862 92.0293 135.001 92.168C135.139 92.3067 135.209 92.4973 135.209 92.74V98.98ZM148.531 119.416C145.238 119.416 142.447 118.532 140.159 116.764C137.906 114.996 136.415 112.604 135.687 109.588C135.341 108.34 135.167 106.953 135.167 105.428C135.167 103.729 135.375 102.187 135.791 100.8C136.623 97.9227 138.149 95.6693 140.367 94.04C142.621 92.376 145.359 91.544 148.583 91.544C151.807 91.544 154.511 92.376 156.695 94.04C158.914 95.6693 160.439 97.888 161.271 100.696C161.687 102.152 161.895 103.695 161.895 105.324C161.895 106.641 161.757 107.959 161.479 109.276C160.751 112.396 159.243 114.875 156.955 116.712C154.702 118.515 151.894 119.416 148.531 119.416ZM148.531 111.044C149.433 111.044 150.161 110.749 150.715 110.16C151.27 109.536 151.651 108.721 151.859 107.716C151.998 107.057 152.067 106.277 152.067 105.376C152.067 104.579 151.981 103.781 151.807 102.984C151.287 100.939 150.195 99.916 148.531 99.916C146.798 99.916 145.706 100.939 145.255 102.984C145.082 103.573 144.995 104.371 144.995 105.376C144.995 106.277 145.065 107.057 145.203 107.716C145.723 109.935 146.833 111.044 148.531 111.044ZM177.92 91.596C179.098 91.596 180.034 91.8213 180.728 92.272C181.04 92.4453 181.161 92.7747 181.092 93.26L179.844 101.268C179.809 101.545 179.705 101.719 179.532 101.788C179.393 101.857 179.185 101.857 178.908 101.788C178.284 101.649 177.729 101.58 177.244 101.58C176.724 101.58 176.238 101.632 175.788 101.736C174.886 101.909 174.106 102.291 173.448 102.88C172.824 103.435 172.512 104.197 172.512 105.168V118.22C172.512 118.463 172.442 118.653 172.304 118.792C172.165 118.931 171.974 119 171.732 119H163.516C163.273 119 163.082 118.931 162.944 118.792C162.805 118.653 162.736 118.463 162.736 118.22V92.74C162.736 92.4973 162.805 92.3067 162.944 92.168C163.082 92.0293 163.273 91.96 163.516 91.96H171.732C171.974 91.96 172.165 92.0293 172.304 92.168C172.442 92.3067 172.512 92.4973 172.512 92.74V93.988C172.512 94.092 172.546 94.1613 172.616 94.196C172.685 94.2307 172.737 94.2133 172.772 94.144C174.089 92.4453 175.805 91.596 177.92 91.596ZM192.91 119.416C188.993 119.416 185.89 118.653 183.602 117.128C181.349 115.603 180.222 113.575 180.222 111.044V110.576C180.222 110.333 180.291 110.143 180.43 110.004C180.569 109.865 180.759 109.796 181.002 109.796H188.802C189.322 109.796 189.582 109.987 189.582 110.368C189.582 110.923 189.877 111.373 190.466 111.72C191.09 112.067 191.887 112.24 192.858 112.24C193.621 112.24 194.227 112.136 194.678 111.928C195.163 111.685 195.406 111.356 195.406 110.94C195.406 110.455 195.129 110.125 194.574 109.952C194.019 109.744 193.031 109.519 191.61 109.276C190.293 109.103 189.114 108.895 188.074 108.652C187.034 108.409 186.029 108.045 185.058 107.56C182.077 106.104 180.586 103.816 180.586 100.696C180.586 97.888 181.678 95.6693 183.862 94.04C186.046 92.376 188.923 91.544 192.494 91.544C194.921 91.544 197.035 91.9427 198.838 92.74C200.675 93.5027 202.097 94.5947 203.102 96.016C204.107 97.4373 204.61 99.084 204.61 100.956C204.61 101.337 204.35 101.528 203.83 101.528H196.29C195.77 101.528 195.51 101.337 195.51 100.956C195.51 100.367 195.25 99.916 194.73 99.604C194.21 99.2573 193.517 99.084 192.65 99.084C191.853 99.084 191.194 99.2227 190.674 99.5C190.189 99.7427 189.946 100.089 189.946 100.54C189.946 101.095 190.275 101.476 190.934 101.684C191.593 101.892 192.65 102.1 194.106 102.308C194.279 102.343 194.938 102.447 196.082 102.62C197.261 102.793 198.387 103.071 199.462 103.452C201.334 104.111 202.755 105.029 203.726 106.208C204.731 107.352 205.234 108.86 205.234 110.732C205.234 113.575 204.125 115.741 201.906 117.232C199.687 118.688 196.689 119.416 192.91 119.416ZM221.932 91.544C223.666 91.544 225.226 91.9253 226.612 92.688C227.999 93.4507 229.091 94.5773 229.888 96.068C230.72 97.524 231.136 99.2573 231.136 101.268V118.22C231.136 118.463 231.067 118.653 230.928 118.792C230.79 118.931 230.599 119 230.356 119H222.14C221.898 119 221.707 118.931 221.568 118.792C221.43 118.653 221.36 118.463 221.36 118.22V103.4C221.36 102.36 221.083 101.528 220.528 100.904C220.008 100.245 219.315 99.916 218.448 99.916C217.547 99.916 216.819 100.245 216.264 100.904C215.744 101.528 215.484 102.36 215.484 103.4V118.22C215.484 118.463 215.415 118.653 215.276 118.792C215.138 118.931 214.947 119 214.704 119H206.488C206.246 119 206.055 118.931 205.916 118.792C205.778 118.653 205.708 118.463 205.708 118.22V83.38C205.708 83.1373 205.778 82.9467 205.916 82.808C206.055 82.6693 206.246 82.6 206.488 82.6H214.704C214.947 82.6 215.138 82.6693 215.276 82.808C215.415 82.9467 215.484 83.1373 215.484 83.38V94.612C215.484 94.7507 215.519 94.8373 215.588 94.872C215.658 94.9067 215.71 94.872 215.744 94.768C217.062 92.6187 219.124 91.544 221.932 91.544ZM237.34 90.14C235.918 90.14 234.74 89.6893 233.804 88.788C232.902 87.852 232.452 86.6733 232.452 85.252C232.452 83.796 232.902 82.6173 233.804 81.716C234.74 80.8147 235.918 80.364 237.34 80.364C238.761 80.364 239.922 80.8147 240.824 81.716C241.76 82.6173 242.228 83.796 242.228 85.252C242.228 86.6387 241.76 87.8 240.824 88.736C239.922 89.672 238.761 90.14 237.34 90.14ZM233.18 119C232.937 119 232.746 118.931 232.608 118.792C232.469 118.653 232.4 118.463 232.4 118.22V92.74C232.4 92.4973 232.469 92.3067 232.608 92.168C232.746 92.0293 232.937 91.96 233.18 91.96H241.396C241.638 91.96 241.829 92.0293 241.968 92.168C242.106 92.3067 242.176 92.4973 242.176 92.74V118.22C242.176 118.463 242.106 118.653 241.968 118.792C241.829 118.931 241.638 119 241.396 119H233.18ZM270.071 99.76C270.591 101.493 270.851 103.435 270.851 105.584C270.851 108.08 270.469 110.299 269.707 112.24C268.875 114.355 267.575 116.088 265.807 117.44C264.039 118.757 261.924 119.416 259.463 119.416C256.932 119.416 255.06 118.619 253.847 117.024C253.777 116.955 253.708 116.937 253.639 116.972C253.569 116.972 253.535 117.024 253.535 117.128V127.58C253.535 127.823 253.465 128.013 253.327 128.152C253.188 128.291 252.997 128.36 252.755 128.36H244.539C244.296 128.36 244.105 128.291 243.967 128.152C243.828 128.013 243.759 127.823 243.759 127.58V92.74C243.759 92.4973 243.828 92.3067 243.967 92.168C244.105 92.0293 244.296 91.96 244.539 91.96H252.755C252.997 91.96 253.188 92.0293 253.327 92.168C253.465 92.3067 253.535 92.4973 253.535 92.74V94.3C253.535 94.404 253.569 94.4733 253.639 94.508C253.708 94.5427 253.777 94.508 253.847 94.404C255.129 92.4973 257.14 91.544 259.879 91.544C262.201 91.544 264.281 92.2893 266.119 93.78C267.991 95.236 269.308 97.2293 270.071 99.76ZM259.827 109.328C260.347 108.323 260.607 107.023 260.607 105.428C260.607 103.868 260.347 102.603 259.827 101.632C259.203 100.488 258.284 99.916 257.071 99.916C255.857 99.916 254.939 100.505 254.315 101.684C253.795 102.655 253.535 103.903 253.535 105.428C253.535 107.092 253.812 108.427 254.367 109.432C254.991 110.507 255.892 111.044 257.071 111.044C258.319 111.044 259.237 110.472 259.827 109.328ZM58.1873 132.14C56.7659 132.14 55.5873 131.689 54.6513 130.788C53.7499 129.852 53.2993 128.673 53.2993 127.252C53.2993 125.796 53.7499 124.617 54.6513 123.716C55.5873 122.815 56.7659 122.364 58.1873 122.364C59.6086 122.364 60.7699 122.815 61.6713 123.716C62.6073 124.617 63.0753 125.796 63.0753 127.252C63.0753 128.639 62.6073 129.8 61.6713 130.736C60.7699 131.672 59.6086 132.14 58.1873 132.14ZM54.0273 161C53.7846 161 53.5939 160.931 53.4553 160.792C53.3166 160.653 53.2472 160.463 53.2472 160.22V134.74C53.2472 134.497 53.3166 134.307 53.4553 134.168C53.5939 134.029 53.7846 133.96 54.0273 133.96H62.2433C62.4859 133.96 62.6766 134.029 62.8153 134.168C62.9539 134.307 63.0233 134.497 63.0233 134.74V160.22C63.0233 160.463 62.9539 160.653 62.8153 160.792C62.6766 160.931 62.4859 161 62.2433 161H54.0273ZM80.6744 133.544C82.4077 133.544 83.9677 133.925 85.3544 134.688C86.741 135.451 87.833 136.577 88.6304 138.068C89.4624 139.524 89.8784 141.257 89.8784 143.268V160.22C89.8784 160.463 89.809 160.653 89.6704 160.792C89.5317 160.931 89.341 161 89.0984 161H80.8824C80.6397 161 80.449 160.931 80.3104 160.792C80.1717 160.653 80.1024 160.463 80.1024 160.22V145.4C80.1024 144.36 79.825 143.528 79.2704 142.904C78.7504 142.245 78.057 141.916 77.1904 141.916C76.289 141.916 75.561 142.245 75.0064 142.904C74.4864 143.528 74.2264 144.36 74.2264 145.4V160.22C74.2264 160.463 74.157 160.653 74.0184 160.792C73.8797 160.931 73.689 161 73.4464 161H65.2304C64.9877 161 64.797 160.931 64.6584 160.792C64.5197 160.653 64.4504 160.463 64.4504 160.22V134.74C64.4504 134.497 64.5197 134.307 64.6584 134.168C64.797 134.029 64.9877 133.96 65.2304 133.96H73.4464C73.689 133.96 73.8797 134.029 74.0184 134.168C74.157 134.307 74.2264 134.497 74.2264 134.74V136.612C74.2264 136.751 74.261 136.837 74.3304 136.872C74.3997 136.907 74.4517 136.872 74.4864 136.768C75.8037 134.619 77.8664 133.544 80.6744 133.544ZM116.296 125.38C116.296 125.137 116.365 124.947 116.504 124.808C116.643 124.669 116.833 124.6 117.076 124.6H125.292C125.535 124.6 125.725 124.669 125.864 124.808C126.003 124.947 126.072 125.137 126.072 125.38V160.22C126.072 160.463 126.003 160.653 125.864 160.792C125.725 160.931 125.535 161 125.292 161H117.076C116.833 161 116.643 160.931 116.504 160.792C116.365 160.653 116.296 160.463 116.296 160.22V158.66C116.296 158.556 116.261 158.487 116.192 158.452C116.123 158.417 116.053 158.452 115.984 158.556C114.701 160.463 112.691 161.416 109.952 161.416C107.629 161.416 105.532 160.688 103.66 159.232C101.823 157.741 100.523 155.731 99.7599 153.2C99.2399 151.467 98.9799 149.525 98.9799 147.376C98.9799 144.88 99.3613 142.661 100.124 140.72C100.956 138.605 102.256 136.889 104.024 135.572C105.792 134.22 107.907 133.544 110.368 133.544C112.899 133.544 114.771 134.341 115.984 135.936C116.053 136.005 116.123 136.04 116.192 136.04C116.261 136.005 116.296 135.936 116.296 135.832V125.38ZM115.516 151.276C116.036 150.271 116.296 149.023 116.296 147.532C116.296 145.868 116.019 144.533 115.464 143.528C114.84 142.453 113.939 141.916 112.76 141.916C111.512 141.916 110.593 142.488 110.004 143.632C109.484 144.603 109.224 145.903 109.224 147.532C109.224 149.092 109.484 150.357 110.004 151.328C110.628 152.472 111.547 153.044 112.76 153.044C113.973 153.044 114.892 152.455 115.516 151.276ZM153.613 145.556C153.717 146.319 153.769 147.099 153.769 147.896C153.769 148.451 153.752 148.884 153.717 149.196C153.717 149.681 153.457 149.924 152.937 149.924H137.337C137.199 149.924 137.129 149.993 137.129 150.132C137.129 150.444 137.268 150.808 137.545 151.224C137.892 151.813 138.499 152.316 139.365 152.732C140.267 153.113 141.272 153.304 142.381 153.304C143.317 153.304 144.184 153.165 144.981 152.888C145.779 152.611 146.455 152.212 147.009 151.692C147.183 151.553 147.356 151.484 147.529 151.484C147.772 151.484 147.963 151.588 148.101 151.796L152.053 156.84C152.192 157.013 152.261 157.204 152.261 157.412C152.261 157.62 152.175 157.793 152.001 157.932C150.788 159.111 149.28 159.995 147.477 160.584C145.675 161.139 143.733 161.416 141.653 161.416C138.429 161.416 135.673 160.74 133.385 159.388C131.097 158.036 129.433 156.112 128.393 153.616C127.631 151.813 127.249 149.872 127.249 147.792C127.249 145.608 127.561 143.667 128.185 141.968C129.121 139.333 130.664 137.271 132.813 135.78C134.963 134.289 137.493 133.544 140.405 133.544C142.624 133.544 144.669 134.064 146.541 135.104C148.448 136.144 150.008 137.583 151.221 139.42C152.469 141.223 153.267 143.268 153.613 145.556ZM140.353 141.916C138.932 141.916 137.944 142.609 137.389 143.996L137.181 144.568C137.147 144.672 137.164 144.759 137.233 144.828C137.303 144.863 137.372 144.88 137.441 144.88H143.369C143.508 144.88 143.577 144.811 143.577 144.672C143.577 144.533 143.525 144.308 143.421 143.996C143.248 143.337 142.884 142.835 142.329 142.488C141.809 142.107 141.151 141.916 140.353 141.916ZM166.219 161.416C162.301 161.416 159.199 160.653 156.911 159.128C154.657 157.603 153.531 155.575 153.531 153.044V152.576C153.531 152.333 153.6 152.143 153.739 152.004C153.877 151.865 154.068 151.796 154.311 151.796H162.111C162.631 151.796 162.891 151.987 162.891 152.368C162.891 152.923 163.185 153.373 163.775 153.72C164.399 154.067 165.196 154.24 166.167 154.24C166.929 154.24 167.536 154.136 167.987 153.928C168.472 153.685 168.715 153.356 168.715 152.94C168.715 152.455 168.437 152.125 167.883 151.952C167.328 151.744 166.34 151.519 164.919 151.276C163.601 151.103 162.423 150.895 161.383 150.652C160.343 150.409 159.337 150.045 158.367 149.56C155.385 148.104 153.895 145.816 153.895 142.696C153.895 139.888 154.987 137.669 157.171 136.04C159.355 134.376 162.232 133.544 165.803 133.544C168.229 133.544 170.344 133.943 172.147 134.74C173.984 135.503 175.405 136.595 176.411 138.016C177.416 139.437 177.919 141.084 177.919 142.956C177.919 143.337 177.659 143.528 177.139 143.528H169.599C169.079 143.528 168.819 143.337 168.819 142.956C168.819 142.367 168.559 141.916 168.039 141.604C167.519 141.257 166.825 141.084 165.959 141.084C165.161 141.084 164.503 141.223 163.983 141.5C163.497 141.743 163.255 142.089 163.255 142.54C163.255 143.095 163.584 143.476 164.243 143.684C164.901 143.892 165.959 144.1 167.415 144.308C167.588 144.343 168.247 144.447 169.391 144.62C170.569 144.793 171.696 145.071 172.771 145.452C174.643 146.111 176.064 147.029 177.035 148.208C178.04 149.352 178.543 150.86 178.543 152.732C178.543 155.575 177.433 157.741 175.215 159.232C172.996 160.688 169.997 161.416 166.219 161.416ZM183.957 132.14C182.535 132.14 181.357 131.689 180.421 130.788C179.519 129.852 179.069 128.673 179.069 127.252C179.069 125.796 179.519 124.617 180.421 123.716C181.357 122.815 182.535 122.364 183.957 122.364C185.378 122.364 186.539 122.815 187.441 123.716C188.377 124.617 188.845 125.796 188.845 127.252C188.845 128.639 188.377 129.8 187.441 130.736C186.539 131.672 185.378 132.14 183.957 132.14ZM179.797 161C179.554 161 179.363 160.931 179.225 160.792C179.086 160.653 179.017 160.463 179.017 160.22V134.74C179.017 134.497 179.086 134.307 179.225 134.168C179.363 134.029 179.554 133.96 179.797 133.96H188.013C188.255 133.96 188.446 134.029 188.585 134.168C188.723 134.307 188.793 134.497 188.793 134.74V160.22C188.793 160.463 188.723 160.653 188.585 160.792C188.446 160.931 188.255 161 188.013 161H179.797ZM206.6 134.74C206.6 134.497 206.669 134.307 206.808 134.168C206.947 134.029 207.137 133.96 207.38 133.96H215.596C215.839 133.96 216.029 134.029 216.168 134.168C216.307 134.307 216.376 134.497 216.376 134.74V157.464C216.376 162.421 214.937 165.94 212.06 168.02C209.217 170.135 205.629 171.192 201.296 171.192C199.355 171.192 197.535 171.036 195.836 170.724C195.385 170.62 195.16 170.325 195.16 169.84L195.472 162.82C195.472 162.231 195.784 162.023 196.408 162.196C197.864 162.577 199.233 162.768 200.516 162.768C202.18 162.768 203.549 162.421 204.624 161.728C205.699 161.035 206.34 159.977 206.548 158.556C206.583 158.417 206.548 158.331 206.444 158.296C206.375 158.261 206.288 158.296 206.184 158.4C205.005 159.509 203.307 160.064 201.088 160.064C195.541 160.064 192.005 157.811 190.48 153.304C189.891 151.571 189.596 149.543 189.596 147.22C189.596 144.655 189.96 142.471 190.688 140.668C191.52 138.484 192.82 136.751 194.588 135.468C196.391 134.185 198.453 133.544 200.776 133.544C203.168 133.544 205.005 134.272 206.288 135.728C206.357 135.797 206.427 135.832 206.496 135.832C206.565 135.797 206.6 135.728 206.6 135.624V134.74ZM206.08 150.756C206.427 149.855 206.6 148.659 206.6 147.168C206.6 145.781 206.409 144.655 206.028 143.788C205.439 142.54 204.451 141.916 203.064 141.916C201.851 141.916 200.932 142.523 200.308 143.736C199.753 144.707 199.476 145.903 199.476 147.324C199.476 148.711 199.701 149.837 200.152 150.704C200.776 151.917 201.781 152.524 203.168 152.524C204.555 152.524 205.525 151.935 206.08 150.756ZM234.049 133.544C235.783 133.544 237.343 133.925 238.729 134.688C240.116 135.451 241.208 136.577 242.005 138.068C242.837 139.524 243.253 141.257 243.253 143.268V160.22C243.253 160.463 243.184 160.653 243.045 160.792C242.907 160.931 242.716 161 242.473 161H234.257C234.015 161 233.824 160.931 233.685 160.792C233.547 160.653 233.477 160.463 233.477 160.22V145.4C233.477 144.36 233.2 143.528 232.645 142.904C232.125 142.245 231.432 141.916 230.565 141.916C229.664 141.916 228.936 142.245 228.381 142.904C227.861 143.528 227.601 144.36 227.601 145.4V160.22C227.601 160.463 227.532 160.653 227.393 160.792C227.255 160.931 227.064 161 226.821 161H218.605C218.363 161 218.172 160.931 218.033 160.792C217.895 160.653 217.825 160.463 217.825 160.22V134.74C217.825 134.497 217.895 134.307 218.033 134.168C218.172 134.029 218.363 133.96 218.605 133.96H226.821C227.064 133.96 227.255 134.029 227.393 134.168C227.532 134.307 227.601 134.497 227.601 134.74V136.612C227.601 136.751 227.636 136.837 227.705 136.872C227.775 136.907 227.827 136.872 227.861 136.768C229.179 134.619 231.241 133.544 234.049 133.544ZM252.421 148.728C252.178 148.728 251.987 148.659 251.849 148.52C251.71 148.381 251.641 148.191 251.641 147.948V147.272C251.641 145.92 251.918 144.741 252.473 143.736C253.027 142.731 253.686 141.916 254.449 141.292C255.246 140.668 256.251 139.975 257.465 139.212C258.713 138.449 259.614 137.791 260.169 137.236C260.758 136.681 261.053 136.04 261.053 135.312C261.053 134.584 260.723 134.012 260.065 133.596C259.441 133.18 258.591 132.972 257.517 132.972C256.338 132.972 255.385 133.232 254.657 133.752C253.963 134.237 253.617 134.861 253.617 135.624V135.832C253.617 136.317 253.357 136.56 252.837 136.56L244.621 136.196C244.101 136.196 243.841 136.005 243.841 135.624C243.841 133.371 244.43 131.377 245.609 129.644C246.787 127.876 248.417 126.507 250.497 125.536C252.611 124.565 255.038 124.08 257.777 124.08C260.411 124.08 262.717 124.531 264.693 125.432C266.703 126.333 268.246 127.599 269.321 129.228C270.395 130.823 270.933 132.695 270.933 134.844C270.933 136.369 270.638 137.687 270.049 138.796C269.494 139.871 268.835 140.737 268.073 141.396C267.31 142.055 266.287 142.8 265.005 143.632C263.757 144.464 262.838 145.175 262.249 145.764C261.659 146.319 261.365 147.029 261.365 147.896V147.948C261.365 148.191 261.295 148.381 261.157 148.52C261.018 148.659 260.827 148.728 260.585 148.728H252.421ZM256.165 161.26C254.743 161.26 253.565 160.809 252.629 159.908C251.727 158.972 251.277 157.793 251.277 156.372C251.277 154.916 251.727 153.737 252.629 152.836C253.565 151.935 254.743 151.484 256.165 151.484C257.586 151.484 258.747 151.935 259.649 152.836C260.585 153.737 261.053 154.916 261.053 156.372C261.053 157.759 260.585 158.92 259.649 159.856C258.747 160.792 257.586 161.26 256.165 161.26Z" fill="#001F10"/>
<path d="M42.8545 363.524H36.8021V361.666C36.8021 360.799 36.7247 360.247 36.5699 360.01C36.4151 359.773 36.1571 359.654 35.7959 359.654C35.4038 359.654 35.1045 359.814 34.8981 360.134C34.702 360.454 34.604 360.939 34.604 361.589C34.604 362.425 34.7175 363.054 34.9445 363.477C35.1613 363.9 35.7753 364.411 36.7866 365.01C39.6864 366.733 41.513 368.147 42.2663 369.251C43.0196 370.355 43.3963 372.135 43.3963 374.592C43.3963 376.377 43.1847 377.693 42.7616 378.539C42.3488 379.385 41.5439 380.097 40.3468 380.675C39.1498 381.243 37.7566 381.526 36.1674 381.526C34.4234 381.526 32.9322 381.196 31.6939 380.536C30.4659 379.875 29.6609 379.034 29.2791 378.012C28.8973 376.991 28.7064 375.541 28.7064 373.663V372.022H34.7588V375.071C34.7588 376.01 34.8413 376.614 35.0065 376.882C35.1819 377.151 35.4863 377.285 35.9197 377.285C36.3532 377.285 36.6731 377.115 36.8795 376.774C37.0962 376.434 37.2045 375.928 37.2045 375.257C37.2045 373.781 37.0033 372.817 36.6008 372.363C36.1881 371.908 35.1716 371.15 33.5514 370.087C31.9312 369.014 30.858 368.235 30.3317 367.75C29.8054 367.265 29.3668 366.594 29.016 365.737C28.6754 364.881 28.5051 363.787 28.5051 362.456C28.5051 360.536 28.7476 359.133 29.2327 358.245C29.728 357.358 30.5226 356.666 31.6165 356.171C32.7104 355.665 34.0313 355.413 35.5792 355.413C37.2716 355.413 38.7112 355.686 39.8979 356.233C41.095 356.78 41.8845 357.471 42.2663 358.307C42.6584 359.133 42.8545 360.541 42.8545 362.533V363.524ZM60.6712 366.867H54.1544V362.502C54.1544 361.233 54.0822 360.443 53.9377 360.134C53.8036 359.814 53.4991 359.654 53.0244 359.654C52.4878 359.654 52.1473 359.845 52.0028 360.227C51.8583 360.609 51.7861 361.434 51.7861 362.703V374.344C51.7861 375.562 51.8583 376.356 52.0028 376.728C52.1473 377.099 52.4723 377.285 52.978 377.285C53.463 377.285 53.7778 377.099 53.9222 376.728C54.077 376.356 54.1544 375.484 54.1544 374.112V370.969H60.6712V371.945C60.6712 374.535 60.4855 376.372 60.114 377.455C59.7528 378.539 58.9427 379.488 57.6837 380.303C56.4351 381.119 54.8923 381.526 53.0554 381.526C51.1463 381.526 49.5725 381.181 48.3342 380.489C47.0958 379.798 46.2754 378.843 45.873 377.625C45.4705 376.397 45.2693 374.555 45.2693 372.099V364.778C45.2693 362.972 45.3312 361.62 45.455 360.722C45.5789 359.814 45.9452 358.942 46.5541 358.106C47.1732 357.27 48.0246 356.615 49.1082 356.14C50.202 355.655 51.4559 355.413 52.8696 355.413C54.7891 355.413 56.3731 355.784 57.6218 356.527C58.8705 357.27 59.6909 358.199 60.083 359.313C60.4752 360.418 60.6712 362.141 60.6712 364.484V366.867ZM77.9926 355.939V381H71.4758V370.474H69.5254V381H63.0086V355.939H69.5254V364.901H71.4758V355.939H77.9926ZM80.6241 355.939H91.4906V360.954H87.1409V365.706H91.212V370.474H87.1409V375.985H91.9241V381H80.6241V355.939ZM93.8125 355.939H98.6885C101.836 355.939 103.962 356.083 105.066 356.372C106.181 356.661 107.027 357.136 107.605 357.796C108.183 358.457 108.544 359.195 108.688 360.01C108.833 360.815 108.905 362.404 108.905 364.778V373.554C108.905 375.804 108.797 377.311 108.58 378.074C108.373 378.828 108.007 379.421 107.481 379.855C106.955 380.278 106.304 380.577 105.53 380.752C104.756 380.917 103.59 381 102.032 381H93.8125V355.939ZM100.329 360.227V376.712C101.268 376.712 101.846 376.526 102.063 376.155C102.28 375.773 102.388 374.746 102.388 373.075V363.338C102.388 362.203 102.352 361.475 102.28 361.155C102.208 360.836 102.042 360.603 101.784 360.459C101.526 360.304 101.041 360.227 100.329 360.227ZM126.149 355.939V372.688C126.149 374.586 126.087 375.923 125.963 376.697C125.839 377.46 125.473 378.25 124.864 379.065C124.255 379.87 123.45 380.484 122.449 380.907C121.459 381.32 120.287 381.526 118.936 381.526C117.439 381.526 116.118 381.279 114.973 380.783C113.827 380.288 112.971 379.643 112.403 378.848C111.836 378.054 111.5 377.218 111.397 376.341C111.294 375.453 111.242 373.596 111.242 370.768V355.939H117.759V374.731C117.759 375.825 117.816 376.526 117.929 376.836C118.053 377.135 118.296 377.285 118.657 377.285C119.07 377.285 119.333 377.12 119.446 376.79C119.57 376.449 119.632 375.654 119.632 374.406V355.939H126.149ZM135.189 355.939V375.985H139.152V381H128.672V355.939H135.189ZM140.746 355.939H151.612V360.954H147.263V365.706H151.334V370.474H147.263V375.985H152.046V381H140.746V355.939ZM174.088 355.939V381H168.377L164.987 369.607V381H159.538V355.939H164.987L168.64 367.223V355.939H174.088ZM191.611 370.613C191.611 373.131 191.549 374.917 191.425 375.969C191.312 377.011 190.94 377.966 190.311 378.833C189.692 379.7 188.851 380.365 187.788 380.83C186.725 381.294 185.486 381.526 184.073 381.526C182.731 381.526 181.524 381.31 180.451 380.876C179.388 380.432 178.531 379.772 177.881 378.895C177.231 378.018 176.844 377.063 176.72 376.031C176.596 374.999 176.534 373.193 176.534 370.613V366.326C176.534 363.808 176.591 362.027 176.705 360.985C176.828 359.933 177.2 358.973 177.819 358.106C178.449 357.239 179.295 356.574 180.358 356.109C181.421 355.645 182.659 355.413 184.073 355.413C185.414 355.413 186.616 355.634 187.679 356.078C188.753 356.512 189.614 357.167 190.264 358.044C190.915 358.921 191.302 359.876 191.425 360.908C191.549 361.94 191.611 363.746 191.611 366.326V370.613ZM185.094 362.378C185.094 361.212 185.027 360.469 184.893 360.149C184.769 359.819 184.506 359.654 184.104 359.654C183.763 359.654 183.5 359.788 183.314 360.056C183.139 360.314 183.051 361.088 183.051 362.378V374.081C183.051 375.536 183.108 376.434 183.221 376.774C183.345 377.115 183.624 377.285 184.057 377.285C184.501 377.285 184.785 377.089 184.909 376.697C185.032 376.305 185.094 375.371 185.094 373.895V362.378ZM218.576 355.939L215.682 381H207.539C206.796 377.151 206.141 372.775 205.574 367.874C205.316 369.968 204.712 374.344 203.762 381H195.667L192.757 355.939H199.088L199.753 364.685L200.434 373.121C200.672 368.756 201.27 363.028 202.23 355.939H209.01C209.103 356.672 209.34 359.427 209.722 364.205L210.434 373.725C210.795 367.667 211.399 361.739 212.245 355.939H218.576Z" fill="#001F10"/>
<rect x="21" y="175" width="248" height="162" fill="#001F10"/>
<path d="M36.699 218.336C35.509 218.336 34.522 218.119 33.738 217.685C32.954 217.251 32.338 216.642 31.89 215.858C31.442 215.06 31.12 214.115 30.924 213.023C30.742 211.917 30.651 210.692 30.651 209.348L34.935 208.928C34.935 209.53 34.956 210.139 34.998 210.755C35.04 211.357 35.117 211.917 35.229 212.435C35.355 212.953 35.537 213.373 35.775 213.695C36.013 214.017 36.321 214.178 36.699 214.178C37.315 214.178 37.749 213.877 38.001 213.275C38.253 212.673 38.379 211.924 38.379 211.028C38.379 210.09 38.155 209.124 37.707 208.13C37.259 207.122 36.699 206.121 36.027 205.127C35.047 203.769 34.179 202.481 33.423 201.263C32.681 200.045 32.1 198.848 31.68 197.672C31.26 196.482 31.05 195.264 31.05 194.018C31.05 193.024 31.169 192.093 31.407 191.225C31.645 190.357 32.002 189.594 32.478 188.936C32.954 188.264 33.535 187.739 34.221 187.361C34.921 186.983 35.733 186.794 36.657 186.794C37.791 186.794 38.743 186.997 39.513 187.403C40.283 187.809 40.899 188.383 41.361 189.125C41.823 189.867 42.152 190.735 42.348 191.729C42.558 192.723 42.663 193.808 42.663 194.984L38.379 195.404C38.379 194.928 38.358 194.431 38.316 193.913C38.274 193.395 38.19 192.912 38.064 192.464C37.952 192.016 37.791 191.652 37.581 191.372C37.371 191.092 37.091 190.952 36.741 190.952C36.209 190.952 35.845 191.211 35.649 191.729C35.453 192.233 35.355 192.94 35.355 193.85C35.355 194.998 35.642 196.125 36.216 197.231C36.804 198.323 37.602 199.604 38.61 201.074C39.814 202.81 40.794 204.406 41.55 205.862C42.306 207.304 42.684 208.886 42.684 210.608C42.684 211.644 42.572 212.631 42.348 213.569C42.138 214.507 41.788 215.333 41.298 216.047C40.822 216.747 40.206 217.307 39.45 217.727C38.708 218.133 37.791 218.336 36.699 218.336ZM50.5711 218.336C49.3111 218.336 48.2541 218.042 47.4001 217.454C46.5461 216.852 45.9021 216.054 45.4681 215.06C45.0481 214.052 44.8381 212.939 44.8381 211.721V193.409C44.8381 192.205 45.0551 191.106 45.4891 190.112C45.9371 189.104 46.5881 188.299 47.4421 187.697C48.3101 187.095 49.3531 186.794 50.5711 186.794C51.4951 186.794 52.3071 186.976 53.0071 187.34C53.7211 187.704 54.3231 188.194 54.8131 188.81C55.3031 189.426 55.6741 190.133 55.9261 190.931C56.1781 191.715 56.3041 192.541 56.3041 193.409V197.714H52.2091V193.388C52.2091 192.786 52.0901 192.275 51.8521 191.855C51.6281 191.421 51.2291 191.204 50.6551 191.204C50.1371 191.204 49.7661 191.428 49.5421 191.876C49.3181 192.31 49.2061 192.814 49.2061 193.388V211.742C49.2061 212.316 49.3251 212.827 49.5631 213.275C49.8011 213.709 50.1651 213.926 50.6551 213.926C51.2291 213.926 51.6281 213.716 51.8521 213.296C52.0901 212.862 52.2091 212.344 52.2091 211.742V207.416H56.3041V211.721C56.3041 212.953 56.0801 214.073 55.6321 215.081C55.1841 216.075 54.5331 216.866 53.6791 217.454C52.8251 218.042 51.7891 218.336 50.5711 218.336ZM59.1985 218V187.13H63.5665V199.898H66.7375V187.13H71.1055V218H66.7375V204.56H63.5665V218H59.1985ZM74.2103 218V187.13H84.0383V191.792H78.5783V200.108H82.5263V204.644H78.5783V213.338H84.0383V218H74.2103ZM87.1302 218V187.13H91.4352C92.8492 187.13 94.0392 187.389 95.0052 187.907C95.9852 188.411 96.7622 189.258 97.3362 190.448C97.9242 191.624 98.3442 193.206 98.5962 195.194C98.8482 197.182 98.9742 199.646 98.9742 202.586C98.9742 205.554 98.8482 208.032 98.5962 210.02C98.3442 212.008 97.9242 213.583 97.3362 214.745C96.7482 215.907 95.9712 216.74 95.0052 217.244C94.0392 217.748 92.8492 218 91.4352 218H87.1302ZM91.4982 213.464C92.5062 213.464 93.2202 213.023 93.6402 212.141C94.0602 211.259 94.3122 209.999 94.3962 208.361C94.4942 206.723 94.5432 204.784 94.5432 202.544C94.5432 200.276 94.4942 198.33 94.3962 196.706C94.3122 195.082 94.0532 193.836 93.6192 192.968C93.1992 192.1 92.4922 191.666 91.4982 191.666V213.464ZM107.711 218.336C106.465 218.336 105.415 218.049 104.561 217.475C103.707 216.887 103.063 216.096 102.629 215.102C102.195 214.094 101.978 212.967 101.978 211.721V187.13H106.346V211.721C106.346 212.323 106.451 212.841 106.661 213.275C106.871 213.709 107.221 213.926 107.711 213.926C108.229 213.926 108.586 213.709 108.782 213.275C108.978 212.841 109.076 212.323 109.076 211.721V187.13H113.444V211.721C113.444 212.967 113.227 214.094 112.793 215.102C112.359 216.096 111.715 216.887 110.861 217.475C110.007 218.049 108.957 218.336 107.711 218.336ZM116.538 218V187.13H120.906V213.8H126.513V218H116.538ZM128.351 218V187.13H138.179V191.792H132.719V200.108H136.667V204.644H132.719V213.338H138.179V218H128.351ZM146.562 218L150.951 187.13H156.264L160.653 218H156.369L155.592 211.7H151.623L150.846 218H146.562ZM152.19 206.996H155.025L153.828 196.349L153.723 194.858H153.492L153.387 196.349L152.19 206.996ZM174.183 218.336C172.993 218.336 172.006 218.119 171.222 217.685C170.438 217.251 169.822 216.642 169.374 215.858C168.926 215.06 168.604 214.115 168.408 213.023C168.226 211.917 168.135 210.692 168.135 209.348L172.419 208.928C172.419 209.53 172.44 210.139 172.482 210.755C172.524 211.357 172.601 211.917 172.713 212.435C172.839 212.953 173.021 213.373 173.259 213.695C173.497 214.017 173.805 214.178 174.183 214.178C174.799 214.178 175.233 213.877 175.485 213.275C175.737 212.673 175.863 211.924 175.863 211.028C175.863 210.09 175.639 209.124 175.191 208.13C174.743 207.122 174.183 206.121 173.511 205.127C172.531 203.769 171.663 202.481 170.907 201.263C170.165 200.045 169.584 198.848 169.164 197.672C168.744 196.482 168.534 195.264 168.534 194.018C168.534 193.024 168.653 192.093 168.891 191.225C169.129 190.357 169.486 189.594 169.962 188.936C170.438 188.264 171.019 187.739 171.705 187.361C172.405 186.983 173.217 186.794 174.141 186.794C175.275 186.794 176.227 186.997 176.997 187.403C177.767 187.809 178.383 188.383 178.845 189.125C179.307 189.867 179.636 190.735 179.832 191.729C180.042 192.723 180.147 193.808 180.147 194.984L175.863 195.404C175.863 194.928 175.842 194.431 175.8 193.913C175.758 193.395 175.674 192.912 175.548 192.464C175.436 192.016 175.275 191.652 175.065 191.372C174.855 191.092 174.575 190.952 174.225 190.952C173.693 190.952 173.329 191.211 173.133 191.729C172.937 192.233 172.839 192.94 172.839 193.85C172.839 194.998 173.126 196.125 173.7 197.231C174.288 198.323 175.086 199.604 176.094 201.074C177.298 202.81 178.278 204.406 179.034 205.862C179.79 207.304 180.168 208.886 180.168 210.608C180.168 211.644 180.056 212.631 179.832 213.569C179.622 214.507 179.272 215.333 178.782 216.047C178.306 216.747 177.69 217.307 176.934 217.727C176.192 218.133 175.275 218.336 174.183 218.336ZM182.533 218V187.13H192.361V191.792H186.901V200.108H190.849V204.644H186.901V213.338H192.361V218H182.533ZM200.597 218.336C199.407 218.336 198.42 218.119 197.636 217.685C196.852 217.251 196.236 216.642 195.788 215.858C195.34 215.06 195.018 214.115 194.822 213.023C194.64 211.917 194.549 210.692 194.549 209.348L198.833 208.928C198.833 209.53 198.854 210.139 198.896 210.755C198.938 211.357 199.015 211.917 199.127 212.435C199.253 212.953 199.435 213.373 199.673 213.695C199.911 214.017 200.219 214.178 200.597 214.178C201.213 214.178 201.647 213.877 201.899 213.275C202.151 212.673 202.277 211.924 202.277 211.028C202.277 210.09 202.053 209.124 201.605 208.13C201.157 207.122 200.597 206.121 199.925 205.127C198.945 203.769 198.077 202.481 197.321 201.263C196.579 200.045 195.998 198.848 195.578 197.672C195.158 196.482 194.948 195.264 194.948 194.018C194.948 193.024 195.067 192.093 195.305 191.225C195.543 190.357 195.9 189.594 196.376 188.936C196.852 188.264 197.433 187.739 198.119 187.361C198.819 186.983 199.631 186.794 200.555 186.794C201.689 186.794 202.641 186.997 203.411 187.403C204.181 187.809 204.797 188.383 205.259 189.125C205.721 189.867 206.05 190.735 206.246 191.729C206.456 192.723 206.561 193.808 206.561 194.984L202.277 195.404C202.277 194.928 202.256 194.431 202.214 193.913C202.172 193.395 202.088 192.912 201.962 192.464C201.85 192.016 201.689 191.652 201.479 191.372C201.269 191.092 200.989 190.952 200.639 190.952C200.107 190.952 199.743 191.211 199.547 191.729C199.351 192.233 199.253 192.94 199.253 193.85C199.253 194.998 199.54 196.125 200.114 197.231C200.702 198.323 201.5 199.604 202.508 201.074C203.712 202.81 204.692 204.406 205.448 205.862C206.204 207.304 206.582 208.886 206.582 210.608C206.582 211.644 206.47 212.631 206.246 213.569C206.036 214.507 205.686 215.333 205.196 216.047C204.72 216.747 204.104 217.307 203.348 217.727C202.606 218.133 201.689 218.336 200.597 218.336ZM214.092 218.336C212.902 218.336 211.915 218.119 211.131 217.685C210.347 217.251 209.731 216.642 209.283 215.858C208.835 215.06 208.513 214.115 208.317 213.023C208.135 211.917 208.044 210.692 208.044 209.348L212.328 208.928C212.328 209.53 212.349 210.139 212.391 210.755C212.433 211.357 212.51 211.917 212.622 212.435C212.748 212.953 212.93 213.373 213.168 213.695C213.406 214.017 213.714 214.178 214.092 214.178C214.708 214.178 215.142 213.877 215.394 213.275C215.646 212.673 215.772 211.924 215.772 211.028C215.772 210.09 215.548 209.124 215.1 208.13C214.652 207.122 214.092 206.121 213.42 205.127C212.44 203.769 211.572 202.481 210.816 201.263C210.074 200.045 209.493 198.848 209.073 197.672C208.653 196.482 208.443 195.264 208.443 194.018C208.443 193.024 208.562 192.093 208.8 191.225C209.038 190.357 209.395 189.594 209.871 188.936C210.347 188.264 210.928 187.739 211.614 187.361C212.314 186.983 213.126 186.794 214.05 186.794C215.184 186.794 216.136 186.997 216.906 187.403C217.676 187.809 218.292 188.383 218.754 189.125C219.216 189.867 219.545 190.735 219.741 191.729C219.951 192.723 220.056 193.808 220.056 194.984L215.772 195.404C215.772 194.928 215.751 194.431 215.709 193.913C215.667 193.395 215.583 192.912 215.457 192.464C215.345 192.016 215.184 191.652 214.974 191.372C214.764 191.092 214.484 190.952 214.134 190.952C213.602 190.952 213.238 191.211 213.042 191.729C212.846 192.233 212.748 192.94 212.748 193.85C212.748 194.998 213.035 196.125 213.609 197.231C214.197 198.323 214.995 199.604 216.003 201.074C217.207 202.81 218.187 204.406 218.943 205.862C219.699 207.304 220.077 208.886 220.077 210.608C220.077 211.644 219.965 212.631 219.741 213.569C219.531 214.507 219.181 215.333 218.691 216.047C218.215 216.747 217.599 217.307 216.843 217.727C216.101 218.133 215.184 218.336 214.092 218.336ZM222.441 218V187.13H226.809V218H222.441ZM235.45 218.336C234.218 218.336 233.175 218.042 232.321 217.454C231.467 216.866 230.816 216.075 230.368 215.081C229.92 214.073 229.696 212.953 229.696 211.721V193.409C229.696 192.177 229.92 191.064 230.368 190.07C230.816 189.076 231.467 188.285 232.321 187.697C233.175 187.095 234.218 186.794 235.45 186.794C236.682 186.794 237.725 187.095 238.579 187.697C239.447 188.285 240.098 189.083 240.532 190.091C240.98 191.085 241.204 192.191 241.204 193.409V211.721C241.204 212.953 240.98 214.073 240.532 215.081C240.084 216.075 239.426 216.866 238.558 217.454C237.704 218.042 236.668 218.336 235.45 218.336ZM235.45 213.926C235.968 213.926 236.325 213.702 236.521 213.254C236.731 212.792 236.836 212.281 236.836 211.721V193.409C236.836 192.849 236.731 192.345 236.521 191.897C236.311 191.435 235.954 191.204 235.45 191.204C234.974 191.204 234.624 191.435 234.4 191.897C234.176 192.345 234.064 192.849 234.064 193.409V211.721C234.064 212.295 234.169 212.806 234.379 213.254C234.603 213.702 234.96 213.926 235.45 213.926ZM244.097 218V187.13H248.15L252.014 202.775L252.371 204.266H252.581V187.13H256.592V218H252.917L248.675 202.376L248.318 200.78H248.108V218H244.097Z" fill="#FFE227"/>
<path d="M34.558 257L30.602 225.395H34.773L36.407 241.821L36.493 242.853H36.8155L36.9445 241.821L38.772 225.395H42.083L43.932 241.821L44.0395 242.853H44.362L44.448 241.821L46.1035 225.395H50.2745L46.3185 257H42.7495L40.75 242.036L40.5135 240.187H40.3415L40.105 242.036L38.1055 257H34.558ZM52.4611 257V225.395H56.9331V257H52.4611ZM63.0492 257V230.168H58.9427V225.395H71.6277V230.168H67.5212V257H63.0492ZM73.6672 257V225.395H78.1392V238.467H81.3857V225.395H85.8577V257H81.3857V243.24H78.1392V257H73.6672ZM95.3351 257V225.395H100.968L103.29 241.477L103.484 243.197H103.57L103.763 241.477L106.107 225.395H111.74V257H107.59V236.639H107.354L107.203 237.865L104.709 257H102.366L99.8501 237.865L99.7211 236.639H99.4846V257H95.3351ZM114.904 257V225.395H124.966V230.168H119.376V238.682H123.418V243.326H119.376V252.227H124.966V257H114.904ZM133.548 257L138.042 225.395H143.481L147.975 257H143.589L142.793 250.55H138.73L137.934 257H133.548ZM139.31 245.734H142.213L140.987 234.833L140.88 233.307H140.643L140.536 234.833L139.31 245.734ZM150.261 257V225.395H154.41L158.366 241.412L158.732 242.939H158.947V225.395H163.053V257H159.291L154.948 241.004L154.582 239.37H154.367V257H150.261ZM166.218 257V225.395H170.625C172.073 225.395 173.291 225.66 174.28 226.19C175.284 226.706 176.079 227.574 176.667 228.792C177.269 229.996 177.699 231.616 177.957 233.651C178.215 235.686 178.344 238.209 178.344 241.219C178.344 244.258 178.215 246.795 177.957 248.83C177.699 250.865 177.269 252.478 176.667 253.667C176.065 254.857 175.269 255.71 174.28 256.226C173.291 256.742 172.073 257 170.625 257H166.218ZM170.69 252.356C171.722 252.356 172.453 251.904 172.883 251.001C173.313 250.098 173.571 248.808 173.657 247.131C173.757 245.454 173.807 243.469 173.807 241.176C173.807 238.854 173.757 236.862 173.657 235.199C173.571 233.536 173.306 232.261 172.861 231.372C172.431 230.483 171.708 230.039 170.69 230.039V252.356ZM187.718 257V225.395H192.19V252.7H197.93V257H187.718ZM199.812 257V225.395H209.874V230.168H204.284V238.682H208.326V243.326H204.284V252.227H209.874V257H199.812ZM212.242 257L216.735 225.395H222.175L226.668 257H222.282L221.487 250.55H217.423L216.628 257H212.242ZM218.004 245.734H220.906L219.681 234.833L219.573 233.307H219.337L219.229 234.833L218.004 245.734ZM228.954 257V225.395H233.383C235.992 225.395 237.913 226.169 239.145 227.717C240.392 229.251 241.016 231.515 241.016 234.511C241.016 236.245 240.729 237.765 240.156 239.069C239.597 240.359 238.894 241.312 238.049 241.928L241.059 257H236.565L234.114 243.605H233.426V257H228.954ZM233.426 239.413C234.2 239.413 234.809 239.212 235.254 238.811C235.712 238.41 236.035 237.858 236.221 237.155C236.422 236.439 236.522 235.615 236.522 234.683C236.522 233.221 236.3 232.074 235.856 231.243C235.411 230.412 234.602 229.996 233.426 229.996V239.413ZM243.484 257V225.395H247.633L251.589 241.412L251.955 242.939H252.17V225.395H256.276V257H252.514L248.171 241.004L247.805 239.37H247.59V257H243.484Z" fill="#FFE227"/>
<path d="M30.84 280V264.565H33.108V270.949H34.872V264.565H37.14V280H34.872V273.28H33.108V280H30.84ZM42.4865 280.168C41.8565 280.168 41.314 280.021 40.859 279.727C40.411 279.433 40.0645 279.034 39.8195 278.53C39.5815 278.026 39.4625 277.459 39.4625 276.829V267.736C39.4625 267.099 39.5815 266.532 39.8195 266.035C40.0645 265.531 40.411 265.132 40.859 264.838C41.314 264.544 41.8565 264.397 42.4865 264.397C43.1165 264.397 43.6555 264.544 44.1035 264.838C44.5585 265.132 44.905 265.531 45.143 266.035C45.388 266.539 45.5105 267.106 45.5105 267.736V276.829C45.5105 277.459 45.388 278.026 45.143 278.53C44.905 279.034 44.5585 279.433 44.1035 279.727C43.6555 280.021 43.1165 280.168 42.4865 280.168ZM42.4865 277.963C42.7665 277.963 42.9625 277.847 43.0745 277.616C43.1865 277.378 43.2425 277.116 43.2425 276.829V267.736C43.2425 267.449 43.183 267.19 43.064 266.959C42.945 266.721 42.7525 266.602 42.4865 266.602C42.2275 266.602 42.035 266.721 41.909 266.959C41.79 267.19 41.7305 267.449 41.7305 267.736V276.829C41.7305 277.116 41.79 277.378 41.909 277.616C42.028 277.847 42.2205 277.963 42.4865 277.963ZM49.3979 280L47.3189 264.565H49.4189L50.3219 272.587L50.3639 273.091H50.5319L50.5949 272.587L51.5609 264.565H53.1989L54.1649 272.587L54.2279 273.091H54.3959L54.4379 272.587L55.3409 264.565H57.4409L55.3619 280H53.5979L52.5479 272.692L52.4219 271.789H52.3379L52.2119 272.692L51.1619 280H49.3979ZM64.8422 280V266.896H62.7002V264.565H69.2522V266.896H67.1102V280H64.8422ZM73.9719 280.168C73.3419 280.168 72.7994 280.021 72.3444 279.727C71.8964 279.433 71.5499 279.034 71.3049 278.53C71.0669 278.026 70.9479 277.459 70.9479 276.829V267.736C70.9479 267.099 71.0669 266.532 71.3049 266.035C71.5499 265.531 71.8964 265.132 72.3444 264.838C72.7994 264.544 73.3419 264.397 73.9719 264.397C74.6019 264.397 75.1409 264.544 75.5889 264.838C76.0439 265.132 76.3904 265.531 76.6284 266.035C76.8734 266.539 76.9959 267.106 76.9959 267.736V276.829C76.9959 277.459 76.8734 278.026 76.6284 278.53C76.3904 279.034 76.0439 279.433 75.5889 279.727C75.1409 280.021 74.6019 280.168 73.9719 280.168ZM73.9719 277.963C74.2519 277.963 74.4479 277.847 74.5599 277.616C74.6719 277.378 74.7279 277.116 74.7279 276.829V267.736C74.7279 267.449 74.6684 267.19 74.5494 266.959C74.4304 266.721 74.2379 266.602 73.9719 266.602C73.7129 266.602 73.5204 266.721 73.3944 266.959C73.2754 267.19 73.2159 267.449 73.2159 267.736V276.829C73.2159 277.116 73.2754 277.378 73.3944 277.616C73.5134 277.847 73.7059 277.963 73.9719 277.963ZM85.8815 280.168C85.2585 280.168 84.751 280.021 84.359 279.727C83.967 279.433 83.6765 279.034 83.4875 278.53C83.3055 278.026 83.2145 277.459 83.2145 276.829V267.736C83.2145 267.113 83.337 266.549 83.582 266.045C83.827 265.541 84.177 265.142 84.632 264.848C85.087 264.547 85.6225 264.397 86.2385 264.397C86.7075 264.397 87.1275 264.484 87.4985 264.659C87.8765 264.827 88.195 265.065 88.454 265.373C88.72 265.681 88.9195 266.038 89.0525 266.444C89.1925 266.843 89.2625 267.274 89.2625 267.736V270.109H86.9945V267.736C86.9945 267.428 86.9385 267.162 86.8265 266.938C86.7145 266.714 86.5185 266.602 86.2385 266.602C85.9655 266.602 85.7695 266.721 85.6505 266.959C85.5385 267.19 85.4825 267.449 85.4825 267.736V277.018C85.4825 277.319 85.542 277.585 85.661 277.816C85.78 278.04 85.9725 278.152 86.2385 278.152C86.5185 278.152 86.7145 278.04 86.8265 277.816C86.9385 277.585 86.9945 277.319 86.9945 277.018V274.435H86.0915V272.314H89.2625V280H87.9185L87.6455 279.16C87.4495 279.475 87.1975 279.723 86.8895 279.905C86.5885 280.081 86.2525 280.168 85.8815 280.168ZM91.6984 280V264.565H96.8854V266.896H93.9664V271.054H96.0664V273.322H93.9664V277.669H96.8854V280H91.6984ZM100.831 280V266.896H98.6885V264.565H105.241V266.896H103.099V280H100.831ZM113.761 280.168C113.138 280.168 112.62 280.067 112.207 279.863C111.794 279.653 111.469 279.352 111.231 278.96C110.993 278.568 110.821 278.096 110.716 277.543C110.618 276.99 110.569 276.367 110.569 275.674L112.795 275.464C112.795 275.8 112.806 276.125 112.827 276.44C112.855 276.748 112.9 277.028 112.963 277.28C113.033 277.525 113.131 277.721 113.257 277.868C113.39 278.015 113.558 278.089 113.761 278.089C114.097 278.089 114.335 277.935 114.475 277.627C114.615 277.312 114.685 276.934 114.685 276.493C114.685 276.052 114.57 275.593 114.339 275.117C114.108 274.641 113.831 274.19 113.509 273.763C112.963 273.035 112.484 272.359 112.071 271.736C111.665 271.113 111.346 270.501 111.115 269.899C110.891 269.297 110.779 268.667 110.779 268.009C110.779 267.491 110.846 267.015 110.979 266.581C111.112 266.14 111.304 265.758 111.556 265.436C111.815 265.107 112.127 264.852 112.491 264.67C112.855 264.488 113.271 264.397 113.74 264.397C114.321 264.397 114.811 264.495 115.21 264.691C115.616 264.887 115.942 265.167 116.187 265.531C116.439 265.895 116.621 266.329 116.733 266.833C116.852 267.33 116.911 267.883 116.911 268.492L114.685 268.702C114.685 268.443 114.671 268.184 114.643 267.925C114.622 267.659 114.58 267.417 114.517 267.2C114.454 266.983 114.363 266.808 114.244 266.675C114.125 266.542 113.971 266.476 113.782 266.476C113.488 266.476 113.285 266.602 113.173 266.854C113.061 267.099 113.005 267.449 113.005 267.904C113.005 268.492 113.163 269.059 113.478 269.605C113.793 270.151 114.216 270.788 114.748 271.516C115.385 272.377 115.903 273.168 116.302 273.889C116.708 274.61 116.911 275.408 116.911 276.283C116.911 276.836 116.852 277.35 116.733 277.826C116.614 278.295 116.425 278.705 116.166 279.055C115.914 279.405 115.588 279.678 115.189 279.874C114.797 280.07 114.321 280.168 113.761 280.168ZM120.389 280V266.896H118.247V264.565H124.799V266.896H122.657V280H120.389ZM125.081 280L127.412 264.565H130.184L132.515 280H130.31L129.89 276.85H127.706L127.286 280H125.081ZM128.021 274.456H129.575L128.924 269.269L128.861 268.45H128.735L128.672 269.269L128.021 274.456ZM134.466 280V264.565H136.734C138.092 264.565 139.093 264.943 139.737 265.699C140.381 266.448 140.703 267.554 140.703 269.017C140.703 269.885 140.549 270.637 140.241 271.274C139.94 271.904 139.572 272.366 139.138 272.66L140.682 280H138.414L137.133 273.49H136.734V280H134.466ZM136.734 271.39C137.154 271.39 137.486 271.299 137.731 271.117C137.976 270.928 138.151 270.662 138.256 270.319C138.361 269.976 138.414 269.57 138.414 269.101C138.414 268.366 138.291 267.802 138.046 267.41C137.808 267.011 137.371 266.812 136.734 266.812V271.39ZM144.234 280V266.896H142.092V264.565H148.644V266.896H146.502V280H144.234ZM150.444 280V264.565H155.631V266.896H152.712V271.054H154.812V273.322H152.712V277.669H155.631V280H150.444ZM158.065 280V264.565H160.375C161.103 264.565 161.719 264.684 162.223 264.922C162.727 265.16 163.133 265.566 163.441 266.14C163.749 266.714 163.969 267.501 164.102 268.502C164.242 269.503 164.312 270.767 164.312 272.293C164.312 273.826 164.242 275.093 164.102 276.094C163.969 277.088 163.749 277.872 163.441 278.446C163.133 279.013 162.727 279.415 162.223 279.654C161.719 279.885 161.103 280 160.375 280H158.065ZM160.333 277.732C160.893 277.732 161.288 277.511 161.519 277.07C161.75 276.629 161.89 275.999 161.939 275.18C161.988 274.361 162.013 273.388 162.013 272.261C162.013 271.12 161.988 270.147 161.939 269.342C161.89 268.53 161.747 267.911 161.509 267.484C161.278 267.05 160.886 266.833 160.333 266.833V277.732ZM170.618 280V264.565H172.886V280H170.618ZM175.326 280V264.565H177.447L179.547 272.608L179.736 273.322H179.862V264.565H181.941V280H180.03L177.72 271.957L177.531 271.243H177.405V280H175.326ZM188.352 280V264.565H190.662C191.39 264.565 192.006 264.684 192.51 264.922C193.014 265.16 193.42 265.566 193.728 266.14C194.036 266.714 194.256 267.501 194.389 268.502C194.529 269.503 194.599 270.767 194.599 272.293C194.599 273.826 194.529 275.093 194.389 276.094C194.256 277.088 194.036 277.872 193.728 278.446C193.42 279.013 193.014 279.415 192.51 279.654C192.006 279.885 191.39 280 190.662 280H188.352ZM190.62 277.732C191.18 277.732 191.575 277.511 191.806 277.07C192.037 276.629 192.177 275.999 192.226 275.18C192.275 274.361 192.3 273.388 192.3 272.261C192.3 271.12 192.275 270.147 192.226 269.342C192.177 268.53 192.034 267.911 191.796 267.484C191.565 267.05 191.173 266.833 190.62 266.833V277.732ZM196.915 280V264.565H202.102V266.896H199.183V271.054H201.283V273.322H199.183V277.669H202.102V280H196.915ZM207.265 280.168C206.642 280.168 206.124 280.067 205.711 279.863C205.298 279.653 204.973 279.352 204.735 278.96C204.497 278.568 204.325 278.096 204.22 277.543C204.122 276.99 204.073 276.367 204.073 275.674L206.299 275.464C206.299 275.8 206.31 276.125 206.331 276.44C206.359 276.748 206.404 277.028 206.467 277.28C206.537 277.525 206.635 277.721 206.761 277.868C206.894 278.015 207.062 278.089 207.265 278.089C207.601 278.089 207.839 277.935 207.979 277.627C208.119 277.312 208.189 276.934 208.189 276.493C208.189 276.052 208.074 275.593 207.843 275.117C207.612 274.641 207.335 274.19 207.013 273.763C206.467 273.035 205.988 272.359 205.575 271.736C205.169 271.113 204.85 270.501 204.619 269.899C204.395 269.297 204.283 268.667 204.283 268.009C204.283 267.491 204.35 267.015 204.483 266.581C204.616 266.14 204.808 265.758 205.06 265.436C205.319 265.107 205.631 264.852 205.995 264.67C206.359 264.488 206.775 264.397 207.244 264.397C207.825 264.397 208.315 264.495 208.714 264.691C209.12 264.887 209.446 265.167 209.691 265.531C209.943 265.895 210.125 266.329 210.237 266.833C210.356 267.33 210.415 267.883 210.415 268.492L208.189 268.702C208.189 268.443 208.175 268.184 208.147 267.925C208.126 267.659 208.084 267.417 208.021 267.2C207.958 266.983 207.867 266.808 207.748 266.675C207.629 266.542 207.475 266.476 207.286 266.476C206.992 266.476 206.789 266.602 206.677 266.854C206.565 267.099 206.509 267.449 206.509 267.904C206.509 268.492 206.667 269.059 206.982 269.605C207.297 270.151 207.72 270.788 208.252 271.516C208.889 272.377 209.407 273.168 209.806 273.889C210.212 274.61 210.415 275.408 210.415 276.283C210.415 276.836 210.356 277.35 210.237 277.826C210.118 278.295 209.929 278.705 209.67 279.055C209.418 279.405 209.092 279.678 208.693 279.874C208.301 280.07 207.825 280.168 207.265 280.168ZM212.381 280V264.565H214.649V280H212.381ZM219.651 280.168C219.028 280.168 218.521 280.021 218.129 279.727C217.737 279.433 217.446 279.034 217.257 278.53C217.075 278.026 216.984 277.459 216.984 276.829V267.736C216.984 267.113 217.107 266.549 217.352 266.045C217.597 265.541 217.947 265.142 218.402 264.848C218.857 264.547 219.392 264.397 220.008 264.397C220.477 264.397 220.897 264.484 221.268 264.659C221.646 264.827 221.965 265.065 222.224 265.373C222.49 265.681 222.689 266.038 222.822 266.444C222.962 266.843 223.032 267.274 223.032 267.736V270.109H220.764V267.736C220.764 267.428 220.708 267.162 220.596 266.938C220.484 266.714 220.288 266.602 220.008 266.602C219.735 266.602 219.539 266.721 219.42 266.959C219.308 267.19 219.252 267.449 219.252 267.736V277.018C219.252 277.319 219.312 277.585 219.431 277.816C219.55 278.04 219.742 278.152 220.008 278.152C220.288 278.152 220.484 278.04 220.596 277.816C220.708 277.585 220.764 277.319 220.764 277.018V274.435H219.861V272.314H223.032V280H221.688L221.415 279.16C221.219 279.475 220.967 279.723 220.659 279.905C220.358 280.081 220.022 280.168 219.651 280.168ZM225.468 280V264.565H227.589L229.689 272.608L229.878 273.322H230.004V264.565H232.083V280H230.172L227.862 271.957L227.673 271.243H227.547V280H225.468ZM234.419 273.343V271.348H242.882V273.343H234.419ZM30.84 303V287.565H33.15C33.934 287.565 34.6095 287.705 35.1765 287.985C35.7505 288.258 36.1915 288.688 36.4995 289.276C36.8145 289.864 36.972 290.624 36.972 291.555C36.972 292.297 36.874 292.944 36.678 293.497C36.489 294.05 36.118 294.502 35.565 294.852C36.125 295.16 36.5275 295.65 36.7725 296.322C37.0175 296.987 37.14 297.757 37.14 298.632C37.14 299.493 37 300.252 36.72 300.91C36.447 301.568 36.041 302.083 35.502 302.454C34.97 302.818 34.312 303 33.528 303H30.84ZM33.108 300.753C33.794 300.753 34.2455 300.55 34.4625 300.144C34.6795 299.731 34.788 299.143 34.788 298.38C34.788 297.603 34.6795 297.015 34.4625 296.616C34.2455 296.21 33.794 296.007 33.108 296.007V300.753ZM33.108 293.928C33.745 293.928 34.1825 293.753 34.4205 293.403C34.6655 293.053 34.788 292.535 34.788 291.849C34.788 291.156 34.662 290.645 34.41 290.316C34.165 289.98 33.731 289.812 33.108 289.812V293.928ZM42.2634 303.168C41.6264 303.168 41.0804 303.021 40.6254 302.727C40.1774 302.433 39.8344 302.034 39.5964 301.53C39.3584 301.026 39.2394 300.459 39.2394 299.829V287.565H41.5074V299.829C41.5074 300.13 41.5669 300.396 41.6859 300.627C41.8049 300.851 41.9974 300.963 42.2634 300.963C42.5434 300.963 42.7394 300.851 42.8514 300.627C42.9634 300.396 43.0194 300.13 43.0194 299.829V287.565H45.2874V299.829C45.2874 300.459 45.1649 301.026 44.9199 301.53C44.6819 302.034 44.3354 302.433 43.8804 302.727C43.4324 303.021 42.8934 303.168 42.2634 303.168ZM47.7209 303V287.565H49.9889V303H47.7209ZM52.4289 303V287.565H54.6969V300.9H57.6999V303H52.4289ZM59.3722 303V287.565H61.6822C62.4102 287.565 63.0262 287.684 63.5302 287.922C64.0342 288.16 64.4402 288.566 64.7482 289.14C65.0562 289.714 65.2767 290.501 65.4097 291.502C65.5497 292.503 65.6197 293.767 65.6197 295.293C65.6197 296.826 65.5497 298.093 65.4097 299.094C65.2767 300.088 65.0562 300.872 64.7482 301.446C64.4402 302.013 64.0342 302.415 63.5302 302.654C63.0262 302.885 62.4102 303 61.6822 303H59.3722ZM61.6402 300.732C62.2002 300.732 62.5957 300.511 62.8267 300.07C63.0577 299.629 63.1977 298.999 63.2467 298.18C63.2957 297.361 63.3202 296.388 63.3202 295.261C63.3202 294.12 63.2957 293.147 63.2467 292.342C63.1977 291.53 63.0542 290.911 62.8162 290.484C62.5852 290.05 62.1932 289.833 61.6402 289.833V300.732ZM71.9259 303V287.565H74.1939C75.0549 287.565 75.7724 287.754 76.3464 288.132C76.9274 288.51 77.3614 289.045 77.6484 289.738C77.9354 290.431 78.0789 291.247 78.0789 292.185C78.0789 293.123 77.9284 293.931 77.6274 294.61C77.3264 295.289 76.8854 295.821 76.3044 296.206C75.7304 296.584 75.0269 296.791 74.1939 296.826V303H71.9259ZM74.1939 294.516C74.5929 294.516 74.9079 294.439 75.1389 294.285C75.3699 294.124 75.5344 293.872 75.6324 293.529C75.7374 293.186 75.7899 292.745 75.7899 292.206C75.7899 291.66 75.7374 291.215 75.6324 290.872C75.5344 290.529 75.3664 290.277 75.1284 290.116C74.8974 289.955 74.5859 289.875 74.1939 289.875V294.516ZM82.9778 303.168C82.3478 303.168 81.8053 303.021 81.3503 302.727C80.9023 302.433 80.5558 302.034 80.3108 301.53C80.0728 301.026 79.9538 300.459 79.9538 299.829V290.736C79.9538 290.099 80.0728 289.532 80.3108 289.035C80.5558 288.531 80.9023 288.132 81.3503 287.838C81.8053 287.544 82.3478 287.397 82.9778 287.397C83.6078 287.397 84.1468 287.544 84.5948 287.838C85.0498 288.132 85.3963 288.531 85.6343 289.035C85.8793 289.539 86.0018 290.106 86.0018 290.736V299.829C86.0018 300.459 85.8793 301.026 85.6343 301.53C85.3963 302.034 85.0498 302.433 84.5948 302.727C84.1468 303.021 83.6078 303.168 82.9778 303.168ZM82.9778 300.963C83.2578 300.963 83.4538 300.847 83.5658 300.616C83.6778 300.378 83.7338 300.116 83.7338 299.829V290.736C83.7338 290.449 83.6743 290.19 83.5553 289.959C83.4363 289.721 83.2438 289.602 82.9778 289.602C82.7188 289.602 82.5263 289.721 82.4003 289.959C82.2813 290.19 82.2218 290.449 82.2218 290.736V299.829C82.2218 300.116 82.2813 300.378 82.4003 300.616C82.5193 300.847 82.7118 300.963 82.9778 300.963ZM88.3351 303V287.565H90.6031C91.9611 287.565 92.9621 287.943 93.6061 288.699C94.2501 289.448 94.5721 290.554 94.5721 292.017C94.5721 292.885 94.4181 293.637 94.1101 294.274C93.8091 294.904 93.4416 295.366 93.0076 295.66L94.5511 303H92.2831L91.0021 296.49H90.6031V303H88.3351ZM90.6031 294.39C91.0231 294.39 91.3556 294.299 91.6006 294.117C91.8456 293.928 92.0206 293.662 92.1256 293.319C92.2306 292.976 92.2831 292.57 92.2831 292.101C92.2831 291.366 92.1606 290.802 91.9156 290.41C91.6776 290.011 91.2401 289.812 90.6031 289.812V294.39ZM98.103 303V289.896H95.961V287.565H102.513V289.896H100.371V303H98.103ZM104.314 303V287.565H109.711V289.896H106.582V293.949H108.682V296.28H106.582V303H104.314ZM114.299 303.168C113.669 303.168 113.127 303.021 112.672 302.727C112.224 302.433 111.877 302.034 111.632 301.53C111.394 301.026 111.275 300.459 111.275 299.829V290.736C111.275 290.099 111.394 289.532 111.632 289.035C111.877 288.531 112.224 288.132 112.672 287.838C113.127 287.544 113.669 287.397 114.299 287.397C114.929 287.397 115.468 287.544 115.916 287.838C116.371 288.132 116.718 288.531 116.956 289.035C117.201 289.539 117.323 290.106 117.323 290.736V299.829C117.323 300.459 117.201 301.026 116.956 301.53C116.718 302.034 116.371 302.433 115.916 302.727C115.468 303.021 114.929 303.168 114.299 303.168ZM114.299 300.963C114.579 300.963 114.775 300.847 114.887 300.616C114.999 300.378 115.055 300.116 115.055 299.829V290.736C115.055 290.449 114.996 290.19 114.877 289.959C114.758 289.721 114.565 289.602 114.299 289.602C114.04 289.602 113.848 289.721 113.722 289.959C113.603 290.19 113.543 290.449 113.543 290.736V299.829C113.543 300.116 113.603 300.378 113.722 300.616C113.841 300.847 114.033 300.963 114.299 300.963ZM119.656 303V287.565H121.924V300.9H124.927V303H119.656ZM126.6 303V287.565H128.868V303H126.6ZM134.227 303.168C133.597 303.168 133.054 303.021 132.599 302.727C132.151 302.433 131.805 302.034 131.56 301.53C131.322 301.026 131.203 300.459 131.203 299.829V290.736C131.203 290.099 131.322 289.532 131.56 289.035C131.805 288.531 132.151 288.132 132.599 287.838C133.054 287.544 133.597 287.397 134.227 287.397C134.857 287.397 135.396 287.544 135.844 287.838C136.299 288.132 136.645 288.531 136.883 289.035C137.128 289.539 137.251 290.106 137.251 290.736V299.829C137.251 300.459 137.128 301.026 136.883 301.53C136.645 302.034 136.299 302.433 135.844 302.727C135.396 303.021 134.857 303.168 134.227 303.168ZM134.227 300.963C134.507 300.963 134.703 300.847 134.815 300.616C134.927 300.378 134.983 300.116 134.983 299.829V290.736C134.983 290.449 134.923 290.19 134.804 289.959C134.685 289.721 134.493 289.602 134.227 289.602C133.968 289.602 133.775 289.721 133.649 289.959C133.53 290.19 133.471 290.449 133.471 290.736V299.829C133.471 300.116 133.53 300.378 133.649 300.616C133.768 300.847 133.961 300.963 134.227 300.963ZM139.5 296.343V294.348H147.963V296.343H139.5ZM153.22 303.168C152.576 303.168 152.026 303.025 151.571 302.737C151.123 302.443 150.78 302.044 150.542 301.54C150.311 301.036 150.196 300.466 150.196 299.829V290.736C150.196 290.106 150.315 289.539 150.553 289.035C150.798 288.531 151.148 288.132 151.603 287.838C152.058 287.544 152.597 287.397 153.22 287.397C153.689 287.397 154.109 287.484 154.48 287.659C154.851 287.834 155.166 288.076 155.425 288.384C155.691 288.685 155.894 289.038 156.034 289.444C156.174 289.843 156.244 290.274 156.244 290.736V292.857H154.123V290.736C154.123 290.414 154.056 290.144 153.923 289.927C153.79 289.71 153.57 289.602 153.262 289.602C152.982 289.602 152.779 289.714 152.653 289.938C152.527 290.162 152.464 290.428 152.464 290.736V299.829C152.464 300.137 152.53 300.403 152.663 300.627C152.803 300.851 153.003 300.963 153.262 300.963C153.577 300.963 153.797 300.854 153.923 300.637C154.056 300.42 154.123 300.151 154.123 299.829V297.708H156.244V299.829C156.244 300.459 156.121 301.026 155.876 301.53C155.631 302.034 155.281 302.433 154.826 302.727C154.378 303.021 153.843 303.168 153.22 303.168ZM158.577 303V287.565H160.845C162.203 287.565 163.204 287.943 163.848 288.699C164.492 289.448 164.814 290.554 164.814 292.017C164.814 292.885 164.66 293.637 164.352 294.274C164.051 294.904 163.684 295.366 163.25 295.66L164.793 303H162.525L161.244 296.49H160.845V303H158.577ZM160.845 294.39C161.265 294.39 161.598 294.299 161.843 294.117C162.088 293.928 162.263 293.662 162.368 293.319C162.473 292.976 162.525 292.57 162.525 292.101C162.525 291.366 162.403 290.802 162.158 290.41C161.92 290.011 161.482 289.812 160.845 289.812V294.39ZM166.833 303V287.565H172.02V289.896H169.101V294.054H171.201V296.322H169.101V300.669H172.02V303H166.833ZM174.022 303L176.353 287.565H179.125L181.456 303H179.251L178.831 299.85H176.647L176.227 303H174.022ZM176.962 297.456H178.516L177.865 292.269L177.802 291.45H177.676L177.613 292.269L176.962 297.456ZM183.873 303V289.896H181.731V287.565H188.283V289.896H186.141V303H183.873ZM190.083 303V287.565H195.27V289.896H192.351V294.054H194.451V296.322H192.351V300.669H195.27V303H190.083ZM201.694 303V287.565H203.962C205.32 287.565 206.321 287.943 206.965 288.699C207.609 289.448 207.931 290.554 207.931 292.017C207.931 292.885 207.777 293.637 207.469 294.274C207.168 294.904 206.8 295.366 206.366 295.66L207.91 303H205.642L204.361 296.49H203.962V303H201.694ZM203.962 294.39C204.382 294.39 204.714 294.299 204.959 294.117C205.204 293.928 205.379 293.662 205.484 293.319C205.589 292.976 205.642 292.57 205.642 292.101C205.642 291.366 205.519 290.802 205.274 290.41C205.036 290.011 204.599 289.812 203.962 289.812V294.39ZM209.949 303V287.565H215.136V289.896H212.217V294.054H214.317V296.322H212.217V300.669H215.136V303H209.949ZM220.299 303.168C219.676 303.168 219.158 303.067 218.745 302.863C218.332 302.653 218.007 302.352 217.769 301.96C217.531 301.568 217.359 301.096 217.254 300.543C217.156 299.99 217.107 299.367 217.107 298.674L219.333 298.464C219.333 298.8 219.344 299.125 219.365 299.44C219.393 299.748 219.438 300.028 219.501 300.28C219.571 300.525 219.669 300.721 219.795 300.868C219.928 301.015 220.096 301.089 220.299 301.089C220.635 301.089 220.873 300.935 221.013 300.627C221.153 300.312 221.223 299.934 221.223 299.493C221.223 299.052 221.108 298.593 220.877 298.117C220.646 297.641 220.369 297.19 220.047 296.763C219.501 296.035 219.022 295.359 218.609 294.736C218.203 294.113 217.884 293.501 217.653 292.899C217.429 292.297 217.317 291.667 217.317 291.009C217.317 290.491 217.384 290.015 217.517 289.581C217.65 289.14 217.842 288.758 218.094 288.436C218.353 288.107 218.665 287.852 219.029 287.67C219.393 287.488 219.809 287.397 220.278 287.397C220.859 287.397 221.349 287.495 221.748 287.691C222.154 287.887 222.48 288.167 222.725 288.531C222.977 288.895 223.159 289.329 223.271 289.833C223.39 290.33 223.449 290.883 223.449 291.492L221.223 291.702C221.223 291.443 221.209 291.184 221.181 290.925C221.16 290.659 221.118 290.417 221.055 290.2C220.992 289.983 220.901 289.808 220.782 289.675C220.663 289.542 220.509 289.476 220.32 289.476C220.026 289.476 219.823 289.602 219.711 289.854C219.599 290.099 219.543 290.449 219.543 290.904C219.543 291.492 219.701 292.059 220.016 292.605C220.331 293.151 220.754 293.788 221.286 294.516C221.923 295.377 222.441 296.168 222.84 296.889C223.246 297.61 223.449 298.408 223.449 299.283C223.449 299.836 223.39 300.35 223.271 300.826C223.152 301.295 222.963 301.705 222.704 302.055C222.452 302.405 222.126 302.678 221.727 302.874C221.335 303.07 220.859 303.168 220.299 303.168ZM228.439 303.168C227.802 303.168 227.256 303.021 226.801 302.727C226.353 302.433 226.01 302.034 225.772 301.53C225.534 301.026 225.415 300.459 225.415 299.829V287.565H227.683V299.829C227.683 300.13 227.743 300.396 227.862 300.627C227.981 300.851 228.173 300.963 228.439 300.963C228.719 300.963 228.915 300.851 229.027 300.627C229.139 300.396 229.195 300.13 229.195 299.829V287.565H231.463V299.829C231.463 300.459 231.341 301.026 231.096 301.53C230.858 302.034 230.511 302.433 230.056 302.727C229.608 303.021 229.069 303.168 228.439 303.168ZM233.897 303V287.565H236.774L238.013 295.566L238.118 296.385H238.16L238.265 295.566L239.504 287.565H242.381V303H240.281V292.647H240.155L240.071 293.298L238.727 303H237.551L236.207 293.298L236.123 292.647H235.997V303H233.897ZM244.819 303V287.565H250.006V289.896H247.087V294.054H249.187V296.322H247.087V300.669H250.006V303H244.819ZM30.756 319.343V317.348H39.219V319.343H30.756ZM41.5568 326V310.565H43.8248V323.9H46.8278V326H41.5568ZM48.2327 326L50.5637 310.565H53.3357L55.6667 326H53.4617L53.0417 322.85H50.8577L50.4377 326H48.2327ZM51.1727 320.456H52.7267L52.0757 315.269L52.0127 314.45H51.8867L51.8237 315.269L51.1727 320.456ZM57.6173 326V310.565H59.7383L61.8383 318.608L62.0273 319.322H62.1533V310.565H64.2323V326H62.3213L60.0113 317.957L59.8223 317.243H59.6963V326H57.6173ZM66.6525 326V310.565H68.9625C69.6905 310.565 70.3065 310.684 70.8105 310.922C71.3145 311.16 71.7205 311.566 72.0285 312.14C72.3365 312.714 72.557 313.501 72.69 314.502C72.83 315.503 72.9 316.767 72.9 318.293C72.9 319.826 72.83 321.093 72.69 322.094C72.557 323.088 72.3365 323.872 72.0285 324.446C71.7205 325.013 71.3145 325.415 70.8105 325.654C70.3065 325.885 69.6905 326 68.9625 326H66.6525ZM68.9205 323.732C69.4805 323.732 69.876 323.511 70.107 323.07C70.338 322.629 70.478 321.999 70.527 321.18C70.576 320.361 70.6005 319.388 70.6005 318.261C70.6005 317.12 70.576 316.147 70.527 315.342C70.478 314.53 70.3345 313.911 70.0965 313.484C69.8655 313.05 69.4735 312.833 68.9205 312.833V323.732ZM80.9912 326V319.427L78.6812 310.565H80.9072L82.0202 315.5L82.0937 316.172H82.1567L82.2302 315.5L83.3432 310.565H85.5692L83.2592 319.427V326H80.9912ZM90.4016 326.168C89.7716 326.168 89.2291 326.021 88.7741 325.727C88.3261 325.433 87.9796 325.034 87.7346 324.53C87.4966 324.026 87.3776 323.459 87.3776 322.829V313.736C87.3776 313.099 87.4966 312.532 87.7346 312.035C87.9796 311.531 88.3261 311.132 88.7741 310.838C89.2291 310.544 89.7716 310.397 90.4016 310.397C91.0316 310.397 91.5706 310.544 92.0186 310.838C92.4736 311.132 92.8201 311.531 93.0581 312.035C93.3031 312.539 93.4256 313.106 93.4256 313.736V322.829C93.4256 323.459 93.3031 324.026 93.0581 324.53C92.8201 325.034 92.4736 325.433 92.0186 325.727C91.5706 326.021 91.0316 326.168 90.4016 326.168ZM90.4016 323.963C90.6816 323.963 90.8776 323.847 90.9896 323.616C91.1016 323.378 91.1576 323.116 91.1576 322.829V313.736C91.1576 313.449 91.0981 313.19 90.9791 312.959C90.8601 312.721 90.6676 312.602 90.4016 312.602C90.1426 312.602 89.9501 312.721 89.8241 312.959C89.7051 313.19 89.6456 313.449 89.6456 313.736V322.829C89.6456 323.116 89.7051 323.378 89.8241 323.616C89.9431 323.847 90.1356 323.963 90.4016 323.963ZM98.7829 326.168C98.1459 326.168 97.5999 326.021 97.1449 325.727C96.6969 325.433 96.3539 325.034 96.1159 324.53C95.8779 324.026 95.7589 323.459 95.7589 322.829V310.565H98.0269V322.829C98.0269 323.13 98.0864 323.396 98.2054 323.627C98.3244 323.851 98.5169 323.963 98.7829 323.963C99.0629 323.963 99.2589 323.851 99.3709 323.627C99.4829 323.396 99.5389 323.13 99.5389 322.829V310.565H101.807V322.829C101.807 323.459 101.684 324.026 101.439 324.53C101.201 325.034 100.855 325.433 100.4 325.727C99.9519 326.021 99.4129 326.168 98.7829 326.168ZM104.24 326V310.565H106.508C107.866 310.565 108.867 310.943 109.511 311.699C110.155 312.448 110.477 313.554 110.477 315.017C110.477 315.885 110.323 316.637 110.015 317.274C109.714 317.904 109.347 318.366 108.913 318.66L110.456 326H108.188L106.907 319.49H106.508V326H104.24ZM106.508 317.39C106.928 317.39 107.261 317.299 107.506 317.117C107.751 316.928 107.926 316.662 108.031 316.319C108.136 315.976 108.188 315.57 108.188 315.101C108.188 314.366 108.066 313.802 107.821 313.41C107.583 313.011 107.145 312.812 106.508 312.812V317.39ZM116.486 326V310.565H121.883V312.896H118.754V316.949H120.854V319.28H118.754V326H116.486ZM123.553 326V310.565H125.821V326H123.553ZM128.261 326V310.565H130.529C131.887 310.565 132.888 310.943 133.532 311.699C134.176 312.448 134.498 313.554 134.498 315.017C134.498 315.885 134.344 316.637 134.036 317.274C133.735 317.904 133.367 318.366 132.933 318.66L134.477 326H132.209L130.928 319.49H130.529V326H128.261ZM130.529 317.39C130.949 317.39 131.281 317.299 131.526 317.117C131.771 316.928 131.946 316.662 132.051 316.319C132.156 315.976 132.209 315.57 132.209 315.101C132.209 314.366 132.086 313.802 131.841 313.41C131.603 313.011 131.166 312.812 130.529 312.812V317.39ZM139.247 326.168C138.624 326.168 138.106 326.067 137.693 325.863C137.28 325.653 136.954 325.352 136.716 324.96C136.478 324.568 136.307 324.096 136.202 323.543C136.104 322.99 136.055 322.367 136.055 321.674L138.281 321.464C138.281 321.8 138.291 322.125 138.312 322.44C138.34 322.748 138.386 323.028 138.449 323.28C138.519 323.525 138.617 323.721 138.743 323.868C138.876 324.015 139.044 324.089 139.247 324.089C139.583 324.089 139.821 323.935 139.961 323.627C140.101 323.312 140.171 322.934 140.171 322.493C140.171 322.052 140.055 321.593 139.824 321.117C139.593 320.641 139.317 320.19 138.995 319.763C138.449 319.035 137.969 318.359 137.556 317.736C137.15 317.113 136.832 316.501 136.601 315.899C136.377 315.297 136.265 314.667 136.265 314.009C136.265 313.491 136.331 313.015 136.464 312.581C136.597 312.14 136.79 311.758 137.042 311.436C137.301 311.107 137.612 310.852 137.976 310.67C138.34 310.488 138.757 310.397 139.226 310.397C139.807 310.397 140.297 310.495 140.696 310.691C141.102 310.887 141.427 311.167 141.672 311.531C141.924 311.895 142.106 312.329 142.218 312.833C142.337 313.33 142.397 313.883 142.397 314.492L140.171 314.702C140.171 314.443 140.157 314.184 140.129 313.925C140.108 313.659 140.066 313.417 140.003 313.2C139.94 312.983 139.849 312.808 139.73 312.675C139.611 312.542 139.457 312.476 139.268 312.476C138.974 312.476 138.771 312.602 138.659 312.854C138.547 313.099 138.491 313.449 138.491 313.904C138.491 314.492 138.648 315.059 138.963 315.605C139.278 316.151 139.702 316.788 140.234 317.516C140.871 318.377 141.389 319.168 141.788 319.889C142.194 320.61 142.397 321.408 142.397 322.283C142.397 322.836 142.337 323.35 142.218 323.826C142.099 324.295 141.91 324.705 141.651 325.055C141.399 325.405 141.074 325.678 140.675 325.874C140.283 326.07 139.807 326.168 139.247 326.168ZM145.874 326V312.896H143.732V310.565H150.284V312.896H148.142V326H145.874ZM156.075 326V310.565H158.385C159.113 310.565 159.729 310.684 160.233 310.922C160.737 311.16 161.143 311.566 161.451 312.14C161.759 312.714 161.98 313.501 162.113 314.502C162.253 315.503 162.323 316.767 162.323 318.293C162.323 319.826 162.253 321.093 162.113 322.094C161.98 323.088 161.759 323.872 161.451 324.446C161.143 325.013 160.737 325.415 160.233 325.654C159.729 325.885 159.113 326 158.385 326H156.075ZM158.343 323.732C158.903 323.732 159.299 323.511 159.53 323.07C159.761 322.629 159.901 321.999 159.95 321.18C159.999 320.361 160.023 319.388 160.023 318.261C160.023 317.12 159.999 316.147 159.95 315.342C159.901 314.53 159.757 313.911 159.519 313.484C159.288 313.05 158.896 312.833 158.343 312.833V323.732ZM164.639 326V310.565H169.826V312.896H166.907V317.054H169.007V319.322H166.907V323.669H169.826V326H164.639ZM174.989 326.168C174.366 326.168 173.848 326.067 173.435 325.863C173.022 325.653 172.696 325.352 172.458 324.96C172.22 324.568 172.049 324.096 171.944 323.543C171.846 322.99 171.797 322.367 171.797 321.674L174.023 321.464C174.023 321.8 174.033 322.125 174.054 322.44C174.082 322.748 174.128 323.028 174.191 323.28C174.261 323.525 174.359 323.721 174.485 323.868C174.618 324.015 174.786 324.089 174.989 324.089C175.325 324.089 175.563 323.935 175.703 323.627C175.843 323.312 175.913 322.934 175.913 322.493C175.913 322.052 175.797 321.593 175.566 321.117C175.335 320.641 175.059 320.19 174.737 319.763C174.191 319.035 173.711 318.359 173.298 317.736C172.892 317.113 172.574 316.501 172.343 315.899C172.119 315.297 172.007 314.667 172.007 314.009C172.007 313.491 172.073 313.015 172.206 312.581C172.339 312.14 172.532 311.758 172.784 311.436C173.043 311.107 173.354 310.852 173.718 310.67C174.082 310.488 174.499 310.397 174.968 310.397C175.549 310.397 176.039 310.495 176.438 310.691C176.844 310.887 177.169 311.167 177.414 311.531C177.666 311.895 177.848 312.329 177.96 312.833C178.079 313.33 178.139 313.883 178.139 314.492L175.913 314.702C175.913 314.443 175.899 314.184 175.871 313.925C175.85 313.659 175.808 313.417 175.745 313.2C175.682 312.983 175.591 312.808 175.472 312.675C175.353 312.542 175.199 312.476 175.01 312.476C174.716 312.476 174.513 312.602 174.401 312.854C174.289 313.099 174.233 313.449 174.233 313.904C174.233 314.492 174.39 315.059 174.705 315.605C175.02 316.151 175.444 316.788 175.976 317.516C176.613 318.377 177.131 319.168 177.53 319.889C177.936 320.61 178.139 321.408 178.139 322.283C178.139 322.836 178.079 323.35 177.96 323.826C177.841 324.295 177.652 324.705 177.393 325.055C177.141 325.405 176.816 325.678 176.417 325.874C176.025 326.07 175.549 326.168 174.989 326.168ZM180.105 326V310.565H182.373V326H180.105ZM187.375 326.168C186.752 326.168 186.244 326.021 185.852 325.727C185.46 325.433 185.17 325.034 184.981 324.53C184.799 324.026 184.708 323.459 184.708 322.829V313.736C184.708 313.113 184.83 312.549 185.075 312.045C185.32 311.541 185.67 311.142 186.125 310.848C186.58 310.547 187.116 310.397 187.732 310.397C188.201 310.397 188.621 310.484 188.992 310.659C189.37 310.827 189.688 311.065 189.947 311.373C190.213 311.681 190.413 312.038 190.546 312.444C190.686 312.843 190.756 313.274 190.756 313.736V316.109H188.488V313.736C188.488 313.428 188.432 313.162 188.32 312.938C188.208 312.714 188.012 312.602 187.732 312.602C187.459 312.602 187.263 312.721 187.144 312.959C187.032 313.19 186.976 313.449 186.976 313.736V323.018C186.976 323.319 187.035 323.585 187.154 323.816C187.273 324.04 187.466 324.152 187.732 324.152C188.012 324.152 188.208 324.04 188.32 323.816C188.432 323.585 188.488 323.319 188.488 323.018V320.435H187.585V318.314H190.756V326H189.412L189.139 325.16C188.943 325.475 188.691 325.723 188.383 325.905C188.082 326.081 187.746 326.168 187.375 326.168ZM193.192 326V310.565H195.313L197.413 318.608L197.602 319.322H197.728V310.565H199.807V326H197.896L195.586 317.957L195.397 317.243H195.271V326H193.192ZM205.503 326.147V323.921C205.601 323.935 205.674 323.942 205.723 323.942C206.038 323.942 206.283 323.844 206.458 323.648C206.633 323.445 206.721 323.158 206.721 322.787V310.565H208.989V323.144C208.989 323.809 208.866 324.365 208.621 324.813C208.383 325.261 208.033 325.597 207.571 325.821C207.109 326.046 206.549 326.158 205.891 326.158C205.828 326.158 205.765 326.158 205.702 326.158C205.639 326.158 205.573 326.154 205.503 326.147ZM214.336 326.168C213.706 326.168 213.164 326.021 212.709 325.727C212.261 325.433 211.914 325.034 211.669 324.53C211.431 324.026 211.312 323.459 211.312 322.829V313.736C211.312 313.099 211.431 312.532 211.669 312.035C211.914 311.531 212.261 311.132 212.709 310.838C213.164 310.544 213.706 310.397 214.336 310.397C214.966 310.397 215.505 310.544 215.953 310.838C216.408 311.132 216.755 311.531 216.993 312.035C217.238 312.539 217.36 313.106 217.36 313.736V322.829C217.36 323.459 217.238 324.026 216.993 324.53C216.755 325.034 216.408 325.433 215.953 325.727C215.505 326.021 214.966 326.168 214.336 326.168ZM214.336 323.963C214.616 323.963 214.812 323.847 214.924 323.616C215.036 323.378 215.092 323.116 215.092 322.829V313.736C215.092 313.449 215.033 313.19 214.914 312.959C214.795 312.721 214.602 312.602 214.336 312.602C214.077 312.602 213.885 312.721 213.759 312.959C213.64 313.19 213.58 313.449 213.58 313.736V322.829C213.58 323.116 213.64 323.378 213.759 323.616C213.878 323.847 214.07 323.963 214.336 323.963ZM219.694 326V310.565H222.004C222.788 310.565 223.463 310.705 224.03 310.985C224.604 311.258 225.045 311.688 225.353 312.276C225.668 312.864 225.826 313.624 225.826 314.555C225.826 315.297 225.728 315.944 225.532 316.497C225.343 317.05 224.972 317.502 224.419 317.852C224.979 318.16 225.381 318.65 225.626 319.322C225.871 319.987 225.994 320.757 225.994 321.632C225.994 322.493 225.854 323.252 225.574 323.91C225.301 324.568 224.895 325.083 224.356 325.454C223.824 325.818 223.166 326 222.382 326H219.694ZM221.962 323.753C222.648 323.753 223.099 323.55 223.316 323.144C223.533 322.731 223.642 322.143 223.642 321.38C223.642 320.603 223.533 320.015 223.316 319.616C223.099 319.21 222.648 319.007 221.962 319.007V323.753ZM221.962 316.928C222.599 316.928 223.036 316.753 223.274 316.403C223.519 316.053 223.642 315.535 223.642 314.849C223.642 314.156 223.516 313.645 223.264 313.316C223.019 312.98 222.585 312.812 221.962 312.812V316.928Z" fill="#FFE227"/>
<rect x="21.0215" y="163" width="17" height="17" transform="rotate(45 21.0215 163)" fill="#FFE227"/>
<rect x="269.021" y="163" width="17" height="17" transform="rotate(45 269.021 163)" fill="#FFE227"/>
<rect x="269.021" y="325" width="17" height="17" transform="rotate(45 269.021 325)" fill="#FFE227"/>
<rect x="21.0215" y="325" width="17" height="17" transform="rotate(45 21.0215 325)" fill="#FFE227"/>
<mask id="path-13-outside-1_535_1809" maskUnits="userSpaceOnUse" x="10" y="10" width="270" height="402" fill="black">
<rect fill="white" x="10" y="10" width="270" height="402"/>
<path fill-rule="evenodd" clip-rule="evenodd" d="M11 24C18.1797 24 24 18.1797 24 11H266C266 18.1797 271.82 24 279 24V398C271.82 398 266 403.82 266 411H24C24 403.82 18.1797 398 11 398V24Z"/>
</mask>
<path d="M24 11V10H23V11H24ZM11 24V23H10V24H11ZM266 11H267V10H266V11ZM279 24H280V23H279V24ZM279 398V399H280V398H279ZM266 411V412H267V411H266ZM24 411H23V412H24V411ZM11 398H10V399H11V398ZM23 11C23 17.6274 17.6274 23 11 23V25C18.732 25 25 18.732 25 11H23ZM266 10H24V12H266V10ZM279 23C272.373 23 267 17.6274 267 11H265C265 18.732 271.268 25 279 25V23ZM280 398V24H278V398H280ZM267 411C267 404.373 272.373 399 279 399V397C271.268 397 265 403.268 265 411H267ZM24 412H266V410H24V412ZM11 399C17.6274 399 23 404.373 23 411H25C25 403.268 18.732 397 11 397V399ZM10 24V398H12V24H10Z" fill="#001F10" mask="url(#path-13-outside-1_535_1809)"/>
<path d="M229.256 363.006C228.084 363.09 226.255 364.891 225.487 365.781L224.439 369.655L225.487 372.377L229.623 375.048H232.816L245.644 371.54L255.382 369.655L260.984 369.027L248.052 367.09L232.816 363.006C232.118 362.971 230.429 362.922 229.256 363.006Z" fill="#001F10"/>
<path fill-rule="evenodd" clip-rule="evenodd" d="M231.195 363.271C227.253 363.271 224.91 366.504 224.91 369H224C224 366.035 226.717 362.361 231.195 362.361C232.506 362.361 234.187 362.767 236.204 363.344C236.958 363.561 237.761 363.801 238.615 364.057C240.078 364.496 241.695 364.981 243.491 365.469C249.155 367.008 256.475 368.545 265.595 368.545V369.455C256.369 369.455 248.965 367.9 243.252 366.347C241.45 365.857 239.804 365.364 238.331 364.922C237.48 364.667 236.686 364.43 235.953 364.22C233.923 363.638 232.36 363.271 231.195 363.271Z" fill="#001F10"/>
<path fill-rule="evenodd" clip-rule="evenodd" d="M231.195 374.729C227.253 374.729 224.91 371.496 224.91 369H224C224 371.966 226.717 375.64 231.195 375.64C232.506 375.64 234.187 375.233 236.204 374.656C236.958 374.439 237.761 374.199 238.615 373.943C240.078 373.504 241.695 373.02 243.491 372.531C249.155 370.992 256.475 369.455 265.595 369.455V368.545C256.369 368.545 248.965 370.1 243.252 371.653C241.45 372.143 239.804 372.636 238.331 373.078C237.48 373.333 236.686 373.571 235.953 373.781C233.923 374.362 232.36 374.729 231.195 374.729Z" fill="black"/>
<path fill-rule="evenodd" clip-rule="evenodd" d="M231.195 374.729C227.253 374.729 224.91 371.496 224.91 369H224C224 371.966 226.717 375.64 231.195 375.64C232.506 375.64 234.187 375.233 236.204 374.656C236.958 374.439 237.761 374.199 238.615 373.943C240.078 373.504 241.695 373.02 243.491 372.531C249.155 370.992 256.475 369.455 265.595 369.455V368.545C256.369 368.545 248.965 370.1 243.252 371.653C241.45 372.143 239.804 372.636 238.331 373.078C237.48 373.333 236.686 373.571 235.953 373.781C233.923 374.362 232.36 374.729 231.195 374.729Z" fill="#001F10"/>
<path d="M259.206 359.584C258.593 358.543 257.67 356.455 254.484 356.455C253.915 356.455 250.586 356.938 250.586 361.262C251.013 367.635 262.477 369 269.39 369C261.766 369 261.282 363.112 259.206 359.584Z" fill="#001F10"/>
<path fill-rule="evenodd" clip-rule="evenodd" d="M251.041 361.247C251.142 362.681 251.857 363.849 253.021 364.808C254.199 365.779 255.825 366.525 257.687 367.085C259.798 367.72 262.174 368.104 264.462 368.318C263.337 367.68 262.504 366.822 261.844 365.875C261.149 364.878 260.641 363.775 260.184 362.725C260.114 362.564 260.045 362.405 259.977 362.248C259.595 361.363 259.239 360.538 258.814 359.815C258.763 359.728 258.711 359.637 258.658 359.543C258.372 359.042 258.043 358.464 257.501 357.963C256.88 357.39 255.963 356.91 254.484 356.91M269.39 368.545C267.544 368.545 266.16 368.189 265.087 367.622C264.014 367.056 263.226 366.265 262.591 365.355C261.952 364.438 261.474 363.408 261.018 362.362C260.951 362.208 260.884 362.053 260.818 361.898C260.437 361.016 260.055 360.129 259.598 359.353C259.556 359.282 259.511 359.202 259.462 359.116C259.18 358.616 258.774 357.9 258.119 357.295C257.328 356.564 256.19 356 254.484 356H254.484C254.127 356 253.052 356.139 252.053 356.87C251.025 357.622 250.131 358.964 250.131 361.262V361.278L250.132 361.293C250.249 363.038 251.126 364.426 252.443 365.511C253.75 366.589 255.503 367.379 257.425 367.957C261.269 369.113 265.913 369.455 269.39 369.455V368.545ZM251.041 361.247C251.045 359.231 251.813 358.174 252.59 357.605C253.398 357.013 254.272 356.91 254.484 356.91" fill="#001F10"/>
<path d="M259.206 378.416C258.593 379.458 257.67 381.545 254.484 381.545C253.915 381.545 250.586 381.062 250.586 376.738C251.013 370.365 262.477 369 269.39 369C261.766 369 261.282 374.889 259.206 378.416Z" fill="#001F10"/>
<path fill-rule="evenodd" clip-rule="evenodd" d="M251.041 376.753C251.142 375.319 251.857 374.151 253.021 373.192C254.199 372.221 255.825 371.475 257.687 370.915C259.798 370.28 262.174 369.896 264.462 369.682C263.337 370.32 262.504 371.178 261.844 372.125C261.149 373.122 260.641 374.225 260.184 375.275C260.114 375.436 260.045 375.595 259.977 375.752C259.595 376.637 259.239 377.462 258.814 378.185C258.763 378.272 258.711 378.363 258.658 378.457C258.372 378.958 258.043 379.536 257.501 380.037C256.88 380.61 255.963 381.09 254.484 381.09M269.39 369.455C267.544 369.455 266.16 369.811 265.087 370.378C264.014 370.944 263.226 371.735 262.591 372.645C261.952 373.562 261.474 374.592 261.018 375.638C260.951 375.792 260.884 375.947 260.818 376.102C260.437 376.984 260.055 377.871 259.598 378.647C259.556 378.718 259.511 378.798 259.462 378.884C259.18 379.384 258.774 380.1 258.119 380.705C257.328 381.436 256.19 382 254.484 382H254.484C254.127 382 253.052 381.861 252.053 381.13C251.025 380.378 250.131 379.036 250.131 376.738V376.722L250.132 376.707C250.249 374.962 251.126 373.574 252.443 372.489C253.75 371.411 255.503 370.621 257.425 370.043C261.269 368.887 265.913 368.545 269.39 368.545V369.455ZM251.041 376.753C251.045 378.769 251.813 379.826 252.59 380.395C253.398 380.987 254.272 381.09 254.484 381.09" fill="#001F10"/>
<path d="M45 64.4048C45 70.2841 45.9 75.9813 47.2696 80.1306C49.1741 85.8278 53.2569 88 59.9615 88C68.1271 88 71.662 85.8278 71.662 82.4849C71.662 81.1322 71.2968 80.1306 70.5793 79.051L70.6707 78.4136C73.3056 80.0395 77.1144 81.2102 84.4452 81.2102C89.7932 81.2102 94.1499 80.2997 98.4936 78.8559C101.298 79.7534 104.116 80.1176 106.111 80.1176C110.468 80.1176 112.359 77.8543 112.359 75.1488C112.359 74.1603 111.812 73.2497 111.185 72.5213C114.903 72.0661 116.716 69.6337 116.716 67.3704C116.716 65.7445 116.351 64.6649 115.451 63.8455C120.799 62.7659 123.343 60.1384 123.343 56.4313C123.343 52.7242 121.438 50.8252 119.26 49.2903C120.251 49.1993 121.073 49.0172 122.247 48.744C123.877 49.1082 125.782 49.5635 128.325 49.5635C130.869 49.5635 132.773 49.1993 133.765 48.8351C135.03 49.1082 136.843 49.2903 138.382 49.2903C143 49.2903 146 48.2107 146 44.6857C146 41.1608 142.83 38 113.99 38C96.2239 38 83.6234 40.0812 71.649 45.8694L70.1098 45.141C68.7532 41.9802 64.2139 41.525 59.5963 41.525C52.8003 41.525 48.9915 43.6972 47.0871 49.2123C45.6392 53.5567 45 59.0718 45 64.4048ZM69.1184 61.5172C69.1184 56.2752 69.9402 48.679 76.4622 45.9605C84.4452 42.6176 95.1413 39.9901 113.638 39.9901C141.656 39.9901 144.096 42.6176 144.096 44.5166C144.096 46.4157 142.465 46.5978 140.287 46.5978C138.108 46.5978 135.213 46.0515 133.673 45.154C132.408 45.8824 130.686 46.2336 128.599 46.2336C126.512 46.2336 123.525 45.6873 122.886 44.9719C120.251 46.7799 116.273 47.7685 108.472 46.4157C106.111 44.6988 100.489 41.9802 93.5108 43.8793L93.6934 45.3231C98.7675 44.1524 104.481 46.1426 108.107 48.3018L117.173 49.2903C116.99 52.9974 114.994 55.7159 110.011 55.7159C105.029 55.7159 101.585 53.2706 99.2241 50.6561C98.4936 52.0999 94.15 54.5453 91.1498 53.999C90.0672 59.2409 85.7105 64.2097 78.5493 66.2908V66.8371C84.1713 67.1103 85.7104 68.281 86.9757 70.5442C88.6062 73.4318 90.8759 75.9683 93.6804 76.4235C94.3195 76.8788 95.0369 77.334 95.6761 77.6852C93.4977 78.2315 90.6933 78.5957 88.5149 78.5957C80.545 78.5957 69.1184 77.334 69.1184 61.5172ZM108.916 62.5968C104.298 62.5968 95.05 60.8798 95.05 57.1727C95.05 55.911 96.6805 54.2851 98.7675 54.2851C100.672 55.911 104.937 58.0832 109.738 58.0832C114.994 58.0832 118.347 54.5583 118.073 50.487C120.068 51.9308 121.334 53.8299 121.334 55.82C121.347 59.2539 118.347 62.5968 108.916 62.5968ZM108.655 48.9391C108.564 52.0999 109.829 54.1811 115.007 53.1925L115.099 52.7373C113.103 52.7373 109.751 50.8382 109.203 48.9391H108.655ZM110.194 70.7393C104.024 70.7393 91.8803 68.1119 91.8803 64.1446C91.8803 62.3366 93.3281 60.8928 95.2326 60.8928C97.8675 62.3366 102.12 64.5088 108.838 64.5088C110.651 64.5088 112.372 64.4178 113.82 64.2357C114.459 64.782 114.812 65.6795 114.812 66.9412C114.812 68.8403 112.816 70.7393 110.194 70.7393ZM106.02 78.3226C102.029 78.3226 91.1498 74.6155 91.1498 71.1816C91.1498 69.6467 92.2325 68.8273 93.6934 68.8273C97.5936 70.9995 103.842 72.5343 109.19 72.6254C109.829 73.0806 110.181 74.1603 110.181 75.0708C110.194 76.7877 108.916 78.3226 106.02 78.3226ZM102.485 60.7888C104.116 60.3335 104.755 58.9808 103.476 57.3548H103.111C103.111 58.2523 102.563 60.2425 102.198 60.6067L102.485 60.7888ZM99.6806 68.1119C102.224 67.4745 102.759 66.1217 101.129 63.9495L100.672 64.0406C100.855 65.4844 100.581 67.2014 99.498 67.8387L99.6806 68.1119ZM98.7675 71.6368C98.7675 72.8985 98.311 74.4334 97.0457 74.9797L97.2283 75.2529C99.224 75.0708 100.581 74.0822 99.3154 71.6368H98.7675ZM59.3354 63.4162C59.3354 53.1145 61.5138 46.2336 67.1357 46.2336C68.1271 46.2336 69.0402 46.5068 69.9402 47.2222C66.7705 50.9292 65.5835 56.8996 65.5835 62.0505C65.5835 67.2014 66.9401 73.6269 69.2097 77.5031C69.2097 80.5728 67.3966 82.4719 65.4922 82.4719C61.9572 82.4849 59.3354 75.7992 59.3354 63.4162ZM63.4964 77.6072C63.4964 78.5957 64.2269 79.3241 65.2183 79.3241C66.1313 79.3241 66.8488 78.5957 66.8488 77.6072C66.8488 76.6967 66.1183 75.9813 65.2183 75.9813C64.2269 75.9813 63.4964 76.6967 63.4964 77.6072Z" fill="#001F10"/>
</svg>
