<svg width="322" height="410" viewBox="0 0 322 410" fill="none" xmlns="http://www.w3.org/2000/svg">
<path fill-rule="evenodd" clip-rule="evenodd" d="M1 15C8.73199 15 15 8.73199 15 1H307C307 8.73199 313.268 15 321 15V395C313.268 395 307 401.268 307 409H15C15 401.268 8.73199 395 1 395V15Z" fill="#FFE227"/>
<path d="M15 1V0.5H14.5V1H15ZM1 15V14.5H0.5V15H1ZM307 1H307.5V0.5H307V1ZM321 15H321.5V14.5H321V15ZM321 395V395.5H321.5V395H321ZM307 409V409.5H307.5V409H307ZM15 409H14.5V409.5H15V409ZM1 395H0.5V395.5H1V395ZM14.5 1C14.5 8.45584 8.45584 14.5 1 14.5V15.5C9.00813 15.5 15.5 9.00813 15.5 1H14.5ZM15 1.5H307V0.5H15V1.5ZM306.5 1C306.5 9.00813 312.992 15.5 321 15.5V14.5C313.544 14.5 307.5 8.45584 307.5 1H306.5ZM320.5 15V395H321.5V15H320.5ZM321 394.5C312.992 394.5 306.5 400.992 306.5 409H307.5C307.5 401.544 313.544 395.5 321 395.5V394.5ZM307 408.5H15V409.5H307V408.5ZM15.5 409C15.5 400.992 9.00813 394.5 1 394.5V395.5C8.45584 395.5 14.5 401.544 14.5 409H15.5ZM1.5 395V15H0.5V395H1.5Z" fill="#001F10"/>
<path d="M55.2783 364.524H49.2259V362.666C49.2259 361.799 49.1485 361.247 48.9937 361.01C48.8389 360.773 48.5809 360.654 48.2197 360.654C47.8276 360.654 47.5283 360.814 47.3219 361.134C47.1259 361.454 47.0278 361.939 47.0278 362.589C47.0278 363.425 47.1413 364.054 47.3684 364.477C47.5851 364.9 48.1991 365.411 49.2104 366.01C52.1102 367.733 53.9368 369.147 54.6901 370.251C55.4434 371.355 55.8201 373.135 55.8201 375.592C55.8201 377.377 55.6086 378.693 55.1854 379.539C54.7727 380.385 53.9677 381.097 52.7707 381.675C51.5736 382.243 50.1805 382.526 48.5912 382.526C46.8472 382.526 45.3561 382.196 44.1177 381.536C42.8897 380.875 42.0848 380.034 41.7029 379.012C41.3211 377.991 41.1302 376.541 41.1302 374.663V373.022H47.1826V376.071C47.1826 377.01 47.2652 377.614 47.4303 377.882C47.6057 378.151 47.9102 378.285 48.3436 378.285C48.777 378.285 49.0969 378.115 49.3033 377.774C49.52 377.434 49.6284 376.928 49.6284 376.257C49.6284 374.781 49.4271 373.817 49.0247 373.363C48.6119 372.908 47.5954 372.15 45.9752 371.087C44.3551 370.014 43.2818 369.235 42.7555 368.75C42.2292 368.265 41.7906 367.594 41.4398 366.737C41.0992 365.881 40.929 364.787 40.929 363.456C40.929 361.536 41.1715 360.133 41.6565 359.245C42.1518 358.358 42.9464 357.666 44.0403 357.171C45.1342 356.665 46.4551 356.413 48.003 356.413C49.6954 356.413 51.135 356.686 52.3218 357.233C53.5188 357.78 54.3083 358.471 54.6901 359.307C55.0823 360.133 55.2783 361.541 55.2783 363.533V364.524ZM73.0951 367.867H66.5783V363.502C66.5783 362.233 66.506 361.443 66.3615 361.134C66.2274 360.814 65.923 360.654 65.4483 360.654C64.9116 360.654 64.5711 360.845 64.4266 361.227C64.2822 361.609 64.2099 362.434 64.2099 363.703V375.344C64.2099 376.562 64.2822 377.356 64.4266 377.728C64.5711 378.099 64.8962 378.285 65.4018 378.285C65.8868 378.285 66.2016 378.099 66.3461 377.728C66.5009 377.356 66.5783 376.484 66.5783 375.112V371.969H73.0951V372.945C73.0951 375.535 72.9093 377.372 72.5378 378.455C72.1766 379.539 71.3665 380.488 70.1075 381.303C68.8589 382.119 67.3161 382.526 65.4792 382.526C63.5701 382.526 61.9964 382.181 60.758 381.489C59.5197 380.798 58.6993 379.843 58.2968 378.625C57.8943 377.397 57.6931 375.555 57.6931 373.099V365.778C57.6931 363.972 57.755 362.62 57.8789 361.722C58.0027 360.814 58.369 359.942 58.9779 359.106C59.5971 358.27 60.4484 357.615 61.532 357.14C62.6259 356.655 63.8797 356.413 65.2935 356.413C67.2129 356.413 68.797 356.784 70.0456 357.527C71.2943 358.27 72.1147 359.199 72.5068 360.313C72.899 361.418 73.0951 363.141 73.0951 365.484V367.867ZM90.4165 356.939V382H83.8997V371.474H81.9493V382H75.4324V356.939H81.9493V365.901H83.8997V356.939H90.4165ZM93.048 356.939H103.914V361.954H99.5648V366.706H103.636V371.474H99.5648V376.985H104.348V382H93.048V356.939ZM106.236 356.939H111.112C114.26 356.939 116.386 357.083 117.49 357.372C118.604 357.661 119.451 358.136 120.028 358.796C120.606 359.457 120.968 360.195 121.112 361.01C121.257 361.815 121.329 363.404 121.329 365.778V374.554C121.329 376.804 121.22 378.311 121.004 379.074C120.797 379.828 120.431 380.421 119.905 380.855C119.378 381.278 118.728 381.577 117.954 381.752C117.18 381.917 116.014 382 114.456 382H106.236V356.939ZM112.753 361.227V377.712C113.692 377.712 114.27 377.526 114.487 377.155C114.704 376.773 114.812 375.746 114.812 374.075V364.338C114.812 363.203 114.776 362.475 114.704 362.155C114.631 361.836 114.466 361.603 114.208 361.459C113.95 361.304 113.465 361.227 112.753 361.227ZM138.573 356.939V373.688C138.573 375.586 138.511 376.923 138.387 377.697C138.263 378.46 137.897 379.25 137.288 380.065C136.679 380.87 135.874 381.484 134.873 381.907C133.883 382.32 132.711 382.526 131.359 382.526C129.863 382.526 128.542 382.279 127.397 381.783C126.251 381.288 125.395 380.643 124.827 379.848C124.26 379.054 123.924 378.218 123.821 377.341C123.718 376.453 123.666 374.596 123.666 371.768V356.939H130.183V375.731C130.183 376.825 130.24 377.526 130.353 377.836C130.477 378.135 130.72 378.285 131.081 378.285C131.494 378.285 131.757 378.12 131.87 377.79C131.994 377.449 132.056 376.654 132.056 375.406V356.939H138.573ZM147.613 356.939V376.985H151.575V382H141.096V356.939H147.613ZM153.17 356.939H164.036V361.954H159.687V366.706H163.758V371.474H159.687V376.985H164.47V382H153.17V356.939ZM186.512 356.939V382H180.8L177.41 370.607V382H171.962V356.939H177.41L181.064 368.223V356.939H186.512ZM204.035 371.613C204.035 374.131 203.973 375.917 203.849 376.969C203.736 378.011 203.364 378.966 202.735 379.833C202.116 380.7 201.274 381.365 200.212 381.83C199.149 382.294 197.91 382.526 196.497 382.526C195.155 382.526 193.948 382.31 192.874 381.876C191.811 381.432 190.955 380.772 190.305 379.895C189.655 379.018 189.268 378.063 189.144 377.031C189.02 375.999 188.958 374.193 188.958 371.613V367.326C188.958 364.808 189.015 363.027 189.128 361.985C189.252 360.933 189.624 359.973 190.243 359.106C190.872 358.239 191.719 357.574 192.781 357.109C193.844 356.645 195.083 356.413 196.497 356.413C197.838 356.413 199.04 356.634 200.103 357.078C201.176 357.512 202.038 358.167 202.688 359.044C203.338 359.921 203.725 360.876 203.849 361.908C203.973 362.94 204.035 364.746 204.035 367.326V371.613ZM197.518 363.378C197.518 362.212 197.451 361.469 197.317 361.149C197.193 360.819 196.93 360.654 196.527 360.654C196.187 360.654 195.924 360.788 195.738 361.056C195.563 361.314 195.475 362.088 195.475 363.378V375.081C195.475 376.536 195.532 377.434 195.645 377.774C195.769 378.115 196.048 378.285 196.481 378.285C196.925 378.285 197.209 378.089 197.332 377.697C197.456 377.305 197.518 376.371 197.518 374.895V363.378ZM231 356.939L228.105 382H219.963C219.22 378.151 218.565 373.775 217.997 368.874C217.739 370.968 217.136 375.344 216.186 382H208.091L205.18 356.939H211.511L212.177 365.685L212.858 374.121C213.096 369.756 213.694 364.028 214.654 356.939H221.434C221.527 357.672 221.764 360.427 222.146 365.205L222.858 374.725C223.219 368.667 223.823 362.739 224.669 356.939H231Z" fill="#001F10"/>
<path d="M243.256 363.506C242.084 363.59 240.255 365.391 239.487 366.281L238.439 370.155L239.487 372.877L243.623 375.548H246.816L259.644 372.04L269.382 370.155L274.984 369.527L262.052 367.59L246.816 363.506C246.118 363.471 244.429 363.422 243.256 363.506Z" fill="#001F10"/>
<path fill-rule="evenodd" clip-rule="evenodd" d="M245.195 363.771C241.253 363.771 238.91 367.004 238.91 369.5H238C238 366.535 240.717 362.861 245.195 362.861C246.506 362.861 248.187 363.267 250.204 363.844C250.958 364.061 251.761 364.301 252.615 364.557C254.078 364.996 255.695 365.481 257.491 365.969C263.155 367.508 270.475 369.045 279.595 369.045V369.955C270.369 369.955 262.965 368.4 257.252 366.847C255.45 366.357 253.804 365.864 252.331 365.422C251.48 365.167 250.686 364.93 249.953 364.72C247.923 364.138 246.36 363.771 245.195 363.771Z" fill="#001F10"/>
<path fill-rule="evenodd" clip-rule="evenodd" d="M245.195 375.229C241.253 375.229 238.91 371.996 238.91 369.5H238C238 372.466 240.717 376.14 245.195 376.14C246.506 376.14 248.187 375.733 250.204 375.156C250.958 374.939 251.761 374.699 252.615 374.443C254.078 374.004 255.695 373.52 257.491 373.031C263.155 371.492 270.475 369.955 279.595 369.955V369.045C270.369 369.045 262.965 370.6 257.252 372.153C255.45 372.643 253.804 373.136 252.331 373.578C251.48 373.833 250.686 374.071 249.953 374.281C247.923 374.862 246.36 375.229 245.195 375.229Z" fill="black"/>
<path fill-rule="evenodd" clip-rule="evenodd" d="M245.195 375.229C241.253 375.229 238.91 371.996 238.91 369.5H238C238 372.466 240.717 376.14 245.195 376.14C246.506 376.14 248.187 375.733 250.204 375.156C250.958 374.939 251.761 374.699 252.615 374.443C254.078 374.004 255.695 373.52 257.491 373.031C263.155 371.492 270.475 369.955 279.595 369.955V369.045C270.369 369.045 262.965 370.6 257.252 372.153C255.45 372.643 253.804 373.136 252.331 373.578C251.48 373.833 250.686 374.071 249.953 374.281C247.923 374.862 246.36 375.229 245.195 375.229Z" fill="#001F10"/>
<path d="M273.206 360.084C272.593 359.043 271.67 356.955 268.484 356.955C267.915 356.955 264.586 357.438 264.586 361.762C265.013 368.135 276.477 369.5 283.39 369.5C275.766 369.5 275.282 363.612 273.206 360.084Z" fill="#001F10"/>
<path fill-rule="evenodd" clip-rule="evenodd" d="M265.041 361.747C265.142 363.181 265.857 364.349 267.021 365.308C268.199 366.279 269.825 367.025 271.687 367.585C273.798 368.22 276.174 368.604 278.462 368.818C277.337 368.18 276.504 367.322 275.844 366.375C275.149 365.378 274.641 364.275 274.184 363.225C274.114 363.064 274.045 362.905 273.977 362.748C273.595 361.863 273.239 361.038 272.814 360.315C272.763 360.228 272.711 360.137 272.658 360.043C272.372 359.542 272.043 358.964 271.501 358.463C270.88 357.89 269.963 357.41 268.484 357.41M283.39 369.045C281.544 369.045 280.16 368.689 279.087 368.122C278.014 367.556 277.226 366.765 276.591 365.855C275.952 364.938 275.474 363.908 275.018 362.862C274.951 362.708 274.884 362.553 274.818 362.398C274.437 361.516 274.055 360.629 273.598 359.853C273.556 359.782 273.511 359.702 273.462 359.616C273.18 359.116 272.774 358.4 272.119 357.795C271.328 357.064 270.19 356.5 268.484 356.5H268.484C268.127 356.5 267.052 356.639 266.053 357.37C265.025 358.122 264.131 359.464 264.131 361.762V361.778L264.132 361.793C264.249 363.538 265.126 364.926 266.443 366.011C267.75 367.089 269.503 367.879 271.425 368.457C275.269 369.613 279.913 369.955 283.39 369.955V369.045ZM265.041 361.747C265.045 359.731 265.813 358.674 266.59 358.105C267.398 357.513 268.272 357.41 268.484 357.41" fill="#001F10"/>
<path d="M273.206 378.916C272.593 379.958 271.67 382.045 268.484 382.045C267.915 382.045 264.586 381.562 264.586 377.238C265.013 370.865 276.477 369.5 283.39 369.5C275.766 369.5 275.282 375.389 273.206 378.916Z" fill="#001F10"/>
<path fill-rule="evenodd" clip-rule="evenodd" d="M265.041 377.253C265.142 375.819 265.857 374.651 267.021 373.692C268.199 372.721 269.825 371.975 271.687 371.415C273.798 370.78 276.174 370.396 278.462 370.182C277.337 370.82 276.504 371.678 275.844 372.625C275.149 373.622 274.641 374.725 274.184 375.775C274.114 375.936 274.045 376.095 273.977 376.252C273.595 377.137 273.239 377.962 272.814 378.685C272.763 378.772 272.711 378.863 272.658 378.957C272.372 379.458 272.043 380.036 271.501 380.537C270.88 381.11 269.963 381.59 268.484 381.59M283.39 369.955C281.544 369.955 280.16 370.311 279.087 370.878C278.014 371.444 277.226 372.235 276.591 373.145C275.952 374.062 275.474 375.092 275.018 376.138C274.951 376.292 274.884 376.447 274.818 376.602C274.437 377.484 274.055 378.371 273.598 379.147C273.556 379.218 273.511 379.298 273.462 379.384C273.18 379.884 272.774 380.6 272.119 381.205C271.328 381.936 270.19 382.5 268.484 382.5H268.484C268.127 382.5 267.052 382.361 266.053 381.63C265.025 380.878 264.131 379.536 264.131 377.238V377.222L264.132 377.207C264.249 375.462 265.126 374.074 266.443 372.989C267.75 371.911 269.503 371.121 271.425 370.543C275.269 369.387 279.913 369.045 283.39 369.045V369.955ZM265.041 377.253C265.045 379.269 265.813 380.326 266.59 380.895C267.398 381.487 268.272 381.59 268.484 381.59" fill="#001F10"/>
<rect x="21" y="160" width="280" height="180" fill="#001F10"/>
<path d="M40.4965 207.376C39.1648 207.376 38.0603 207.133 37.183 206.647C36.3057 206.162 35.6163 205.48 35.115 204.603C34.6137 203.71 34.2533 202.652 34.034 201.43C33.8303 200.193 33.7285 198.822 33.7285 197.318L38.5225 196.848C38.5225 197.522 38.546 198.203 38.593 198.892C38.64 199.566 38.7262 200.193 38.8515 200.772C38.9925 201.352 39.1962 201.822 39.4625 202.182C39.7288 202.543 40.0735 202.723 40.4965 202.723C41.1858 202.723 41.6715 202.386 41.9535 201.712C42.2355 201.039 42.3765 200.201 42.3765 199.198C42.3765 198.148 42.1258 197.067 41.6245 195.955C41.1232 194.827 40.4965 193.707 39.7445 192.594C38.6478 191.075 37.6765 189.633 36.8305 188.27C36.0002 186.907 35.35 185.568 34.88 184.252C34.41 182.92 34.175 181.557 34.175 180.163C34.175 179.051 34.3082 178.009 34.5745 177.037C34.8408 176.066 35.2403 175.212 35.773 174.476C36.3057 173.724 36.9558 173.136 37.7235 172.713C38.5068 172.29 39.4155 172.079 40.4495 172.079C41.7185 172.079 42.7838 172.306 43.6455 172.76C44.5072 173.215 45.1965 173.857 45.7135 174.687C46.2305 175.518 46.5987 176.489 46.818 177.601C47.053 178.714 47.1705 179.928 47.1705 181.244L42.3765 181.714C42.3765 181.181 42.353 180.625 42.306 180.045C42.259 179.466 42.165 178.925 42.024 178.424C41.8987 177.923 41.7185 177.515 41.4835 177.202C41.2485 176.889 40.9352 176.732 40.5435 176.732C39.9482 176.732 39.5408 177.022 39.3215 177.601C39.1022 178.165 38.9925 178.957 38.9925 179.975C38.9925 181.26 39.3137 182.521 39.956 183.758C40.614 184.98 41.507 186.414 42.635 188.059C43.9823 190.002 45.079 191.788 45.925 193.417C46.771 195.031 47.194 196.801 47.194 198.728C47.194 199.887 47.0687 200.992 46.818 202.041C46.583 203.091 46.1913 204.015 45.643 204.814C45.1103 205.598 44.421 206.224 43.575 206.694C42.7447 207.149 41.7185 207.376 40.4965 207.376ZM56.0201 207.376C54.6101 207.376 53.4273 207.047 52.4716 206.389C51.5159 205.715 50.7953 204.822 50.3096 203.71C49.8396 202.582 49.6046 201.336 49.6046 199.973V179.481C49.6046 178.134 49.8474 176.904 50.3331 175.792C50.8344 174.664 51.5629 173.763 52.5186 173.089C53.4899 172.416 54.6571 172.079 56.0201 172.079C57.0541 172.079 57.9628 172.283 58.7461 172.69C59.5451 173.097 60.2188 173.646 60.7671 174.335C61.3154 175.024 61.7306 175.815 62.0126 176.708C62.2946 177.586 62.4356 178.51 62.4356 179.481V184.299H57.8531V179.458C57.8531 178.784 57.7199 178.212 57.4536 177.742C57.2029 177.257 56.7564 177.014 56.1141 177.014C55.5344 177.014 55.1193 177.265 54.8686 177.766C54.6179 178.252 54.4926 178.816 54.4926 179.458V199.997C54.4926 200.639 54.6258 201.211 54.8921 201.712C55.1584 202.198 55.5658 202.441 56.1141 202.441C56.7564 202.441 57.2029 202.206 57.4536 201.736C57.7199 201.25 57.8531 200.671 57.8531 199.997V195.156H62.4356V199.973C62.4356 201.352 62.1849 202.605 61.6836 203.733C61.1823 204.846 60.4538 205.731 59.4981 206.389C58.5424 207.047 57.3831 207.376 56.0201 207.376ZM65.6745 207V172.455H70.5625V186.743H74.111V172.455H78.999V207H74.111V191.96H70.5625V207H65.6745ZM82.4734 207V172.455H93.4714V177.672H87.3614V186.978H91.7794V192.054H87.3614V201.783H93.4714V207H82.4734ZM96.9314 207V172.455H101.749C103.331 172.455 104.663 172.745 105.744 173.324C106.841 173.888 107.71 174.836 108.352 176.168C109.01 177.484 109.48 179.254 109.762 181.479C110.044 183.704 110.185 186.461 110.185 189.751C110.185 193.072 110.044 195.845 109.762 198.07C109.48 200.295 109.01 202.057 108.352 203.357C107.694 204.658 106.825 205.59 105.744 206.154C104.663 206.718 103.331 207 101.749 207H96.9314ZM101.819 201.924C102.947 201.924 103.746 201.43 104.216 200.443C104.686 199.456 104.968 198.046 105.062 196.213C105.172 194.38 105.227 192.211 105.227 189.704C105.227 187.166 105.172 184.988 105.062 183.171C104.968 181.354 104.679 179.959 104.193 178.988C103.723 178.017 102.932 177.531 101.819 177.531V201.924ZM119.962 207.376C118.568 207.376 117.393 207.055 116.437 206.412C115.481 205.754 114.761 204.869 114.275 203.757C113.789 202.629 113.547 201.368 113.547 199.973V172.455H118.435V199.973C118.435 200.647 118.552 201.227 118.787 201.712C119.022 202.198 119.414 202.441 119.962 202.441C120.542 202.441 120.941 202.198 121.161 201.712C121.38 201.227 121.49 200.647 121.49 199.973V172.455H126.378V199.973C126.378 201.368 126.135 202.629 125.649 203.757C125.163 204.869 124.443 205.754 123.487 206.412C122.531 207.055 121.356 207.376 119.962 207.376ZM129.841 207V172.455H134.729V202.3H141.003V207H129.841ZM143.059 207V172.455H154.057V177.672H147.947V186.978H152.365V192.054H147.947V201.783H154.057V207H143.059ZM163.439 207L168.35 172.455H174.296L179.207 207H174.413L173.544 199.95H169.102L168.233 207H163.439ZM169.737 194.686H172.909L171.57 182.771L171.452 181.103H171.194L171.076 182.771L169.737 194.686ZM194.348 207.376C193.016 207.376 191.912 207.133 191.035 206.647C190.157 206.162 189.468 205.48 188.967 204.603C188.465 203.71 188.105 202.652 187.886 201.43C187.682 200.193 187.58 198.822 187.58 197.318L192.374 196.848C192.374 197.522 192.398 198.203 192.445 198.892C192.492 199.566 192.578 200.193 192.703 200.772C192.844 201.352 193.048 201.822 193.314 202.182C193.58 202.543 193.925 202.723 194.348 202.723C195.037 202.723 195.523 202.386 195.805 201.712C196.087 201.039 196.228 200.201 196.228 199.198C196.228 198.148 195.977 197.067 195.476 195.955C194.975 194.827 194.348 193.707 193.596 192.594C192.499 191.075 191.528 189.633 190.682 188.27C189.852 186.907 189.202 185.568 188.732 184.252C188.262 182.92 188.027 181.557 188.027 180.163C188.027 179.051 188.16 178.009 188.426 177.037C188.692 176.066 189.092 175.212 189.625 174.476C190.157 173.724 190.807 173.136 191.575 172.713C192.358 172.29 193.267 172.079 194.301 172.079C195.57 172.079 196.635 172.306 197.497 172.76C198.359 173.215 199.048 173.857 199.565 174.687C200.082 175.518 200.45 176.489 200.67 177.601C200.905 178.714 201.022 179.928 201.022 181.244L196.228 181.714C196.228 181.181 196.205 180.625 196.158 180.045C196.111 179.466 196.017 178.925 195.876 178.424C195.75 177.923 195.57 177.515 195.335 177.202C195.1 176.889 194.787 176.732 194.395 176.732C193.8 176.732 193.392 177.022 193.173 177.601C192.954 178.165 192.844 178.957 192.844 179.975C192.844 181.26 193.165 182.521 193.808 183.758C194.466 184.98 195.359 186.414 196.487 188.059C197.834 190.002 198.931 191.788 199.777 193.417C200.623 195.031 201.046 196.801 201.046 198.728C201.046 199.887 200.92 200.992 200.67 202.041C200.435 203.091 200.043 204.015 199.495 204.814C198.962 205.598 198.273 206.224 197.427 206.694C196.596 207.149 195.57 207.376 194.348 207.376ZM203.691 207V172.455H214.689V177.672H208.579V186.978H212.997V192.054H208.579V201.783H214.689V207H203.691ZM223.907 207.376C222.575 207.376 221.47 207.133 220.593 206.647C219.716 206.162 219.026 205.48 218.525 204.603C218.024 203.71 217.663 202.652 217.444 201.43C217.24 200.193 217.139 198.822 217.139 197.318L221.933 196.848C221.933 197.522 221.956 198.203 222.003 198.892C222.05 199.566 222.136 200.193 222.262 200.772C222.403 201.352 222.606 201.822 222.873 202.182C223.139 202.543 223.484 202.723 223.907 202.723C224.596 202.723 225.082 202.386 225.364 201.712C225.646 201.039 225.787 200.201 225.787 199.198C225.787 198.148 225.536 197.067 225.035 195.955C224.533 194.827 223.907 193.707 223.155 192.594C222.058 191.075 221.087 189.633 220.241 188.27C219.41 186.907 218.76 185.568 218.29 184.252C217.82 182.92 217.585 181.557 217.585 180.163C217.585 179.051 217.718 178.009 217.985 177.037C218.251 176.066 218.65 175.212 219.183 174.476C219.716 173.724 220.366 173.136 221.134 172.713C221.917 172.29 222.826 172.079 223.86 172.079C225.129 172.079 226.194 172.306 227.056 172.76C227.917 173.215 228.607 173.857 229.124 174.687C229.641 175.518 230.009 176.489 230.228 177.601C230.463 178.714 230.581 179.928 230.581 181.244L225.787 181.714C225.787 181.181 225.763 180.625 225.716 180.045C225.669 179.466 225.575 178.925 225.434 178.424C225.309 177.923 225.129 177.515 224.894 177.202C224.659 176.889 224.345 176.732 223.954 176.732C223.358 176.732 222.951 177.022 222.732 177.601C222.512 178.165 222.403 178.957 222.403 179.975C222.403 181.26 222.724 182.521 223.366 183.758C224.024 184.98 224.917 186.414 226.045 188.059C227.392 190.002 228.489 191.788 229.335 193.417C230.181 195.031 230.604 196.801 230.604 198.728C230.604 199.887 230.479 200.992 230.228 202.041C229.993 203.091 229.601 204.015 229.053 204.814C228.52 205.598 227.831 206.224 226.985 206.694C226.155 207.149 225.129 207.376 223.907 207.376ZM239.007 207.376C237.676 207.376 236.571 207.133 235.694 206.647C234.816 206.162 234.127 205.48 233.626 204.603C233.124 203.71 232.764 202.652 232.545 201.43C232.341 200.193 232.239 198.822 232.239 197.318L237.033 196.848C237.033 197.522 237.057 198.203 237.104 198.892C237.151 199.566 237.237 200.193 237.362 200.772C237.503 201.352 237.707 201.822 237.973 202.182C238.24 202.543 238.584 202.723 239.007 202.723C239.697 202.723 240.182 202.386 240.464 201.712C240.746 201.039 240.887 200.201 240.887 199.198C240.887 198.148 240.637 197.067 240.135 195.955C239.634 194.827 239.007 193.707 238.255 192.594C237.159 191.075 236.187 189.633 235.341 188.27C234.511 186.907 233.861 185.568 233.391 184.252C232.921 182.92 232.686 181.557 232.686 180.163C232.686 179.051 232.819 178.009 233.085 177.037C233.352 176.066 233.751 175.212 234.284 174.476C234.816 173.724 235.467 173.136 236.234 172.713C237.018 172.29 237.926 172.079 238.96 172.079C240.229 172.079 241.295 172.306 242.156 172.76C243.018 173.215 243.707 173.857 244.224 174.687C244.741 175.518 245.109 176.489 245.329 177.601C245.564 178.714 245.681 179.928 245.681 181.244L240.887 181.714C240.887 181.181 240.864 180.625 240.817 180.045C240.77 179.466 240.676 178.925 240.535 178.424C240.409 177.923 240.229 177.515 239.994 177.202C239.759 176.889 239.446 176.732 239.054 176.732C238.459 176.732 238.052 177.022 237.832 177.601C237.613 178.165 237.503 178.957 237.503 179.975C237.503 181.26 237.824 182.521 238.467 183.758C239.125 184.98 240.018 186.414 241.146 188.059C242.493 190.002 243.59 191.788 244.436 193.417C245.282 195.031 245.705 196.801 245.705 198.728C245.705 199.887 245.579 200.992 245.329 202.041C245.094 203.091 244.702 204.015 244.154 204.814C243.621 205.598 242.932 206.224 242.086 206.694C241.255 207.149 240.229 207.376 239.007 207.376ZM248.35 207V172.455H253.238V207H248.35ZM262.908 207.376C261.529 207.376 260.362 207.047 259.406 206.389C258.451 205.731 257.722 204.846 257.221 203.733C256.72 202.605 256.469 201.352 256.469 199.973V179.481C256.469 178.103 256.72 176.857 257.221 175.745C257.722 174.633 258.451 173.747 259.406 173.089C260.362 172.416 261.529 172.079 262.908 172.079C264.287 172.079 265.454 172.416 266.409 173.089C267.381 173.747 268.109 174.64 268.595 175.768C269.096 176.881 269.347 178.118 269.347 179.481V199.973C269.347 201.352 269.096 202.605 268.595 203.733C268.094 204.846 267.357 205.731 266.386 206.389C265.43 207.047 264.271 207.376 262.908 207.376ZM262.908 202.441C263.488 202.441 263.887 202.19 264.106 201.689C264.341 201.172 264.459 200.6 264.459 199.973V179.481C264.459 178.855 264.341 178.291 264.106 177.789C263.871 177.272 263.472 177.014 262.908 177.014C262.375 177.014 261.984 177.272 261.733 177.789C261.482 178.291 261.357 178.855 261.357 179.481V199.973C261.357 200.616 261.474 201.188 261.709 201.689C261.96 202.19 262.36 202.441 262.908 202.441ZM272.585 207V172.455H277.12L281.444 189.962L281.844 191.631H282.079V172.455H286.567V207H282.455L277.708 189.516L277.308 187.73H277.073V207H272.585Z" fill="#FFE227"/>
<path d="M34.982 249L30.658 214.455H35.217L37.003 232.409L37.097 233.537H37.4495L37.5905 232.409L39.588 214.455H43.207L45.228 232.409L45.3455 233.537H45.698L45.792 232.409L47.6015 214.455H52.1605L47.8365 249H43.9355L41.75 232.644L41.4915 230.623H41.3035L41.045 232.644L38.8595 249H34.982ZM54.5505 249V214.455H59.4385V249H54.5505ZM66.1235 249V219.672H61.635V214.455H75.5V219.672H71.0115V249H66.1235ZM77.7292 249V214.455H82.6172V228.743H86.1657V214.455H91.0537V249H86.1657V233.96H82.6172V249H77.7292ZM101.413 249V214.455H107.57L110.108 232.033L110.319 233.913H110.413L110.625 232.033L113.186 214.455H119.343V249H114.808V226.745H114.549L114.385 228.085L111.659 249H109.097L106.348 228.085L106.207 226.745H105.948V249H101.413ZM122.802 249V214.455H133.8V219.672H127.69V228.978H132.108V234.054H127.69V243.783H133.8V249H122.802ZM143.181 249L148.092 214.455H154.038L158.949 249H154.155L153.286 241.95H148.844L147.975 249H143.181ZM149.479 236.686H152.651L151.312 224.771L151.194 223.103H150.936L150.818 224.771L149.479 236.686ZM161.448 249V214.455H165.983L170.307 231.962L170.707 233.631H170.942V214.455H175.43V249H171.318L166.571 231.516L166.171 229.73H165.936V249H161.448ZM178.889 249V214.455H183.707C185.289 214.455 186.621 214.745 187.702 215.324C188.799 215.888 189.668 216.836 190.31 218.168C190.968 219.484 191.438 221.254 191.72 223.479C192.002 225.704 192.143 228.461 192.143 231.751C192.143 235.072 192.002 237.845 191.72 240.07C191.438 242.295 190.968 244.057 190.31 245.357C189.652 246.658 188.783 247.59 187.702 248.154C186.621 248.718 185.289 249 183.707 249H178.889ZM183.777 243.924C184.905 243.924 185.704 243.43 186.174 242.443C186.644 241.456 186.926 240.046 187.02 238.213C187.13 236.38 187.185 234.211 187.185 231.704C187.185 229.166 187.13 226.988 187.02 225.171C186.926 223.354 186.637 221.959 186.151 220.988C185.681 220.017 184.89 219.531 183.777 219.531V243.924ZM202.389 249V214.455H207.277V244.3H213.552V249H202.389ZM215.608 249V214.455H226.606V219.672H220.496V228.978H224.914V234.054H220.496V243.783H226.606V249H215.608ZM229.194 249L234.106 214.455H240.051L244.963 249H240.169L239.299 241.95H234.858L233.988 249H229.194ZM235.492 236.686H238.665L237.325 224.771L237.208 223.103H236.949L236.832 224.771L235.492 236.686ZM247.462 249V214.455H252.303C255.154 214.455 257.253 215.301 258.601 216.993C259.964 218.669 260.645 221.145 260.645 224.419C260.645 226.315 260.332 227.975 259.705 229.401C259.094 230.811 258.326 231.853 257.402 232.526L260.692 249H255.781L253.102 234.359H252.35V249H247.462ZM252.35 229.777C253.196 229.777 253.861 229.558 254.347 229.119C254.848 228.68 255.201 228.077 255.405 227.309C255.624 226.526 255.734 225.625 255.734 224.607C255.734 223.009 255.491 221.756 255.005 220.847C254.519 219.938 253.634 219.484 252.35 219.484V229.777ZM263.343 249V214.455H267.878L272.202 231.962L272.602 233.631H272.837V214.455H277.325V249H273.213L268.466 231.516L268.066 229.73H267.831V249H263.343Z" fill="#FFE227"/>
<path d="M32 279V260.625H34.7V268.225H36.8V260.625H39.5V279H36.8V271H34.7V279H32ZM45.7221 279.2C44.9721 279.2 44.3262 279.025 43.7846 278.675C43.2512 278.325 42.8387 277.85 42.5471 277.25C42.2637 276.65 42.1221 275.975 42.1221 275.225V264.4C42.1221 263.642 42.2637 262.967 42.5471 262.375C42.8387 261.775 43.2512 261.3 43.7846 260.95C44.3262 260.6 44.9721 260.425 45.7221 260.425C46.4721 260.425 47.1137 260.6 47.6471 260.95C48.1887 261.3 48.6012 261.775 48.8846 262.375C49.1762 262.975 49.3221 263.65 49.3221 264.4V275.225C49.3221 275.975 49.1762 276.65 48.8846 277.25C48.6012 277.85 48.1887 278.325 47.6471 278.675C47.1137 279.025 46.4721 279.2 45.7221 279.2ZM45.7221 276.575C46.0554 276.575 46.2887 276.437 46.4221 276.162C46.5554 275.879 46.6221 275.567 46.6221 275.225V264.4C46.6221 264.058 46.5512 263.75 46.4096 263.475C46.2679 263.192 46.0387 263.05 45.7221 263.05C45.4137 263.05 45.1846 263.192 45.0346 263.475C44.8929 263.75 44.8221 264.058 44.8221 264.4V275.225C44.8221 275.567 44.8929 275.879 45.0346 276.162C45.1762 276.437 45.4054 276.575 45.7221 276.575ZM53.807 279L51.332 260.625H53.832L54.907 270.175L54.957 270.775H55.157L55.232 270.175L56.382 260.625H58.332L59.482 270.175L59.557 270.775H59.757L59.807 270.175L60.882 260.625H63.382L60.907 279H58.807L57.557 270.3L57.407 269.225H57.307L57.157 270.3L55.907 279H53.807ZM71.9074 279V263.4H69.3574V260.625H77.1574V263.4H74.6074V279H71.9074ZM82.6332 279.2C81.8832 279.2 81.2374 279.025 80.6957 278.675C80.1624 278.325 79.7499 277.85 79.4582 277.25C79.1749 276.65 79.0332 275.975 79.0332 275.225V264.4C79.0332 263.642 79.1749 262.967 79.4582 262.375C79.7499 261.775 80.1624 261.3 80.6957 260.95C81.2374 260.6 81.8832 260.425 82.6332 260.425C83.3832 260.425 84.0249 260.6 84.5582 260.95C85.0999 261.3 85.5124 261.775 85.7957 262.375C86.0874 262.975 86.2332 263.65 86.2332 264.4V275.225C86.2332 275.975 86.0874 276.65 85.7957 277.25C85.5124 277.85 85.0999 278.325 84.5582 278.675C84.0249 279.025 83.3832 279.2 82.6332 279.2ZM82.6332 276.575C82.9665 276.575 83.1999 276.437 83.3332 276.162C83.4665 275.879 83.5332 275.567 83.5332 275.225V264.4C83.5332 264.058 83.4624 263.75 83.3207 263.475C83.179 263.192 82.9499 263.05 82.6332 263.05C82.3249 263.05 82.0957 263.192 81.9457 263.475C81.804 263.75 81.7332 264.058 81.7332 264.4V275.225C81.7332 275.567 81.804 275.879 81.9457 276.162C82.0874 276.437 82.3165 276.575 82.6332 276.575ZM96.5256 279.2C95.7839 279.2 95.1798 279.025 94.7131 278.675C94.2464 278.325 93.9006 277.85 93.6756 277.25C93.4589 276.65 93.3506 275.975 93.3506 275.225V264.4C93.3506 263.658 93.4964 262.987 93.7881 262.387C94.0798 261.787 94.4964 261.312 95.0381 260.962C95.5798 260.604 96.2173 260.425 96.9506 260.425C97.5089 260.425 98.0089 260.529 98.4506 260.737C98.9006 260.937 99.2798 261.221 99.5881 261.587C99.9048 261.954 100.142 262.379 100.301 262.862C100.467 263.337 100.551 263.85 100.551 264.4V267.225H97.8506V264.4C97.8506 264.033 97.7839 263.717 97.6506 263.45C97.5173 263.183 97.2839 263.05 96.9506 263.05C96.6256 263.05 96.3923 263.192 96.2506 263.475C96.1173 263.75 96.0506 264.058 96.0506 264.4V275.45C96.0506 275.808 96.1214 276.125 96.2631 276.4C96.4048 276.667 96.6339 276.8 96.9506 276.8C97.2839 276.8 97.5173 276.667 97.6506 276.4C97.7839 276.125 97.8506 275.808 97.8506 275.45V272.375H96.7756V269.85H100.551V279H98.9506L98.6256 278C98.3923 278.375 98.0923 278.671 97.7256 278.887C97.3673 279.096 96.9673 279.2 96.5256 279.2ZM103.308 279V260.625H109.483V263.4H106.008V268.35H108.508V271.05H106.008V276.225H109.483V279H103.308ZM114.036 279V263.4H111.486V260.625H119.286V263.4H116.736V279H114.036ZM129.145 279.2C128.403 279.2 127.786 279.079 127.295 278.837C126.803 278.587 126.415 278.229 126.132 277.762C125.849 277.296 125.645 276.733 125.52 276.075C125.403 275.417 125.345 274.675 125.345 273.85L127.995 273.6C127.995 274 128.007 274.387 128.032 274.762C128.065 275.129 128.12 275.462 128.195 275.762C128.278 276.054 128.395 276.287 128.545 276.462C128.703 276.637 128.903 276.725 129.145 276.725C129.545 276.725 129.828 276.542 129.995 276.175C130.161 275.8 130.245 275.35 130.245 274.825C130.245 274.3 130.107 273.754 129.832 273.187C129.557 272.621 129.228 272.083 128.845 271.575C128.195 270.708 127.624 269.904 127.132 269.162C126.649 268.421 126.27 267.692 125.995 266.975C125.728 266.258 125.595 265.508 125.595 264.725C125.595 264.108 125.674 263.542 125.832 263.025C125.99 262.5 126.22 262.046 126.52 261.662C126.828 261.271 127.199 260.967 127.632 260.75C128.065 260.533 128.561 260.425 129.12 260.425C129.811 260.425 130.395 260.542 130.87 260.775C131.353 261.008 131.74 261.342 132.032 261.775C132.332 262.208 132.549 262.725 132.682 263.325C132.824 263.917 132.895 264.575 132.895 265.3L130.245 265.55C130.245 265.242 130.228 264.933 130.195 264.625C130.17 264.308 130.12 264.021 130.045 263.762C129.97 263.504 129.861 263.296 129.72 263.137C129.578 262.979 129.395 262.9 129.17 262.9C128.82 262.9 128.578 263.05 128.445 263.35C128.311 263.642 128.245 264.058 128.245 264.6C128.245 265.3 128.432 265.975 128.807 266.625C129.182 267.275 129.686 268.033 130.32 268.9C131.078 269.925 131.695 270.867 132.17 271.725C132.653 272.583 132.895 273.533 132.895 274.575C132.895 275.233 132.824 275.846 132.682 276.412C132.54 276.971 132.315 277.458 132.007 277.875C131.707 278.292 131.32 278.617 130.845 278.85C130.378 279.083 129.811 279.2 129.145 279.2ZM136.892 279V263.4H134.342V260.625H142.142V263.4H139.592V279H136.892ZM142.335 279L145.11 260.625H148.41L151.185 279H148.56L148.06 275.25H145.46L144.96 279H142.335ZM145.835 272.4H147.685L146.91 266.225L146.835 265.25H146.685L146.61 266.225L145.835 272.4ZM153.364 279V260.625H156.064C157.681 260.625 158.873 261.075 159.639 261.975C160.406 262.867 160.789 264.183 160.789 265.925C160.789 266.958 160.606 267.854 160.239 268.612C159.881 269.362 159.443 269.912 158.927 270.262L160.764 279H158.064L156.539 271.25H156.064V279H153.364ZM156.064 268.75C156.564 268.75 156.96 268.642 157.252 268.425C157.543 268.2 157.752 267.883 157.877 267.475C158.002 267.067 158.064 266.583 158.064 266.025C158.064 265.15 157.918 264.479 157.627 264.012C157.343 263.537 156.823 263.3 156.064 263.3V268.75ZM164.85 279V263.4H162.3V260.625H170.1V263.4H167.55V279H164.85ZM172.101 279V260.625H178.276V263.4H174.801V268.35H177.301V271.05H174.801V276.225H178.276V279H172.101ZM181.029 279V260.625H183.779C184.646 260.625 185.379 260.767 185.979 261.05C186.579 261.333 187.063 261.817 187.429 262.5C187.796 263.183 188.058 264.121 188.217 265.312C188.383 266.504 188.467 268.008 188.467 269.825C188.467 271.65 188.383 273.158 188.217 274.35C188.058 275.533 187.796 276.467 187.429 277.15C187.063 277.825 186.579 278.304 185.979 278.588C185.379 278.863 184.646 279 183.779 279H181.029ZM183.729 276.3C184.396 276.3 184.867 276.037 185.142 275.512C185.417 274.987 185.583 274.237 185.642 273.262C185.7 272.287 185.729 271.129 185.729 269.787C185.729 268.429 185.7 267.271 185.642 266.312C185.583 265.346 185.413 264.608 185.129 264.1C184.854 263.583 184.388 263.325 183.729 263.325V276.3ZM195.688 279V260.625H198.388V279H195.688ZM201.15 279V260.625H203.675L206.175 270.2L206.4 271.05H206.55V260.625H209.025V279H206.75L204 269.425L203.775 268.575H203.625V279H201.15ZM216.371 279V260.625H219.121C219.988 260.625 220.721 260.767 221.321 261.05C221.921 261.333 222.404 261.817 222.771 262.5C223.138 263.183 223.4 264.121 223.559 265.312C223.725 266.504 223.809 268.008 223.809 269.825C223.809 271.65 223.725 273.158 223.559 274.35C223.4 275.533 223.138 276.467 222.771 277.15C222.404 277.825 221.921 278.304 221.321 278.588C220.721 278.863 219.988 279 219.121 279H216.371ZM219.071 276.3C219.738 276.3 220.209 276.037 220.484 275.512C220.759 274.987 220.925 274.237 220.984 273.262C221.042 272.287 221.071 271.129 221.071 269.787C221.071 268.429 221.042 267.271 220.984 266.312C220.925 265.346 220.754 264.608 220.471 264.1C220.196 263.583 219.729 263.325 219.071 263.325V276.3ZM226.423 279V260.625H232.598V263.4H229.123V268.35H231.623V271.05H229.123V276.225H232.598V279H226.423ZM238.602 279.2C237.86 279.2 237.243 279.079 236.752 278.837C236.26 278.587 235.872 278.229 235.589 277.762C235.306 277.296 235.102 276.733 234.977 276.075C234.86 275.417 234.802 274.675 234.802 273.85L237.452 273.6C237.452 274 237.464 274.387 237.489 274.762C237.522 275.129 237.577 275.462 237.652 275.762C237.735 276.054 237.852 276.287 238.002 276.462C238.16 276.637 238.36 276.725 238.602 276.725C239.002 276.725 239.285 276.542 239.452 276.175C239.618 275.8 239.702 275.35 239.702 274.825C239.702 274.3 239.564 273.754 239.289 273.187C239.014 272.621 238.685 272.083 238.302 271.575C237.652 270.708 237.081 269.904 236.589 269.162C236.106 268.421 235.727 267.692 235.452 266.975C235.185 266.258 235.052 265.508 235.052 264.725C235.052 264.108 235.131 263.542 235.289 263.025C235.447 262.5 235.677 262.046 235.977 261.662C236.285 261.271 236.656 260.967 237.089 260.75C237.522 260.533 238.018 260.425 238.577 260.425C239.268 260.425 239.852 260.542 240.327 260.775C240.81 261.008 241.197 261.342 241.489 261.775C241.789 262.208 242.006 262.725 242.139 263.325C242.281 263.917 242.352 264.575 242.352 265.3L239.702 265.55C239.702 265.242 239.685 264.933 239.652 264.625C239.627 264.308 239.577 264.021 239.502 263.762C239.427 263.504 239.318 263.296 239.177 263.137C239.035 262.979 238.852 262.9 238.627 262.9C238.277 262.9 238.035 263.05 237.902 263.35C237.768 263.642 237.702 264.058 237.702 264.6C237.702 265.3 237.889 265.975 238.264 266.625C238.639 267.275 239.143 268.033 239.777 268.9C240.535 269.925 241.152 270.867 241.627 271.725C242.11 272.583 242.352 273.533 242.352 274.575C242.352 275.233 242.281 275.846 242.139 276.412C241.997 276.971 241.772 277.458 241.464 277.875C241.164 278.292 240.777 278.617 240.302 278.85C239.835 279.083 239.268 279.2 238.602 279.2ZM244.549 279V260.625H247.249V279H244.549ZM253.061 279.2C252.319 279.2 251.715 279.025 251.248 278.675C250.782 278.325 250.436 277.85 250.211 277.25C249.994 276.65 249.886 275.975 249.886 275.225V264.4C249.886 263.658 250.032 262.987 250.323 262.387C250.615 261.787 251.032 261.312 251.573 260.962C252.115 260.604 252.752 260.425 253.486 260.425C254.044 260.425 254.544 260.529 254.986 260.737C255.436 260.937 255.815 261.221 256.123 261.587C256.44 261.954 256.677 262.379 256.836 262.862C257.002 263.337 257.086 263.85 257.086 264.4V267.225H254.386V264.4C254.386 264.033 254.319 263.717 254.186 263.45C254.052 263.183 253.819 263.05 253.486 263.05C253.161 263.05 252.927 263.192 252.786 263.475C252.652 263.75 252.586 264.058 252.586 264.4V275.45C252.586 275.808 252.657 276.125 252.798 276.4C252.94 276.667 253.169 276.8 253.486 276.8C253.819 276.8 254.052 276.667 254.186 276.4C254.319 276.125 254.386 275.808 254.386 275.45V272.375H253.311V269.85H257.086V279H255.486L255.161 278C254.927 278.375 254.627 278.671 254.261 278.887C253.902 279.096 253.502 279.2 253.061 279.2ZM259.843 279V260.625H262.368L264.868 270.2L265.093 271.05H265.243V260.625H267.718V279H265.443L262.693 269.425L262.468 268.575H262.318V279H259.843ZM270.356 271.075V268.7H280.431V271.075H270.356ZM32 303V284.625H34.75C35.6833 284.625 36.4875 284.792 37.1625 285.125C37.8458 285.45 38.3708 285.962 38.7375 286.662C39.1125 287.362 39.3 288.267 39.3 289.375C39.3 290.258 39.1833 291.029 38.95 291.687C38.725 292.346 38.2833 292.883 37.625 293.3C38.2917 293.667 38.7708 294.25 39.0625 295.05C39.3542 295.842 39.5 296.758 39.5 297.8C39.5 298.825 39.3333 299.729 39 300.512C38.675 301.296 38.1917 301.908 37.55 302.35C36.9167 302.783 36.1333 303 35.2 303H32ZM34.7 300.325C35.5167 300.325 36.0542 300.083 36.3125 299.6C36.5708 299.108 36.7 298.408 36.7 297.5C36.7 296.575 36.5708 295.875 36.3125 295.4C36.0542 294.917 35.5167 294.675 34.7 294.675V300.325ZM34.7 292.2C35.4583 292.2 35.9792 291.992 36.2625 291.575C36.5542 291.158 36.7 290.542 36.7 289.725C36.7 288.9 36.55 288.292 36.25 287.9C35.9583 287.5 35.4417 287.3 34.7 287.3V292.2ZM45.4564 303.2C44.6981 303.2 44.0481 303.025 43.5064 302.675C42.9731 302.325 42.5648 301.85 42.2814 301.25C41.9981 300.65 41.8564 299.975 41.8564 299.225V284.625H44.5564V299.225C44.5564 299.583 44.6273 299.9 44.7689 300.175C44.9106 300.442 45.1398 300.575 45.4564 300.575C45.7898 300.575 46.0231 300.442 46.1564 300.175C46.2898 299.9 46.3564 299.583 46.3564 299.225V284.625H49.0564V299.225C49.0564 299.975 48.9106 300.65 48.6189 301.25C48.3356 301.85 47.9231 302.325 47.3814 302.675C46.8481 303.025 46.2064 303.2 45.4564 303.2ZM51.8105 303V284.625H54.5105V303H51.8105ZM57.2725 303V284.625H59.9725V300.5H63.5475V303H57.2725ZM65.3955 303V284.625H68.1455C69.0122 284.625 69.7455 284.767 70.3455 285.05C70.9455 285.333 71.4288 285.817 71.7955 286.5C72.1622 287.183 72.4247 288.121 72.583 289.312C72.7497 290.504 72.833 292.008 72.833 293.825C72.833 295.65 72.7497 297.158 72.583 298.35C72.4247 299.533 72.1622 300.467 71.7955 301.15C71.4288 301.825 70.9455 302.304 70.3455 302.588C69.7455 302.863 69.0122 303 68.1455 303H65.3955ZM68.0955 300.3C68.7622 300.3 69.233 300.037 69.508 299.512C69.783 298.987 69.9497 298.237 70.008 297.262C70.0663 296.287 70.0955 295.129 70.0955 293.787C70.0955 292.429 70.0663 291.271 70.008 290.312C69.9497 289.346 69.7788 288.608 69.4955 288.1C69.2205 287.583 68.7538 287.325 68.0955 287.325V300.3ZM80.0547 303V284.625H82.7547C83.7797 284.625 84.6339 284.85 85.3172 285.3C86.0089 285.75 86.5255 286.387 86.8672 287.212C87.2089 288.037 87.3797 289.008 87.3797 290.125C87.3797 291.242 87.2005 292.204 86.8422 293.012C86.4839 293.821 85.9589 294.454 85.2672 294.912C84.5839 295.362 83.7464 295.608 82.7547 295.65V303H80.0547ZM82.7547 292.9C83.2297 292.9 83.6047 292.808 83.8797 292.625C84.1547 292.433 84.3505 292.133 84.4672 291.725C84.5922 291.317 84.6547 290.792 84.6547 290.15C84.6547 289.5 84.5922 288.971 84.4672 288.562C84.3505 288.154 84.1505 287.854 83.8672 287.662C83.5922 287.471 83.2214 287.375 82.7547 287.375V292.9ZM93.0688 303.2C92.3188 303.2 91.6729 303.025 91.1313 302.675C90.5979 302.325 90.1854 301.85 89.8938 301.25C89.6104 300.65 89.4688 299.975 89.4688 299.225V288.4C89.4688 287.642 89.6104 286.967 89.8938 286.375C90.1854 285.775 90.5979 285.3 91.1313 284.95C91.6729 284.6 92.3188 284.425 93.0688 284.425C93.8188 284.425 94.4604 284.6 94.9938 284.95C95.5354 285.3 95.9479 285.775 96.2313 286.375C96.5229 286.975 96.6688 287.65 96.6688 288.4V299.225C96.6688 299.975 96.5229 300.65 96.2313 301.25C95.9479 301.85 95.5354 302.325 94.9938 302.675C94.4604 303.025 93.8188 303.2 93.0688 303.2ZM93.0688 300.575C93.4021 300.575 93.6354 300.437 93.7688 300.162C93.9021 299.879 93.9688 299.567 93.9688 299.225V288.4C93.9688 288.058 93.8979 287.75 93.7563 287.475C93.6146 287.192 93.3854 287.05 93.0688 287.05C92.7604 287.05 92.5313 287.192 92.3813 287.475C92.2396 287.75 92.1688 288.058 92.1688 288.4V299.225C92.1688 299.567 92.2396 299.879 92.3813 300.162C92.5229 300.437 92.7521 300.575 93.0688 300.575ZM99.3037 303V284.625H102.004C103.62 284.625 104.812 285.075 105.579 285.975C106.345 286.867 106.729 288.183 106.729 289.925C106.729 290.958 106.545 291.854 106.179 292.612C105.82 293.362 105.383 293.912 104.866 294.262L106.704 303H104.004L102.479 295.25H102.004V303H99.3037ZM102.004 292.75C102.504 292.75 102.9 292.642 103.191 292.425C103.483 292.2 103.691 291.883 103.816 291.475C103.941 291.067 104.004 290.583 104.004 290.025C104.004 289.15 103.858 288.479 103.566 288.012C103.283 287.537 102.762 287.3 102.004 287.3V292.75ZM110.789 303V287.4H108.239V284.625H116.039V287.4H113.489V303H110.789ZM118.04 303V284.625H124.465V287.4H120.74V292.225H123.24V295H120.74V303H118.04ZM129.785 303.2C129.035 303.2 128.389 303.025 127.847 302.675C127.314 302.325 126.901 301.85 126.61 301.25C126.326 300.65 126.185 299.975 126.185 299.225V288.4C126.185 287.642 126.326 286.967 126.61 286.375C126.901 285.775 127.314 285.3 127.847 284.95C128.389 284.6 129.035 284.425 129.785 284.425C130.535 284.425 131.176 284.6 131.71 284.95C132.251 285.3 132.664 285.775 132.947 286.375C133.239 286.975 133.385 287.65 133.385 288.4V299.225C133.385 299.975 133.239 300.65 132.947 301.25C132.664 301.85 132.251 302.325 131.71 302.675C131.176 303.025 130.535 303.2 129.785 303.2ZM129.785 300.575C130.118 300.575 130.351 300.437 130.485 300.162C130.618 299.879 130.685 299.567 130.685 299.225V288.4C130.685 288.058 130.614 287.75 130.472 287.475C130.33 287.192 130.101 287.05 129.785 287.05C129.476 287.05 129.247 287.192 129.097 287.475C128.955 287.75 128.885 288.058 128.885 288.4V299.225C128.885 299.567 128.955 299.879 129.097 300.162C129.239 300.437 129.468 300.575 129.785 300.575ZM136.02 303V284.625H138.72V300.5H142.295V303H136.02ZM144.143 303V284.625H146.843V303H144.143ZM153.079 303.2C152.329 303.2 151.684 303.025 151.142 302.675C150.609 302.325 150.196 301.85 149.904 301.25C149.621 300.65 149.479 299.975 149.479 299.225V288.4C149.479 287.642 149.621 286.967 149.904 286.375C150.196 285.775 150.609 285.3 151.142 284.95C151.684 284.6 152.329 284.425 153.079 284.425C153.829 284.425 154.471 284.6 155.004 284.95C155.546 285.3 155.959 285.775 156.242 286.375C156.534 286.975 156.679 287.65 156.679 288.4V299.225C156.679 299.975 156.534 300.65 156.242 301.25C155.959 301.85 155.546 302.325 155.004 302.675C154.471 303.025 153.829 303.2 153.079 303.2ZM153.079 300.575C153.413 300.575 153.646 300.437 153.779 300.162C153.913 299.879 153.979 299.567 153.979 299.225V288.4C153.979 288.058 153.909 287.75 153.767 287.475C153.625 287.192 153.396 287.05 153.079 287.05C152.771 287.05 152.542 287.192 152.392 287.475C152.25 287.75 152.179 288.058 152.179 288.4V299.225C152.179 299.567 152.25 299.879 152.392 300.162C152.534 300.437 152.763 300.575 153.079 300.575ZM159.214 295.075V292.7H169.289V295.075H159.214ZM175.405 303.2C174.638 303.2 173.984 303.029 173.442 302.687C172.909 302.337 172.501 301.862 172.217 301.262C171.942 300.662 171.805 299.983 171.805 299.225V288.4C171.805 287.65 171.946 286.975 172.23 286.375C172.521 285.775 172.938 285.3 173.48 284.95C174.021 284.6 174.663 284.425 175.405 284.425C175.963 284.425 176.463 284.529 176.905 284.737C177.346 284.946 177.721 285.233 178.03 285.6C178.346 285.958 178.588 286.379 178.755 286.862C178.921 287.337 179.005 287.85 179.005 288.4V290.925H176.48V288.4C176.48 288.017 176.401 287.696 176.242 287.437C176.084 287.179 175.821 287.05 175.455 287.05C175.121 287.05 174.88 287.183 174.73 287.45C174.58 287.717 174.505 288.033 174.505 288.4V299.225C174.505 299.592 174.584 299.908 174.742 300.175C174.909 300.442 175.146 300.575 175.455 300.575C175.83 300.575 176.092 300.446 176.242 300.187C176.401 299.929 176.48 299.608 176.48 299.225V296.7H179.005V299.225C179.005 299.975 178.859 300.65 178.567 301.25C178.276 301.85 177.859 302.325 177.317 302.675C176.784 303.025 176.146 303.2 175.405 303.2ZM181.64 303V284.625H184.34C185.956 284.625 187.148 285.075 187.915 285.975C188.681 286.867 189.065 288.183 189.065 289.925C189.065 290.958 188.881 291.854 188.515 292.612C188.156 293.362 187.719 293.912 187.202 294.262L189.04 303H186.34L184.815 295.25H184.34V303H181.64ZM184.34 292.75C184.84 292.75 185.235 292.642 185.527 292.425C185.819 292.2 186.027 291.883 186.152 291.475C186.277 291.067 186.34 290.583 186.34 290.025C186.34 289.15 186.194 288.479 185.902 288.012C185.619 287.537 185.098 287.3 184.34 287.3V292.75ZM191.325 303V284.625H197.5V287.4H194.025V292.35H196.525V295.05H194.025V300.225H197.5V303H191.325ZM199.74 303L202.515 284.625H205.815L208.59 303H205.965L205.465 299.25H202.865L202.365 303H199.74ZM203.24 296.4H205.09L204.315 290.225L204.24 289.25H204.09L204.015 290.225L203.24 296.4ZM211.324 303V287.4H208.774V284.625H216.574V287.4H214.024V303H211.324ZM218.575 303V284.625H224.75V287.4H221.275V292.35H223.775V295.05H221.275V300.225H224.75V303H218.575ZM232.111 303V284.625H234.811C236.428 284.625 237.62 285.075 238.386 285.975C239.153 286.867 239.536 288.183 239.536 289.925C239.536 290.958 239.353 291.854 238.986 292.612C238.628 293.362 238.19 293.912 237.674 294.262L239.511 303H236.811L235.286 295.25H234.811V303H232.111ZM234.811 292.75C235.311 292.75 235.707 292.642 235.999 292.425C236.29 292.2 236.499 291.883 236.624 291.475C236.749 291.067 236.811 290.583 236.811 290.025C236.811 289.15 236.665 288.479 236.374 288.012C236.09 287.537 235.57 287.3 234.811 287.3V292.75ZM241.797 303V284.625H247.972V287.4H244.497V292.35H246.997V295.05H244.497V300.225H247.972V303H241.797ZM253.976 303.2C253.234 303.2 252.617 303.079 252.126 302.837C251.634 302.587 251.246 302.229 250.963 301.762C250.68 301.296 250.476 300.733 250.351 300.075C250.234 299.417 250.176 298.675 250.176 297.85L252.826 297.6C252.826 298 252.838 298.387 252.863 298.762C252.896 299.129 252.951 299.462 253.026 299.762C253.109 300.054 253.226 300.287 253.376 300.462C253.534 300.637 253.734 300.725 253.976 300.725C254.376 300.725 254.659 300.542 254.826 300.175C254.992 299.8 255.076 299.35 255.076 298.825C255.076 298.3 254.938 297.754 254.663 297.187C254.388 296.621 254.059 296.083 253.676 295.575C253.026 294.708 252.455 293.904 251.963 293.162C251.48 292.421 251.101 291.692 250.826 290.975C250.559 290.258 250.426 289.508 250.426 288.725C250.426 288.108 250.505 287.542 250.663 287.025C250.821 286.5 251.051 286.046 251.351 285.662C251.659 285.271 252.03 284.967 252.463 284.75C252.896 284.533 253.392 284.425 253.951 284.425C254.642 284.425 255.226 284.542 255.701 284.775C256.184 285.008 256.571 285.342 256.863 285.775C257.163 286.208 257.38 286.725 257.513 287.325C257.655 287.917 257.726 288.575 257.726 289.3L255.076 289.55C255.076 289.242 255.059 288.933 255.026 288.625C255.001 288.308 254.951 288.021 254.876 287.762C254.801 287.504 254.692 287.296 254.551 287.137C254.409 286.979 254.226 286.9 254.001 286.9C253.651 286.9 253.409 287.05 253.276 287.35C253.142 287.642 253.076 288.058 253.076 288.6C253.076 289.3 253.263 289.975 253.638 290.625C254.013 291.275 254.517 292.033 255.151 292.9C255.909 293.925 256.526 294.867 257.001 295.725C257.484 296.583 257.726 297.533 257.726 298.575C257.726 299.233 257.655 299.846 257.513 300.412C257.371 300.971 257.146 301.458 256.838 301.875C256.538 302.292 256.151 302.617 255.676 302.85C255.209 303.083 254.642 303.2 253.976 303.2ZM263.523 303.2C262.765 303.2 262.115 303.025 261.573 302.675C261.04 302.325 260.631 301.85 260.348 301.25C260.065 300.65 259.923 299.975 259.923 299.225V284.625H262.623V299.225C262.623 299.583 262.694 299.9 262.835 300.175C262.977 300.442 263.206 300.575 263.523 300.575C263.856 300.575 264.09 300.442 264.223 300.175C264.356 299.9 264.423 299.583 264.423 299.225V284.625H267.123V299.225C267.123 299.975 266.977 300.65 266.685 301.25C266.402 301.85 265.99 302.325 265.448 302.675C264.915 303.025 264.273 303.2 263.523 303.2ZM269.877 303V284.625H273.302L274.777 294.15L274.902 295.125H274.952L275.077 294.15L276.552 284.625H279.977V303H277.477V290.675H277.327L277.227 291.45L275.627 303H274.227L272.627 291.45L272.527 290.675H272.377V303H269.877ZM282.736 303V284.625H288.911V287.4H285.436V292.35H287.936V295.05H285.436V300.225H288.911V303H282.736ZM31.9 319.075V316.7H41.975V319.075H31.9ZM44.6152 327V308.625H47.3152V324.5H50.8902V327H44.6152ZM52.4199 327L55.1949 308.625H58.4949L61.2699 327H58.6449L58.1449 323.25H55.5449L55.0449 327H52.4199ZM55.9199 320.4H57.7699L56.9949 314.225L56.9199 313.25H56.7699L56.6949 314.225L55.9199 320.4ZM63.4492 327V308.625H65.9742L68.4742 318.2L68.6992 319.05H68.8492V308.625H71.3242V327H69.0492L66.2992 317.425L66.0742 316.575H65.9242V327H63.4492ZM74.0625 327V308.625H76.8125C77.6792 308.625 78.4125 308.767 79.0125 309.05C79.6125 309.333 80.0958 309.817 80.4625 310.5C80.8292 311.183 81.0917 312.121 81.25 313.312C81.4167 314.504 81.5 316.008 81.5 317.825C81.5 319.65 81.4167 321.158 81.25 322.35C81.0917 323.533 80.8292 324.467 80.4625 325.15C80.0958 325.825 79.6125 326.304 79.0125 326.588C78.4125 326.863 77.6792 327 76.8125 327H74.0625ZM76.7625 324.3C77.4292 324.3 77.9 324.037 78.175 323.512C78.45 322.987 78.6167 322.237 78.675 321.262C78.7333 320.287 78.7625 319.129 78.7625 317.787C78.7625 316.429 78.7333 315.271 78.675 314.312C78.6167 313.346 78.4458 312.608 78.1625 312.1C77.8875 311.583 77.4208 311.325 76.7625 311.325V324.3ZM90.8467 327V319.175L88.0967 308.625H90.7467L92.0717 314.5L92.1592 315.3H92.2342L92.3217 314.5L93.6467 308.625H96.2967L93.5467 319.175V327H90.8467ZM101.907 327.2C101.157 327.2 100.511 327.025 99.9691 326.675C99.4358 326.325 99.0233 325.85 98.7316 325.25C98.4483 324.65 98.3066 323.975 98.3066 323.225V312.4C98.3066 311.642 98.4483 310.967 98.7316 310.375C99.0233 309.775 99.4358 309.3 99.9691 308.95C100.511 308.6 101.157 308.425 101.907 308.425C102.657 308.425 103.298 308.6 103.832 308.95C104.373 309.3 104.786 309.775 105.069 310.375C105.361 310.975 105.507 311.65 105.507 312.4V323.225C105.507 323.975 105.361 324.65 105.069 325.25C104.786 325.85 104.373 326.325 103.832 326.675C103.298 327.025 102.657 327.2 101.907 327.2ZM101.907 324.575C102.24 324.575 102.473 324.437 102.607 324.162C102.74 323.879 102.807 323.567 102.807 323.225V312.4C102.807 312.058 102.736 311.75 102.594 311.475C102.452 311.192 102.223 311.05 101.907 311.05C101.598 311.05 101.369 311.192 101.219 311.475C101.077 311.75 101.007 312.058 101.007 312.4V323.225C101.007 323.567 101.077 323.879 101.219 324.162C101.361 324.437 101.59 324.575 101.907 324.575ZM111.742 327.2C110.983 327.2 110.333 327.025 109.792 326.675C109.258 326.325 108.85 325.85 108.567 325.25C108.283 324.65 108.142 323.975 108.142 323.225V308.625H110.842V323.225C110.842 323.583 110.912 323.9 111.054 324.175C111.196 324.442 111.425 324.575 111.742 324.575C112.075 324.575 112.308 324.442 112.442 324.175C112.575 323.9 112.642 323.583 112.642 323.225V308.625H115.342V323.225C115.342 323.975 115.196 324.65 114.904 325.25C114.621 325.85 114.208 326.325 113.667 326.675C113.133 327.025 112.492 327.2 111.742 327.2ZM118.096 327V308.625H120.796C122.412 308.625 123.604 309.075 124.371 309.975C125.137 310.867 125.521 312.183 125.521 313.925C125.521 314.958 125.337 315.854 124.971 316.612C124.612 317.362 124.175 317.912 123.658 318.262L125.496 327H122.796L121.271 319.25H120.796V327H118.096ZM120.796 316.75C121.296 316.75 121.692 316.642 121.983 316.425C122.275 316.2 122.483 315.883 122.608 315.475C122.733 315.067 122.796 314.583 122.796 314.025C122.796 313.15 122.65 312.479 122.358 312.012C122.075 311.537 121.554 311.3 120.796 311.3V316.75ZM132.389 327V308.625H138.814V311.4H135.089V316.225H137.589V319H135.089V327H132.389ZM140.658 327V308.625H143.358V327H140.658ZM146.12 327V308.625H148.82C150.437 308.625 151.628 309.075 152.395 309.975C153.162 310.867 153.545 312.183 153.545 313.925C153.545 314.958 153.362 315.854 152.995 316.612C152.637 317.362 152.199 317.912 151.683 318.262L153.52 327H150.82L149.295 319.25H148.82V327H146.12ZM148.82 316.75C149.32 316.75 149.716 316.642 150.008 316.425C150.299 316.2 150.508 315.883 150.633 315.475C150.758 315.067 150.82 314.583 150.82 314.025C150.82 313.15 150.674 312.479 150.383 312.012C150.099 311.537 149.578 311.3 148.82 311.3V316.75ZM159.056 327.2C158.314 327.2 157.697 327.079 157.206 326.837C156.714 326.587 156.326 326.229 156.043 325.762C155.76 325.296 155.556 324.733 155.431 324.075C155.314 323.417 155.256 322.675 155.256 321.85L157.906 321.6C157.906 322 157.918 322.387 157.943 322.762C157.976 323.129 158.031 323.462 158.106 323.762C158.189 324.054 158.306 324.287 158.456 324.462C158.614 324.637 158.814 324.725 159.056 324.725C159.456 324.725 159.739 324.542 159.906 324.175C160.072 323.8 160.156 323.35 160.156 322.825C160.156 322.3 160.018 321.754 159.743 321.187C159.468 320.621 159.139 320.083 158.756 319.575C158.106 318.708 157.535 317.904 157.043 317.162C156.56 316.421 156.181 315.692 155.906 314.975C155.639 314.258 155.506 313.508 155.506 312.725C155.506 312.108 155.585 311.542 155.743 311.025C155.901 310.5 156.131 310.046 156.431 309.662C156.739 309.271 157.11 308.967 157.543 308.75C157.976 308.533 158.472 308.425 159.031 308.425C159.722 308.425 160.306 308.542 160.781 308.775C161.264 309.008 161.651 309.342 161.943 309.775C162.243 310.208 162.46 310.725 162.593 311.325C162.735 311.917 162.806 312.575 162.806 313.3L160.156 313.55C160.156 313.242 160.139 312.933 160.106 312.625C160.081 312.308 160.031 312.021 159.956 311.762C159.881 311.504 159.772 311.296 159.631 311.137C159.489 310.979 159.306 310.9 159.081 310.9C158.731 310.9 158.489 311.05 158.356 311.35C158.222 311.642 158.156 312.058 158.156 312.6C158.156 313.3 158.343 313.975 158.718 314.625C159.093 315.275 159.597 316.033 160.231 316.9C160.989 317.925 161.606 318.867 162.081 319.725C162.564 320.583 162.806 321.533 162.806 322.575C162.806 323.233 162.735 323.846 162.593 324.412C162.451 324.971 162.226 325.458 161.918 325.875C161.618 326.292 161.231 326.617 160.756 326.85C160.289 327.083 159.722 327.2 159.056 327.2ZM166.803 327V311.4H164.253V308.625H172.053V311.4H169.503V327H166.803ZM178.661 327V308.625H181.411C182.278 308.625 183.011 308.767 183.611 309.05C184.211 309.333 184.694 309.817 185.061 310.5C185.428 311.183 185.69 312.121 185.849 313.312C186.015 314.504 186.099 316.008 186.099 317.825C186.099 319.65 186.015 321.158 185.849 322.35C185.69 323.533 185.428 324.467 185.061 325.15C184.694 325.825 184.211 326.304 183.611 326.588C183.011 326.863 182.278 327 181.411 327H178.661ZM181.361 324.3C182.028 324.3 182.499 324.037 182.774 323.512C183.049 322.987 183.215 322.237 183.274 321.262C183.332 320.287 183.361 319.129 183.361 317.787C183.361 316.429 183.332 315.271 183.274 314.312C183.215 313.346 183.044 312.608 182.761 312.1C182.486 311.583 182.019 311.325 181.361 311.325V324.3ZM188.713 327V308.625H194.888V311.4H191.413V316.35H193.913V319.05H191.413V324.225H194.888V327H188.713ZM200.892 327.2C200.15 327.2 199.533 327.079 199.042 326.837C198.55 326.587 198.162 326.229 197.879 325.762C197.596 325.296 197.392 324.733 197.267 324.075C197.15 323.417 197.092 322.675 197.092 321.85L199.742 321.6C199.742 322 199.754 322.387 199.779 322.762C199.812 323.129 199.867 323.462 199.942 323.762C200.025 324.054 200.142 324.287 200.292 324.462C200.45 324.637 200.65 324.725 200.892 324.725C201.292 324.725 201.575 324.542 201.742 324.175C201.908 323.8 201.992 323.35 201.992 322.825C201.992 322.3 201.854 321.754 201.579 321.187C201.304 320.621 200.975 320.083 200.592 319.575C199.942 318.708 199.371 317.904 198.879 317.162C198.396 316.421 198.017 315.692 197.742 314.975C197.475 314.258 197.342 313.508 197.342 312.725C197.342 312.108 197.421 311.542 197.579 311.025C197.737 310.5 197.967 310.046 198.267 309.662C198.575 309.271 198.946 308.967 199.379 308.75C199.812 308.533 200.308 308.425 200.867 308.425C201.558 308.425 202.142 308.542 202.617 308.775C203.1 309.008 203.487 309.342 203.779 309.775C204.079 310.208 204.296 310.725 204.429 311.325C204.571 311.917 204.642 312.575 204.642 313.3L201.992 313.55C201.992 313.242 201.975 312.933 201.942 312.625C201.917 312.308 201.867 312.021 201.792 311.762C201.717 311.504 201.608 311.296 201.467 311.137C201.325 310.979 201.142 310.9 200.917 310.9C200.567 310.9 200.325 311.05 200.192 311.35C200.058 311.642 199.992 312.058 199.992 312.6C199.992 313.3 200.179 313.975 200.554 314.625C200.929 315.275 201.433 316.033 202.067 316.9C202.825 317.925 203.442 318.867 203.917 319.725C204.4 320.583 204.642 321.533 204.642 322.575C204.642 323.233 204.571 323.846 204.429 324.412C204.287 324.971 204.062 325.458 203.754 325.875C203.454 326.292 203.067 326.617 202.592 326.85C202.125 327.083 201.558 327.2 200.892 327.2ZM206.839 327V308.625H209.539V327H206.839ZM215.351 327.2C214.609 327.2 214.005 327.025 213.538 326.675C213.072 326.325 212.726 325.85 212.501 325.25C212.284 324.65 212.176 323.975 212.176 323.225V312.4C212.176 311.658 212.322 310.987 212.613 310.387C212.905 309.787 213.322 309.312 213.863 308.962C214.405 308.604 215.042 308.425 215.776 308.425C216.334 308.425 216.834 308.529 217.276 308.737C217.726 308.937 218.105 309.221 218.413 309.587C218.73 309.954 218.967 310.379 219.126 310.862C219.292 311.337 219.376 311.85 219.376 312.4V315.225H216.676V312.4C216.676 312.033 216.609 311.717 216.476 311.45C216.342 311.183 216.109 311.05 215.776 311.05C215.451 311.05 215.217 311.192 215.076 311.475C214.942 311.75 214.876 312.058 214.876 312.4V323.45C214.876 323.808 214.947 324.125 215.088 324.4C215.23 324.667 215.459 324.8 215.776 324.8C216.109 324.8 216.342 324.667 216.476 324.4C216.609 324.125 216.676 323.808 216.676 323.45V320.375H215.601V317.85H219.376V327H217.776L217.451 326C217.217 326.375 216.917 326.671 216.551 326.887C216.192 327.096 215.792 327.2 215.351 327.2ZM222.133 327V308.625H224.658L227.158 318.2L227.383 319.05H227.533V308.625H230.008V327H227.733L224.983 317.425L224.758 316.575H224.608V327H222.133ZM236.504 327.175V324.525C236.62 324.542 236.708 324.55 236.766 324.55C237.141 324.55 237.433 324.433 237.641 324.2C237.849 323.958 237.954 323.617 237.954 323.175V308.625H240.654V323.6C240.654 324.392 240.508 325.054 240.216 325.587C239.933 326.121 239.516 326.521 238.966 326.787C238.416 327.054 237.749 327.188 236.966 327.188C236.891 327.188 236.816 327.188 236.741 327.188C236.666 327.188 236.587 327.183 236.504 327.175ZM246.876 327.2C246.126 327.2 245.481 327.025 244.939 326.675C244.406 326.325 243.993 325.85 243.701 325.25C243.418 324.65 243.276 323.975 243.276 323.225V312.4C243.276 311.642 243.418 310.967 243.701 310.375C243.993 309.775 244.406 309.3 244.939 308.95C245.481 308.6 246.126 308.425 246.876 308.425C247.626 308.425 248.268 308.6 248.801 308.95C249.343 309.3 249.756 309.775 250.039 310.375C250.331 310.975 250.476 311.65 250.476 312.4V323.225C250.476 323.975 250.331 324.65 250.039 325.25C249.756 325.85 249.343 326.325 248.801 326.675C248.268 327.025 247.626 327.2 246.876 327.2ZM246.876 324.575C247.21 324.575 247.443 324.437 247.576 324.162C247.71 323.879 247.776 323.567 247.776 323.225V312.4C247.776 312.058 247.706 311.75 247.564 311.475C247.422 311.192 247.193 311.05 246.876 311.05C246.568 311.05 246.339 311.192 246.189 311.475C246.047 311.75 245.976 312.058 245.976 312.4V323.225C245.976 323.567 246.047 323.879 246.189 324.162C246.331 324.437 246.56 324.575 246.876 324.575ZM253.111 327V308.625H255.861C256.795 308.625 257.599 308.792 258.274 309.125C258.957 309.45 259.482 309.962 259.849 310.662C260.224 311.362 260.411 312.267 260.411 313.375C260.411 314.258 260.295 315.029 260.061 315.687C259.836 316.346 259.395 316.883 258.736 317.3C259.403 317.667 259.882 318.25 260.174 319.05C260.465 319.842 260.611 320.758 260.611 321.8C260.611 322.825 260.445 323.729 260.111 324.512C259.786 325.296 259.303 325.908 258.661 326.35C258.028 326.783 257.245 327 256.311 327H253.111ZM255.811 324.325C256.628 324.325 257.165 324.083 257.424 323.6C257.682 323.108 257.811 322.408 257.811 321.5C257.811 320.575 257.682 319.875 257.424 319.4C257.165 318.917 256.628 318.675 255.811 318.675V324.325ZM255.811 316.2C256.57 316.2 257.09 315.992 257.374 315.575C257.665 315.158 257.811 314.542 257.811 313.725C257.811 312.9 257.661 312.292 257.361 311.9C257.07 311.5 256.553 311.3 255.811 311.3V316.2Z" fill="#FFE227"/>
<rect x="21.0215" y="148" width="17" height="17" transform="rotate(45 21.0215 148)" fill="#FFE227"/>
<rect x="301.021" y="148" width="17" height="17" transform="rotate(45 301.021 148)" fill="#FFE227"/>
<rect x="301.021" y="328" width="17" height="17" transform="rotate(45 301.021 328)" fill="#FFE227"/>
<rect x="21.0215" y="328" width="17" height="17" transform="rotate(45 21.0215 328)" fill="#FFE227"/>
<mask id="path-19-outside-1_575_1000" maskUnits="userSpaceOnUse" x="10" y="10" width="302" height="390" fill="black">
<rect fill="white" x="10" y="10" width="302" height="390"/>
<path fill-rule="evenodd" clip-rule="evenodd" d="M11 24C18.1797 24 24 18.1797 24 11H298C298 18.1797 303.82 24 311 24V386C303.82 386 298 391.82 298 399H24C24 391.82 18.1797 386 11 386V24Z"/>
</mask>
<path d="M24 11V10H23V11H24ZM11 24V23H10V24H11ZM298 11H299V10H298V11ZM311 24H312V23H311V24ZM311 386V387H312V386H311ZM298 399V400H299V399H298ZM24 399H23V400H24V399ZM11 386H10V387H11V386ZM23 11C23 17.6274 17.6274 23 11 23V25C18.732 25 25 18.732 25 11H23ZM298 10H24V12H298V10ZM311 23C304.373 23 299 17.6274 299 11H297C297 18.732 303.268 25 311 25V23ZM312 386V24H310V386H312ZM299 399C299 392.373 304.373 387 311 387V385C303.268 385 297 391.268 297 399H299ZM24 400H298V398H24V400ZM11 387C17.6274 387 23 392.373 23 399H25C25 391.268 18.732 385 11 385V387ZM10 24V386H12V24H10Z" fill="#001F10" mask="url(#path-19-outside-1_575_1000)"/>
<path d="M189.73 61V48.424L189.346 42.28H189.97L194.05 48.616L203.554 61H213.154V28.84H204.13V41.272L204.562 48.28H203.938L199.234 40.888L190.306 28.84H180.706V61H189.73ZM228.037 61.48C236.197 61.48 241.333 57.688 241.333 52.312V51.736H232.309V52.264C232.309 53.704 231.349 54.328 227.701 54.328C223.861 54.328 222.565 53.512 222.421 50.584H241.381C241.477 49.72 241.525 49.096 241.525 48.28C241.525 40.504 236.197 36.328 227.845 36.328C219.781 36.328 214.069 41.032 214.069 48.904C214.069 57.976 219.829 61.48 228.037 61.48ZM227.653 43.24C231.013 43.24 232.453 43.96 232.789 46.024H222.565C222.949 43.96 224.341 43.24 227.653 43.24ZM255.928 61.48C264.088 61.48 269.224 57.688 269.224 52.312V51.736H260.2V52.264C260.2 53.704 259.24 54.328 255.592 54.328C251.752 54.328 250.456 53.512 250.312 50.584H269.272C269.368 49.72 269.416 49.096 269.416 48.28C269.416 40.504 264.088 36.328 255.736 36.328C247.672 36.328 241.96 41.032 241.96 48.904C241.96 57.976 247.72 61.48 255.928 61.48ZM255.544 43.24C258.904 43.24 260.344 43.96 260.68 46.024H250.456C250.84 43.96 252.232 43.24 255.544 43.24ZM281.323 61.48C286.987 61.48 289.867 59.272 290.635 54.472H291.115V61H299.563V28.84H290.539V43.048H290.059C289.339 39.016 286.651 36.328 280.939 36.328C273.835 36.328 269.851 41.032 269.851 48.904C269.851 56.728 273.931 61.48 281.323 61.48ZM278.971 48.904C278.971 45.688 280.411 44.536 284.587 44.536C288.619 44.536 290.539 45.208 290.539 48.616V48.952C290.539 52.456 288.619 53.224 284.587 53.224C280.411 53.224 278.971 52.12 278.971 48.904ZM37.3859 102V89.52C37.3859 86.4 38.1539 85.392 41.8499 85.392C45.5939 85.392 46.5539 86.448 46.5539 89.808V102H55.5779V89.52C55.5779 86.4 56.3459 85.392 60.0419 85.392C63.7859 85.392 64.7459 86.448 64.7459 89.808V102H73.7699V86.496C73.7699 81.264 70.8419 77.328 64.6499 77.328C58.3619 77.328 56.0579 81.12 55.5299 85.152H55.0499C54.5699 80.784 51.8339 77.328 46.1219 77.328C40.0259 77.328 37.8179 81.12 37.2899 85.152H36.8099V77.808H28.3619V102H37.3859ZM88.4436 102.48C96.6036 102.48 101.74 98.688 101.74 93.312V92.736H92.7156V93.264C92.7156 94.704 91.7556 95.328 88.1076 95.328C84.2676 95.328 82.9716 94.512 82.8276 91.584H101.788C101.884 90.72 101.932 90.096 101.932 89.28C101.932 81.504 96.6036 77.328 88.2516 77.328C80.1876 77.328 74.4756 82.032 74.4756 89.904C74.4756 98.976 80.2356 102.48 88.4436 102.48ZM88.0596 84.24C91.4196 84.24 92.8596 84.96 93.1956 87.024H82.9716C83.3556 84.96 84.7476 84.24 88.0596 84.24ZM111.87 102V89.52C111.87 86.4 112.83 85.392 116.814 85.392C120.75 85.392 121.998 86.448 121.998 89.808V102H131.022V86.496C131.022 81.264 127.95 77.328 121.422 77.328C114.942 77.328 112.302 81.12 111.774 85.152H111.294V77.808H102.846V102H111.87ZM150.286 102V93.888H145.966C143.902 93.888 143.326 93.408 143.326 91.488V85.2H150.286V77.808H143.326V73.632H134.302V77.808H130.75V85.2H134.302V92.784C134.302 99.072 137.902 102 143.95 102H150.286ZM164.332 102.48C172.732 102.48 178.444 97.728 178.444 89.904C178.444 82.032 172.732 77.328 164.332 77.328C155.932 77.328 150.22 82.032 150.22 89.904C150.22 97.728 155.932 102.48 164.332 102.48ZM164.332 94.512C160.252 94.512 159.148 93.408 159.148 89.904C159.148 86.4 160.252 85.248 164.332 85.248C168.412 85.248 169.516 86.4 169.516 89.904C169.516 93.408 168.412 94.512 164.332 94.512ZM188.136 102V87.552C188.136 85.632 188.856 84.912 191.304 84.912C193.656 84.912 194.424 85.632 194.424 87.648V90.48H203.448V85.68C203.448 80.832 201.336 77.328 196.008 77.328C191.208 77.328 188.712 80.16 188.04 84.144H187.56V77.808H179.112V102H188.136ZM216.87 102.48C224.886 102.48 229.398 99.216 229.398 94.704C229.398 90.624 227.142 88.272 220.086 87.504L215.286 86.976C212.454 86.688 212.07 86.352 212.07 85.68C212.07 84.768 212.454 84.384 215.382 84.384C219.03 84.384 219.51 84.96 219.51 86.208V86.496H228.534V86.304C228.534 80.352 224.07 77.328 215.67 77.328C206.598 77.328 203.19 81.024 203.19 85.296C203.19 89.376 205.878 91.728 210.87 92.256L217.878 93.024C220.134 93.264 220.518 93.456 220.518 94.224C220.518 95.04 220.038 95.376 216.918 95.376C213.654 95.376 212.79 95.232 212.79 93.888V93.408H203.766V93.6C203.766 99.168 208.326 102.48 216.87 102.48ZM239.089 102V89.52C239.089 86.4 240.097 85.392 244.273 85.392C248.401 85.392 249.697 86.448 249.697 89.808V102H258.721V86.784C258.721 81.408 255.649 77.328 249.217 77.328C243.025 77.328 240.337 81.072 239.569 85.152H239.089V69.84H230.065V102H239.089ZM268.948 75.6V69.84H259.924V75.6H268.948ZM268.948 102V77.808H259.924V102H268.948ZM279.355 110.16V95.76H279.835C280.555 99.792 283.243 102.48 288.955 102.48C296.059 102.48 300.043 97.776 300.043 89.904C300.043 82.08 295.963 77.328 288.571 77.328C282.907 77.328 280.027 79.536 279.259 84.336H278.779V77.808H270.331V110.16H279.355ZM279.355 90.192V89.856C279.355 86.352 281.275 85.584 285.307 85.584C289.483 85.584 290.923 86.688 290.923 89.904C290.923 93.12 289.483 94.272 285.307 94.272C281.275 94.272 279.355 93.6 279.355 90.192ZM80.6046 116.6V110.84H71.5806V116.6H80.6046ZM80.6046 143V118.808H71.5806V143H80.6046ZM91.0109 143V130.52C91.0109 127.4 91.9709 126.392 95.9549 126.392C99.8909 126.392 101.139 127.448 101.139 130.808V143H110.163V127.496C110.163 122.264 107.091 118.328 100.563 118.328C94.0829 118.328 91.4429 122.12 90.9149 126.152H90.4349V118.808H81.9869V143H91.0109ZM127.526 143.48C133.19 143.48 136.07 141.272 136.838 136.472H137.318V143H145.766V110.84H136.742V125.048H136.262C135.542 121.016 132.854 118.328 127.142 118.328C120.038 118.328 116.054 123.032 116.054 130.904C116.054 138.728 120.134 143.48 127.526 143.48ZM125.174 130.904C125.174 127.688 126.614 126.536 130.79 126.536C134.822 126.536 136.742 127.208 136.742 130.616V130.952C136.742 134.456 134.822 135.224 130.79 135.224C126.614 135.224 125.174 134.12 125.174 130.904ZM160.631 143.48C168.791 143.48 173.927 139.688 173.927 134.312V133.736H164.903V134.264C164.903 135.704 163.943 136.328 160.295 136.328C156.455 136.328 155.159 135.512 155.015 132.584H173.975C174.071 131.72 174.119 131.096 174.119 130.28C174.119 122.504 168.791 118.328 160.439 118.328C152.375 118.328 146.663 123.032 146.663 130.904C146.663 139.976 152.423 143.48 160.631 143.48ZM160.247 125.24C163.607 125.24 165.047 125.96 165.383 128.024H155.159C155.543 125.96 156.935 125.24 160.247 125.24ZM188.042 143.48C196.058 143.48 200.57 140.216 200.57 135.704C200.57 131.624 198.314 129.272 191.258 128.504L186.458 127.976C183.626 127.688 183.242 127.352 183.242 126.68C183.242 125.768 183.626 125.384 186.554 125.384C190.202 125.384 190.682 125.96 190.682 127.208V127.496H199.706V127.304C199.706 121.352 195.242 118.328 186.842 118.328C177.77 118.328 174.362 122.024 174.362 126.296C174.362 130.376 177.05 132.728 182.042 133.256L189.05 134.024C191.306 134.264 191.69 134.456 191.69 135.224C191.69 136.04 191.21 136.376 188.09 136.376C184.826 136.376 183.962 136.232 183.962 134.888V134.408H174.938V134.6C174.938 140.168 179.498 143.48 188.042 143.48ZM210.261 116.6V110.84H201.237V116.6H210.261ZM210.261 143V118.808H201.237V143H210.261ZM222.395 140.312C227.723 140.312 230.267 137.96 230.891 134.456H231.371V139.544C231.371 143.624 230.459 144.2 226.571 144.2C221.867 144.2 221.627 143.72 221.627 141.752H212.603C212.603 148.088 217.499 151.64 225.947 151.64C235.259 151.64 240.395 147.56 240.395 138.92V118.808H231.947V124.472H231.467C230.795 120.296 227.531 118.328 222.635 118.328C215.483 118.328 211.163 122.456 211.163 129.272C211.163 136.184 215.195 140.312 222.395 140.312ZM220.283 129.272C220.283 126.92 221.435 126.104 225.659 126.104C229.691 126.104 231.371 126.632 231.371 129.224V129.56C231.371 132.104 229.691 132.584 225.659 132.584C221.435 132.584 220.283 131.672 220.283 129.272ZM250.808 143V130.52C250.808 127.4 251.768 126.392 255.752 126.392C259.688 126.392 260.936 127.448 260.936 130.808V143H269.96V127.496C269.96 122.264 266.888 118.328 260.36 118.328C253.88 118.328 251.24 122.12 250.712 126.152H250.232V118.808H241.784V143H250.808ZM287.976 132.296V132.056C287.976 131.048 288.168 130.376 289.896 129.704L293.496 128.36C296.52 127.208 300.024 125.288 300.024 120.008C300.024 114.632 296.184 110.36 286.2 110.36C274.536 110.36 270.168 116.216 270.168 122.744V124.184H279.048V121.88C279.048 119.624 280.392 118.568 285.528 118.568C290.52 118.568 291 119.336 291 120.344C291 121.4 290.232 121.832 288.36 122.504L285 123.752C281.976 124.856 278.952 126.488 278.952 130.52V132.296H287.976ZM288.648 143V134.504H278.328V143H288.648Z" fill="#001F10"/>
<path d="M67 51.8205C67 57.347 67.8644 62.7024 69.1798 66.6028C71.0088 71.9581 74.9299 74 81.369 74C89.2112 74 92.6061 71.9581 92.6061 68.8158C92.6061 67.5442 92.2553 66.6028 91.5663 65.5879L91.654 64.9888C94.1845 66.5172 97.8426 67.6176 104.883 67.6176C110.019 67.6176 114.203 66.7617 118.375 65.4045C121.068 66.2482 123.774 66.5905 125.691 66.5905C129.875 66.5905 131.692 64.4631 131.692 61.9199C131.692 60.9906 131.166 60.1348 130.564 59.4501C134.135 59.0221 135.876 56.7357 135.876 54.6082C135.876 53.0799 135.525 52.065 134.661 51.2947C139.797 50.2799 142.24 47.8101 142.24 44.3254C142.24 40.8408 140.411 39.0557 138.319 37.6129C139.271 37.5273 140.06 37.3561 141.188 37.0994C142.753 37.4417 144.582 37.8697 147.025 37.8697C149.468 37.8697 151.297 37.5273 152.249 37.185C153.464 37.4417 155.206 37.6129 156.684 37.6129C161.119 37.6129 164 36.5981 164 33.2846C164 29.9711 160.956 27 133.258 27C116.195 27 104.094 28.9563 92.5936 34.3972L91.1153 33.7125C89.8125 30.7414 85.4529 30.3135 81.0182 30.3135C74.4914 30.3135 70.8334 32.3554 69.0044 37.5395C67.6139 41.6233 67 46.8075 67 51.8205ZM90.1632 49.1061C90.1632 44.1787 90.9525 37.0382 97.2162 34.4828C104.883 31.3405 115.155 28.8707 132.919 28.8707C159.828 28.8707 162.171 31.3405 162.171 33.1256C162.171 34.9108 160.605 35.0819 158.513 35.0819C156.421 35.0819 153.64 34.5684 152.162 33.7248C150.946 34.4095 149.293 34.7396 147.288 34.7396C145.284 34.7396 142.415 34.2261 141.801 33.5536C139.271 35.2531 135.45 36.1824 127.959 34.9108C125.691 33.2968 120.292 30.7414 113.59 32.5265L113.765 33.8837C118.638 32.7833 124.125 34.654 127.608 36.6837L136.314 37.6129C136.139 41.0976 134.222 43.653 129.437 43.653C124.651 43.653 121.344 41.3543 119.077 38.8967C118.375 40.2539 114.203 42.5525 111.322 42.039C110.282 46.9664 106.098 51.6371 99.2206 53.5934V54.1069C104.62 54.3637 106.098 55.4641 107.313 57.5916C108.879 60.3059 111.059 62.6902 113.752 63.1181C114.366 63.546 115.055 63.974 115.669 64.3041C113.577 64.8176 110.884 65.16 108.792 65.16C101.137 65.16 90.1632 63.974 90.1632 49.1061ZM128.384 50.121C123.95 50.121 115.068 48.507 115.068 45.0224C115.068 43.8364 116.634 42.308 118.638 42.308C120.467 43.8364 124.564 45.8783 129.174 45.8783C134.222 45.8783 137.442 42.5648 137.179 38.7378C139.095 40.095 140.311 41.8801 140.311 43.7508C140.323 46.9787 137.442 50.121 128.384 50.121ZM128.134 37.2828C128.046 40.2539 129.261 42.2102 134.235 41.281L134.322 40.853C132.406 40.853 129.186 39.0679 128.66 37.2828H128.134ZM129.612 57.775C123.687 57.775 112.024 55.3051 112.024 51.576C112.024 49.8764 113.414 48.5192 115.243 48.5192C117.774 49.8764 121.858 51.9183 128.309 51.9183C130.051 51.9183 131.704 51.8327 133.095 51.6615C133.709 52.1751 134.047 53.0187 134.047 54.2047C134.047 55.9899 132.13 57.775 129.612 57.775ZM125.603 64.9032C121.77 64.9032 111.322 61.4186 111.322 58.1907C111.322 56.7479 112.362 55.9776 113.765 55.9776C117.511 58.0195 123.511 59.4623 128.648 59.5479C129.261 59.9758 129.6 60.9906 129.6 61.8465C129.612 63.4605 128.384 64.9032 125.603 64.9032ZM122.208 48.4214C123.774 47.9935 124.388 46.7219 123.161 45.1936H122.81C122.81 46.0372 122.284 47.9079 121.933 48.2503L122.208 48.4214ZM119.515 55.3051C121.958 54.706 122.472 53.4344 120.906 51.3926L120.467 51.4781C120.643 52.8353 120.379 54.4493 119.34 55.0484L119.515 55.3051ZM118.638 58.6186C118.638 59.8046 118.2 61.2474 116.984 61.7609L117.16 62.0177C119.077 61.8465 120.379 60.9173 119.164 58.6186H118.638ZM80.7676 50.8913C80.7676 41.2076 82.8597 34.7396 88.2591 34.7396C89.2112 34.7396 90.0881 34.9964 90.9525 35.6688C87.9083 39.1535 86.7683 44.7656 86.7683 49.6074C86.7683 54.4493 88.0712 60.4893 90.2509 64.1329C90.2509 67.0185 88.5096 68.8036 86.6806 68.8036C83.2857 68.8158 80.7676 62.5312 80.7676 50.8913ZM84.7639 64.2308C84.7639 65.16 85.4655 65.8447 86.4175 65.8447C87.2945 65.8447 87.9835 65.16 87.9835 64.2308C87.9835 63.3749 87.2819 62.7024 86.4175 62.7024C85.4655 62.7024 84.7639 63.3749 84.7639 64.2308Z" fill="#001F10"/>
</svg>
